<svg width="12" height="20" fill="none" xmlns="http://www.w3.org/2000/svg"><path fill-rule="evenodd" clip-rule="evenodd" d="M7.29 1.26A4.62 4.62 0 0 0 6 1.08c-.44 0-.88.06-1.3.17-.41.13-.81.3-1.17.52-.37.22-.7.49-1 .8-.3.32-.56.67-.77 1.05-.21.39-.38.8-.5 1.25-.12.44-.18.9-.18 1.38 0 .36.04.7.12 1.02.09.34.21.68.38 1.01L6 17.5l4.42-9.21c.16-.33.28-.67.37-1.01.08-.32.12-.66.12-1.02 0-.48-.06-.94-.18-1.38-.12-.45-.29-.87-.5-1.25-.21-.39-.47-.74-.77-1.05-.3-.31-.64-.58-1-.8-.36-.22-.75-.4-1.17-.52zM4.41.22C4.92.07 5.45 0 6 0s1.08.07 1.6.23c.51.15.99.36 1.43.63.44.27.84.6 1.21.98s.68.8.94 1.26c.25.46.46.96.6 1.49.15.53.22 1.09.22 1.66 0 .45-.05.88-.15 1.28-.11.41-.26.82-.45 1.22L6 20 .6 8.75C.4 8.34.25 7.94.15 7.53.05 7.13 0 6.7 0 6.25c0-.57.07-1.13.22-1.66.14-.53.34-1.03.6-1.49.26-.47.57-.89.94-1.27.36-.38.77-.71 1.21-.98.45-.27.92-.48 1.44-.63zM8 5.83c0-1.1-.9-2-2-2s-2 .9-2 2 .9 2 2 2 2-.9 2-2zm-5 0c0-1.66 1.34-3 3-3s3 1.34 3 3-1.34 3-3 3-3-1.34-3-3z" fill="#fff"/></svg>