<svg width="210" height="56" viewBox="11 8 210 56" fill="none" xmlns="http://www.w3.org/2000/svg"><path d="M97.72 22c3.95 0 7.2 1.35 9.82 4.02 2.62 2.67 3.95 5.99 3.95 9.98 0 3.98-1.33 7.35-3.95 10.02S101.67 50 97.72 50s-7.24-1.32-9.86-3.98c-2.62-2.67-3.91-6.03-3.91-10.02 0-3.98 1.29-7.31 3.91-9.98 2.62-2.67 5.91-4.02 9.86-4.02zm0 25.33c3.05 0 5.63-1.08 7.71-3.25 2.07-2.17 3.13-4.87 3.13-8.08s-1.06-5.92-3.13-8.08c-2.07-2.17-4.66-3.25-7.71-3.25s-5.63 1.08-7.71 3.25c-2.07 2.17-3.13 4.87-3.13 8.08s1.06 5.92 3.13 8.08c2.08 2.17 4.66 3.25 7.71 3.25zM116.95 49.54V22.46h11.5c5.48 0 8.77 3.02 8.77 7.5 0 4.6-3.29 7.62-8.77 7.62h-8.61v11.95h-2.89v.01zM119.84 35h8.41c3.88 0 6.1-1.82 6.1-4.95 0-3.21-2.23-4.99-6.1-4.99h-8.41V35zM148.38 49.54V25.06h-9.43v-2.59h21.87v2.59h-9.55v24.48h-2.89zM174.72 22c3.95 0 7.2 1.35 9.82 4.02 2.62 2.67 3.95 5.99 3.95 9.98 0 3.98-1.33 7.35-3.95 10.02S178.67 50 174.72 50s-7.24-1.32-9.86-3.98c-2.62-2.67-3.91-6.03-3.91-10.02 0-3.98 1.29-7.31 3.91-9.98 2.62-2.67 5.91-4.02 9.86-4.02zm0 25.33c3.05 0 5.63-1.08 7.71-3.25 2.07-2.17 3.13-4.87 3.13-8.08s-1.06-5.92-3.13-8.08c-2.07-2.17-4.66-3.25-7.71-3.25s-5.63 1.08-7.71 3.25c-2.07 2.17-3.13 4.87-3.13 8.08s1.06 5.92 3.13 8.08c2.08 2.17 4.66 3.25 7.71 3.25z" fill="#1B1C20"/><path d="M192.52 33.37c.77-.77 2.08-.77 2.85 0s.77 2.08 0 2.85-2.08.77-2.85 0c-.77-.78-.77-2.08 0-2.85zM203.55 46.06c-2.66-2.63-3.99-5.99-3.99-10.05 0-4.06 1.33-7.39 3.99-10.02 2.7-2.67 6.03-3.98 10.06-3.98 2.97 0 5.52.66 7.67 2.01v2.94c-2.39-1.51-4.93-2.28-7.63-2.28-3.17 0-5.79 1.08-7.94 3.25-2.15 2.13-3.21 4.83-3.21 8.08 0 3.29 1.06 5.99 3.21 8.12 2.15 2.13 4.85 3.21 8.02 3.21s5.87-.89 8.14-2.71v2.98c-2.23 1.59-4.97 2.4-8.26 2.4-4.04-.01-7.36-1.33-10.06-3.95z" fill="#165D99"/><path d="M41.74 8.06s-.75-.05-1.14-.06l.95 1.54-1.06 1.58c13.5.27 24.4 11.34 24.4 24.89 0 4.27-.94 7.98-2.84 11.49l.77 1.98h1.72c2.2-4 3.46-8.59 3.46-13.47C68 21.17 56.35 8.98 41.74 8.06zM12 36.01c0 4.89 1.26 9.48 3.47 13.49l.87-1.48h1.89a24.52 24.52 0 0 1-3.12-12.01c0-13.49 10.8-24.52 24.21-24.89l1.16-1.57L39.44 8C24.25 8.3 12 20.75 12 36.01zm2.91 12.38zM63.98 50.49h-1.87l-.7-1.79C57.08 56.04 49.13 60.89 40 60.89c-8.95 0-16.8-4.69-21.19-11.79h-1.84l-.92 1.4C20.96 58.58 29.86 64 40 64c10.18 0 19.07-5.36 23.98-13.51zM40 63.94c-9.73 0-18.29-4.95-23.31-12.47C21.71 58.99 30.27 63.94 40 63.94zm7.31-3.9z" fill="#8DBE42"/><path d="M40 58.01c12.15 0 22-9.85 22-22s-9.85-22-22-22-22 9.85-22 22 9.85 22 22 22z" fill="#165D99"/></svg>