<svg width="72" height="77" fill="none" xmlns="http://www.w3.org/2000/svg"><g filter="url(#filter0_dd)"><path fill-rule="evenodd" clip-rule="evenodd" d="M35.833 0l.01.063.001-.012v.02c.098.556.91 4.182 5.693 5.61.283.085.519.163.71.232C54.705 8.741 64 19.843 64 33.108 64 48.512 51.464 61 36 61S8 48.512 8 33.108c0-13.087 9.05-24.07 21.255-27.077.217-.087.509-.185.886-.298 4.782-1.43 5.595-5.055 5.692-5.61V0z" fill="#9E0B0F"/><path d="M37.645 13.123c0-.392-.276-.623-.518-.623h-2.254c-.242 0-.518.231-.518.623v6.381c0 2.27-1.105 3.54-2.085 4.667l-.017.02c-.948 1.09-1.753 2.032-1.753 3.7v15.05c0 1.733.002 3.199.175 4.234.087.519.209.87.352 1.08.123.18.25.245.427.245h9.091c.178 0 .305-.065.428-.246.144-.21.265-.56.352-1.08.173-1.034.175-2.5.175-4.234V27.892c0-1.67-.805-2.612-1.753-3.701l-.017-.02c-.98-1.126-2.084-2.396-2.084-4.667v-6.381z" fill="#9E0B0F" stroke="#fff"/><path fill="#9E0B0F" d="M13 28h43v13H13z"/><path d="M21.392 31.541c-.186.204-.396.432-.63.684a78.834 78.834 0 0 1-1.495 1.53c-.252.252-.488.486-.71.702.258.18.53.402.819.666a14.063 14.063 0 0 1 1.62 1.764c.245.312.45.609.612.891H20.58a8.437 8.437 0 0 0-.62-.846 9.672 9.672 0 0 0-.747-.819 9.902 9.902 0 0 0-.792-.729 6.648 6.648 0 0 0-.774-.567v2.961h-.873v-6.237h.873v2.754c.21-.198.44-.42.692-.666a88.219 88.219 0 0 0 1.44-1.476c.223-.234.409-.438.558-.612h1.053zm5.517 6.237c-.102-.27-.198-.534-.288-.792-.09-.264-.183-.531-.279-.801h-2.826l-.567 1.593h-.909a175.13 175.13 0 0 1 1.287-3.429c.204-.504.405-.984.603-1.44.198-.462.405-.918.621-1.368h.801a44.171 44.171 0 0 1 1.215 2.808c.204.504.411 1.038.621 1.602.21.558.435 1.167.675 1.827h-.954zm-.819-2.313a68.077 68.077 0 0 0-.576-1.512 23.843 23.843 0 0 0-.585-1.413c-.21.45-.41.921-.603 1.413-.186.486-.372.99-.558 1.512h2.322zm6.207-3.924v.756h-1.962v5.481h-.873v-5.481H27.5v-.756h4.797zm4.509 6.237c-.102-.27-.198-.534-.288-.792-.09-.264-.183-.531-.28-.801h-2.825l-.567 1.593h-.91a175.13 175.13 0 0 1 1.288-3.429c.204-.504.405-.984.603-1.44.198-.462.405-.918.62-1.368h.802a44.171 44.171 0 0 1 1.215 2.808c.204.504.41 1.038.62 1.602.21.558.436 1.167.676 1.827h-.954zm-.82-2.313a68.077 68.077 0 0 0-.575-1.512 23.843 23.843 0 0 0-.585-1.413c-.21.45-.411.921-.603 1.413-.186.486-.372.99-.558 1.512h2.322zm4.973-3.177l-.036.981c-.012.312-.03.618-.054.918-.024.294-.06.582-.108.864a6.398 6.398 0 0 1-.198.828c-.084.27-.189.525-.315.765a2.35 2.35 0 0 1-.459.621c-.18.174-.396.315-.648.423a2.374 2.374 0 0 1-.873.18l-.099-.756c.42-.048.744-.18.972-.396.234-.216.426-.546.576-.99.168-.504.273-1.11.315-1.818a35.51 35.51 0 0 0 .072-2.367h3.537v6.237h-.873v-5.49H40.96zm3.978 2.367c0-.534.079-1.005.235-1.413a2.96 2.96 0 0 1 .648-1.017c.276-.276.593-.483.953-.621a3.263 3.263 0 0 1 1.161-.207c.403 0 .78.069 1.135.207.36.138.674.345.944.621.27.27.483.609.64 1.017.162.408.242.879.242 1.413s-.08 1.005-.242 1.413c-.157.408-.37.75-.64 1.026-.27.27-.584.474-.944.612a3.094 3.094 0 0 1-1.135.207c-.407 0-.794-.069-1.16-.207a2.766 2.766 0 0 1-.955-.612 3.06 3.06 0 0 1-.648-1.026c-.155-.408-.233-.879-.233-1.413zm.919 0c0 .378.047.723.143 1.035.096.306.231.567.405.783.18.216.396.384.648.504.258.114.547.171.864.171.319 0 .604-.057.856-.171.252-.12.465-.288.639-.504.18-.216.317-.477.413-.783.096-.312.145-.657.145-1.035 0-.378-.049-.72-.145-1.026a2.258 2.258 0 0 0-.413-.792 1.72 1.72 0 0 0-.64-.495 1.965 1.965 0 0 0-.855-.18c-.317 0-.605.06-.863.18a1.8 1.8 0 0 0-.648.495c-.175.216-.31.48-.406.792a3.419 3.419 0 0 0-.144 1.026zm10.001-3.114v.756h-2.79v5.481h-.873v-6.237h3.663z" fill="#fff"/></g><defs><filter id="filter0_dd" x="0" y="0" width="72" height="77" filterUnits="userSpaceOnUse" color-interpolation-filters="sRGB"><feFlood flood-opacity="0" result="BackgroundImageFix"/><feColorMatrix in="SourceAlpha" values="0 0 0 0 0 0 0 0 0 0 0 0 0 0 0 0 0 0 127 0"/><feOffset dy="8"/><feGaussianBlur stdDeviation="4"/><feColorMatrix values="0 0 0 0 0 0 0 0 0 0 0 0 0 0 0 0 0 0 0.24 0"/><feBlend in2="BackgroundImageFix" result="effect1_dropShadow"/><feColorMatrix in="SourceAlpha" values="0 0 0 0 0 0 0 0 0 0 0 0 0 0 0 0 0 0 127 0"/><feOffset dy="4"/><feGaussianBlur stdDeviation="2"/><feColorMatrix values="0 0 0 0 0 0 0 0 0 0 0 0 0 0 0 0 0 0 0.25 0"/><feBlend in2="effect1_dropShadow" result="effect2_dropShadow"/><feBlend in="SourceGraphic" in2="effect2_dropShadow" result="shape"/></filter></defs></svg>