<svg width="56" height="61" fill="none" xmlns="http://www.w3.org/2000/svg"><path fill-rule="evenodd" clip-rule="evenodd" d="M27.833 0l.01.063.001-.012v.02c.098.556.91 4.182 5.693 5.61.283.085.519.163.71.232C46.705 8.741 56 19.843 56 33.108 56 48.512 43.464 61 28 61S0 48.512 0 33.108C0 20.021 9.05 9.038 21.255 6.031c.217-.087.509-.185.886-.298 4.782-1.43 5.595-5.055 5.692-5.61V0z" fill="#9E0B0F"/><path fill-rule="evenodd" clip-rule="evenodd" d="M19.288 40.285a1.024 1.024 0 0 0 1.472 1.423l6.986-7.225 6.986 7.225a1.024 1.024 0 0 0 1.472-1.423L29.17 33.01l7.034-7.275a1.024 1.024 0 1 0-1.472-1.423l-6.986 7.226-6.986-7.226a1.024 1.024 0 0 0-1.472 1.423l7.034 7.275-7.034 7.275z" fill="#E4ACAD"/></svg>