<svg width="17" height="16" fill="none" xmlns="http://www.w3.org/2000/svg"><rect x="1.5" y="4.221" width="14" height="10.748" rx=".5" fill="#F2F2F2" stroke="#9E0B0F"/><rect x=".5" y="4.221" width="16" height="2.916" rx=".5" fill="#F2F2F2" stroke="#9E0B0F"/><path d="M8.729 4.205c-.392.012-.86.02-1.347.021-.638 0-1.303-.013-1.875-.056-.593-.044-1.015-.115-1.214-.198-.937-.391-1.276-1.312-.924-2.002.352-.69 1.348-1.054 2.285-.663.2.083.532.327.955.706.406.365.85.813 1.263 1.253.316.335.612.663.857.94z" fill="#F2F2F2" stroke="#9E0B0F"/><path d="M8.288 4.205c.392.012.86.02 1.347.021.638.001 1.303-.013 1.874-.056.594-.044 1.015-.115 1.215-.198.937-.391 1.275-1.312.924-2.002-.352-.69-1.348-1.054-2.285-.663-.2.083-.533.327-.955.706-.407.365-.85.813-1.264 1.253-.316.335-.611.663-.856.94z" fill="#F2F2F2" stroke="#9E0B0F"/></svg>