<svg width="27" height="29" fill="none" xmlns="http://www.w3.org/2000/svg"><circle cx="14" cy="14.971" r="11" fill="#9E0B0F"/><path fill-rule="evenodd" clip-rule="evenodd" d="M13.5.97C6.044.97 0 7.216 0 14.92c0 7.703 6.044 13.947 13.5 13.947S27 22.622 27 14.92C27 7.215 20.956.97 13.5.97zm-2.968 6.555c.768-.036 1.013-.045 2.969-.045h-.003c1.957 0 2.201.009 2.969.045.767.036 1.29.161 1.749.345.474.19.874.444 1.275.858.4.414.646.829.831 1.318.177.473.299 1.013.335 1.805.034.794.043 1.047.043 3.068 0 2.02-.009 2.273-.043 3.066-.037.792-.158 1.333-.335 1.806-.184.489-.43.904-.831 1.317-.4.414-.801.67-1.275.86-.458.183-.982.308-1.748.345-.768.036-1.013.045-2.968.045-1.956 0-2.2-.01-2.969-.045-.766-.037-1.29-.162-1.748-.346a3.516 3.516 0 0 1-1.275-.858 3.66 3.66 0 0 1-.83-1.318c-.178-.473-.3-1.014-.334-1.806-.035-.793-.044-1.046-.044-3.066 0-2.02.009-2.274.043-3.068.035-.791.156-1.332.335-1.805.184-.49.43-.904.83-1.318.401-.414.803-.668 1.276-.858.458-.184.981-.309 1.748-.345z" fill="#F9C81C"/><path fill-rule="evenodd" clip-rule="evenodd" d="M12.855 8.82h.646c1.922 0 2.15.007 2.91.043.701.033 1.082.154 1.336.256.336.135.576.296.827.557.252.26.408.508.54.855.098.262.215.656.247 1.38.035.785.042 1.02.042 3.006 0 1.985-.007 2.22-.042 3.005-.032.725-.15 1.119-.248 1.38-.13.348-.287.595-.539.855a2.22 2.22 0 0 1-.827.557c-.254.102-.635.223-1.337.256-.759.036-.987.043-2.91.043-1.922 0-2.15-.007-2.909-.043-.702-.033-1.083-.155-1.337-.256a2.225 2.225 0 0 1-.828-.557 2.315 2.315 0 0 1-.538-.855c-.1-.262-.216-.655-.248-1.38-.035-.785-.042-1.02-.042-3.007 0-1.986.007-2.22.042-3.005.032-.725.149-1.119.248-1.381.13-.347.286-.595.538-.856.252-.26.492-.421.828-.556.254-.103.635-.223 1.337-.257.665-.03.922-.04 2.264-.042v.002zm4.489 1.235c-.477 0-.864.4-.864.893s.387.892.864.892.864-.4.864-.892c0-.493-.387-.893-.864-.893zm-7.54 4.864c0-2.11 1.655-3.82 3.697-3.82s3.697 1.71 3.697 3.82-1.655 3.82-3.697 3.82-3.698-1.71-3.698-3.82z" fill="#F9C81C"/><path d="M13.5 12.439c1.326 0 2.4 1.11 2.4 2.48 0 1.369-1.074 2.48-2.4 2.48-1.325 0-2.4-1.111-2.4-2.48 0-1.37 1.075-2.48 2.4-2.48z" fill="#F9C81C"/></svg>