<svg width="25" height="25" fill="none" xmlns="http://www.w3.org/2000/svg"><path d="M16.015 0C11.042 0 7 4.01 7 8.902c0 2.076.726 3.954 1.919 5.49L.37 22.837c-.494.512-.494 1.309 0 1.792.262.256.582.37.902.37.35 0 .669-.114.93-.37l8.55-8.475a8.991 8.991 0 0 0 5.234 1.65c4.972 0 9.014-4.01 9.014-8.903C25.029 3.982 20.987 0 16.015 0zm0 15.557c-3.693 0-6.688-2.986-6.688-6.655s2.995-6.655 6.688-6.655c3.693 0 6.688 2.986 6.688 6.655 0 3.67-2.995 6.655-6.688 6.655zm4.507-6.541c-.058.483-.494.853-.989.853h-.145a1.015 1.015 0 0 1-.873-1.109c.204-1.479-1.483-2.247-1.57-2.275-.494-.228-.727-.825-.494-1.309.232-.483.814-.71 1.337-.512.117.029 3.14 1.394 2.734 4.352zm-2.123 2.162c.204.199.35.511.35.796 0 .313-.117.597-.35.796-.203.2-.523.341-.814.341-.29 0-.61-.113-.814-.34a1.183 1.183 0 0 1-.35-.797c0-.285.117-.597.35-.796.203-.2.523-.342.814-.342.29 0 .581.114.814.341z" fill="#000"/></svg>