<svg width="15" height="12" fill="none" xmlns="http://www.w3.org/2000/svg"><path fill-rule="evenodd" clip-rule="evenodd" d="M1.437 1.673a.69.69 0 0 1 .608-.362h10.91a.69.69 0 0 1 .608.362L7.5 5.753l-6.063-4.08zm-.073 1.55V9.83c0 .36.308.656.681.656h10.91c.373 0 .681-.297.681-.656V3.223L7.891 7.09a.704.704 0 0 1-.782 0L1.364 3.223zM15 1.976V9.83c0 1.083-.919 1.966-2.046 1.966H2.045C.92 11.796 0 10.913 0 9.83V1.966C0 .883.919 0 2.045 0h10.91C14.075 0 14.99.873 15 1.948v.028z" fill="#9E0B0F"/></svg>