<svg width="437" height="10" fill="none" xmlns="http://www.w3.org/2000/svg"><path d="M436 6.5c-3.5-3-5-5.5-10.5-5s-12 10.5-18.5 5M407 6.5c-3.5-3-5-5.5-10.5-5s-12 10.5-18.5 5M378 6.5c-3.5-3-5-5.5-10.5-5s-12 10.5-18.5 5M349 6.5c-3.5-3-5-5.5-10.5-5s-12 10.5-18.5 5M320 6.5c-3.5-3-5-5.5-10.5-5s-12 10.5-18.5 5M291 6.5c-3.5-3-5-5.5-10.5-5s-12 10.5-18.5 5M262 6.5c-3.5-3-5-5.5-10.5-5s-12 10.5-18.5 5M233 6.5c-3.5-3-5-5.5-10.5-5s-12 10.5-18.5 5M204 6.5c-3.5-3-5-5.5-10.5-5s-12 10.5-18.5 5M175 6.5c-3.5-3-5-5.5-10.5-5s-12 10.5-18.5 5M146 6.5c-3.5-3-5-5.5-10.5-5s-12 10.5-18.5 5M117 6.5c-3.5-3-5-5.5-10.5-5S94.5 12 88 6.5M88 6.5c-3.5-3-5-5.5-10.5-5S65.5 12 59 6.5M59 6.5c-3.5-3-5-5.5-10.5-5S36.5 12 30 6.5M30 6.5c-3.5-3-5-5.5-10.5-5S7.5 12 1 6.5" stroke="#E0E0E0" stroke-opacity=".8" stroke-width="2"/></svg>