<svg width="30" height="29" fill="none" xmlns="http://www.w3.org/2000/svg"><mask id="a" fill="#fff"><path fill-rule="evenodd" clip-rule="evenodd" d="M19.95 4.95L15 0l-4.95 4.95-9.192 9.192 4.95 4.95L15 9.9l9.192 9.192 4.95-4.95L19.95 4.95z"/></mask><path d="M19.95 4.95l.707.707.707-.707-.707-.707-.707.707zm0 0l-.707-.707-.707.707.707.707.707-.707zM15 0l.707-.707L15-1.414l-.707.707L15 0zm0 0l-.707.707.707.708.707-.708L15 0zm0 0l.707-.707L15-1.414l-.707.707L15 0zm-4.95 4.95l-.707-.707-.707.707.707.707.707-.707zm0 0l.708.707.707-.707-.707-.707-.707.707zM.858 14.142l-.707-.707-.707.707.707.708.707-.708zm4.95 4.95L5.1 19.8l.707.707.707-.707-.707-.707zM15 9.9l.707-.707L15 8.486l-.707.707L15 9.9zm9.192 9.192l-.707.707.707.707.707-.707-.707-.707zm4.95-4.95l.707.707.707-.707-.707-.707-.707.707zm-9.9-9.9l1.415 1.415-1.414-1.414zM14.294.708l4.95 4.95 1.414-1.414-4.95-4.95L14.293.707zm1.414 0L14.293-.707 15.707.707zm-1.414 0l1.414-1.414L14.293.707zm-3.536 4.95l4.95-4.95-1.414-1.414-4.95 4.95 1.414 1.414zm0-1.414L9.343 5.657l1.415-1.414zM1.566 14.85l9.193-9.193-1.415-1.414-9.192 9.192 1.414 1.415zm4.95 3.535l-4.95-4.95L.151 14.85l4.95 4.95 1.414-1.415zm7.778-9.192l-9.192 9.192 1.414 1.414 9.192-9.192-1.414-1.414zM24.9 18.385l-9.193-9.192-1.414 1.414 9.192 9.192 1.415-1.414zm3.535-4.95l-4.95 4.95 1.415 1.414 4.95-4.95-1.415-1.414zm-9.192-7.778l9.192 9.192 1.414-1.414-9.192-9.192-1.414 1.414z" fill="#B17C8F" mask="url(#a)"/></svg>