<svg width="30" height="29" fill="none" xmlns="http://www.w3.org/2000/svg"><mask id="a" fill="#fff"><path fill-rule="evenodd" clip-rule="evenodd" d="M10.05 23.334l4.95 4.95 4.95-4.95 9.192-9.192-4.95-4.95L15 18.384 5.808 9.192l-4.95 4.95 9.192 9.192z"/></mask><path d="M10.05 23.334l-.707-.707-.707.707.707.707.707-.707zm0 0l.707.707.707-.707-.707-.707-.707.707zm4.95 4.95l-.707.707.707.707.707-.707-.707-.707zm0 0l.707-.707L15 26.87l-.707.707.707.707zm0 0l-.707.707.707.707.707-.707-.707-.707zm4.95-4.95l.707.708.707-.708-.707-.707-.707.707zm0 0l-.708-.707-.707.707.707.707.707-.707zm9.192-9.192l.707.707.707-.707-.707-.707-.707.707zm-4.95-4.95l.707-.707-.707-.707-.707.707.707.707zM15 18.384l-.707.708.707.707.707-.707-.707-.707zM5.808 9.192l.707-.707-.707-.707-.707.707.707.707zm-4.95 4.95l-.707-.707-.707.707.707.707.707-.707zm9.9 9.9l-1.415-1.415 1.414 1.414zm4.949 3.535l-4.95-4.95-1.414 1.414 4.95 4.95 1.414-1.414zm-1.414 0l1.414 1.414-1.414-1.414zm1.414 0l-1.414 1.414 1.414-1.414zm3.536-4.95l-4.95 4.95 1.414 1.414 4.95-4.95-1.414-1.414zm0 1.414l1.414-1.414-1.415 1.414zm9.192-10.606l-9.193 9.192 1.415 1.414 9.192-9.192-1.414-1.414zm-4.95-3.536l4.95 4.95 1.414-1.414-4.95-4.95-1.414 1.414zm-7.778 9.193l9.192-9.193-1.414-1.414-9.192 9.192 1.414 1.415zM5.1 9.899l9.192 9.193 1.414-1.415-9.192-9.192L5.1 9.9zm-3.536 4.95l4.95-4.95L5.1 8.485l-4.95 4.95 1.414 1.414zm9.192 7.778l-9.192-9.192-1.414 1.414 9.192 9.192 1.414-1.414z" fill="#726C78" mask="url(#a)"/></svg>