<svg xmlns="http://www.w3.org/2000/svg" width="300" height="158"><path fill="#FFF" d="M195.15 84.477c3.668-1.927.672-19.795-.888-27.96-1.184-6.153-2.712-16.794-3.974-24.737-.804-5.076-1.485-21.982-2.301-25.386-2.074-8.676-10.428-6.716-16.01-4.508-2.764 1.099-48.57 9.14-57.96 10.361-5.152.674-31.102 5.46-37.17 6.227-6.147.783-9.468-.251-14.964.438-6.138.772-29.504 3.688-29.504 3.688s.956 3.187-.56 3.55c-4.098.983-6.982-2.52-6.982-2.52S8.601 25.606 5.756 26.677C.535 28.625-.523 35.739.205 45.169c.538 6.906 2.033 15.062 3.559 23.347 1.531 8.285 4.308 30.505 4.695 33.445.498 1.486 1.034 3.674 2.445 5.282 2.044 2.307 3.732 2.258.572 3.861-.299.151-.602.157-.909.084 2.319 5.893 6.182 8.358 15.209 5.805 2.599-.736 34.048-6.993 39.87-8.225 7.985-1.688 41.154-9.71 49.479-11.396 5.813-1.18 13.005-1.462 18.164-2.488 7.739-1.539 17.936-6.533 23.148-7.534 4.87-.923 4.944 1.938 6.563 1.846 5.193-.295 31.005-4.115 32.15-4.719z"/><path fill="#B17C8F" d="M195.15 84.478c3.668-1.928.672-19.798-.888-27.962-1.184-6.15-2.712-16.791-3.974-24.735-.804-5.076-1.485-21.983-2.301-25.387-2.074-8.676-10.428-6.716-16.01-4.508-2.764 1.099-48.57 9.14-57.96 10.361-5.152.674-31.102 5.46-37.17 6.227-6.147.783-9.468-.251-14.964.438-6.137.773-29.503 3.688-29.503 3.688s.956 3.186-.56 3.552c-4.098.982-6.982-2.522-6.982-2.522S8.601 25.608 5.756 26.677c-5.221 1.95-6.279 9.06-5.551 18.49.538 6.908 2.033 15.06 3.559 23.346 1.531 8.288 4.308 30.51 4.695 33.447.498 1.487 1.034 3.673 2.445 5.28 2.044 2.309 3.732 2.26.572 3.86-.299.151-.602.16-.909.09 2.319 5.891 6.182 8.355 15.209 5.798 2.599-.736 34.048-6.989 39.87-8.221 7.985-1.69 41.154-9.71 49.479-11.396 5.813-1.178 13.005-1.463 18.164-2.488 7.739-1.539 17.936-6.533 23.148-7.532 4.87-.929 4.944 1.939 6.563 1.848 5.193-.298 31.005-4.116 32.15-4.721z"/><path fill="#311616" d="M84.691 31.881l3.341 21.721 19.316-2.971-3.338-21.72-2.874.442 1.289 8.333c.86-.116.793.803.267 1.758l1.368 8.894-5.348.822-2.925-18.987-2.873.443 2.916 18.985-5.338.822-2.92-18.984-2.881.442zM110.068 27.98l3.341 21.718 2.875-.441-1.22-7.928 1.234-2.716 5.646 9.188.326.537 3.052-.469-.731-1.215-6.805-11.32 3.483-7.595.735-1.593-3.507.538-.213.477-3.991 9.157-1.346-8.78zM87.671 73.347c.715 4.679 1.103 8.136.648 9.798-.125.458-.417 1.128-1.53 1.254-.561.064-1.25-.126-1.745-.307l.791 2.35c.125.052.267.096.424.138 1.125.311 1.919.444 2.289.607 1.269-.485 2.28-1.644 2.792-3.358.644-2.216.346-5.395-.333-9.816l-1.883-12.258 7.027-1.081 3.397 22.069s0-.003.005-.007c0 0 .35.855.676 1.488.328.634 2.069.137 2.069.137s-.211.168-.571.4l1.327-.211-1.199-7.813-3.24-9.867c.226-.535.583-.289.806-.823-.641 1.574.505 3.239 1.577 5.111l-1.421-9.24c-.033.245-.053.478-.1.744-1.143.605-.827-1.908-.848-4.102 0-.472-.283-.874-.535-1.244l-12.587 1.938 2.164 14.093zM168.383 41.631c1.815-.281 3.201-1.131 4.034-2.379.64.866 1.46 1.146 2.192 1.035.503-.077.854-.177.89-.185l.816-.22-.413-2.658s-.617.328-.979.212c-.364-.109-.494-.449-.689-1.718l-1.804-11.741c-.638-4.162-2.629-5.843-6.252-5.286-2.779.426-4.379 1.851-4.718 4.137l1.574.315s.67-1.753 1.695-1.976c.319-.067.624.147.888.456.257-.089.553-.165.9-.216 1.305-.204 2.574-.02 2.979 2.633.32 2.073-.032 2.776-.644 3.203 0 0-.488.331-1.101.744.058.416.143.793.333.972.7.695-.273.845-1.442 1.024 0 0-.862-.095-1.39-.285-2.236 1.563-3.037 3.629-2.567 6.685.551 3.575 2.839 5.687 5.698 5.248z"/><path fill="#B17C8F" d="M167.371 31.624c.007 0 1.729-1.212 2.97-2.085l-.005-.028.035.013c-.017.006-.02.006-.03.015l.652 4.217c.105.719.037 4.704-2.921 5.157-1.754.271-2.319-1.747-2.509-2.976-.297-1.932.24-3.225 1.808-4.313z"/><path fill="#311616" d="M146.631 33.936c.566 3.698.871 6.434.508 7.745-.097.358-.325.896-1.209.993-.446.052-.995-.097-1.381-.237l.898 2.647c.334.032.83.044 1.337-.051 1.255-.224 2.267-1.222 2.746-2.811.506-1.751.272-4.266-.265-7.751l-1.486-9.697 5.546-.853 2.966 19.252 2.502-.379-3.331-21.617-10.551 1.621 1.72 11.138zM162.963 25.307c-.743.008-1.214-.188-1.514-.468.016.119.016.23.028.354l.15.937 2.846-.436-.116-.919a9.715 9.715 0 0 1-.068-.741c-.293.192-.599.383-.84.537-.464.296.288.724-.486.736zM154.987 14.45c2.545-.189 10.089-1.647 14.389-2.096.16-.019-.32.199-.037.188.925-.13 1.559-.909 2.398-1.102.136-.024.073.1-.235.166 1.692.089 4.519-1.083 5.675-.579.006-.027-.107-.315-.131-.471l-35.242 5.422c.523.436.69.712-.355.429a9.946 9.946 0 0 1-.821-.25l-1.656.256c-.091.114-.189.229-.304.384a1.706 1.706 0 0 1-.43.414c5.329-.781 10.608-1.561 15.755-2.374-.673.01-.167-.177.994-.387zM105.53 21.973c-.193.127-.047.174.715.096 10.302-1.726 20.998-3.25 31.499-4.785-.233-.091-.403-.369-.505-.608l-62.113 9.556.492.599c10.089-1.495 20.192-3.041 29.912-4.858zM177.444 11.188l.011.024c.093.092.21.381.21.381l.288.518-.133-.853a.845.845 0 0 1-.376-.07zM178.853 18.707l.321 1.353-1.002-6.504a.698.698 0 0 1-.16.095l.841 5.056zM122.591 54.366c-1.332 1.445-1.902 3.609-1.551 5.908l.142.939 3.028-.467-.15-.937c-.373-2.438 1.014-4.397 3.363-4.76 2.668-.411 4.013.716 4.475 3.756.26 1.66.064 3.029-.538 3.858-.564.767-1.606 1.302-2.914 1.505l-2.18.336.176 1.139c1.622.177 4.061.833 5.361 1.068.457.078.494.38.278.745.112.062.249.107.355.182 1.167.759 2.021 2.269 2.293 4.042.294 1.903.011 3.673-.729 4.604-.63.818-1.662 1.339-3.078 1.559-1.299.203-2.37.04-3.158-.463-1.03-.623-1.699-1.806-1.95-3.437l-.146-.938-3.11.479.14.941c.281 1.812.9 3.259 1.819 4.324 1.969-.485 5.194-1.065 4.687.521-.2.609-.259 1.063-.239 1.429.11.041.212.082.323.13a11.03 11.03 0 0 0 2.318-.089c.119-.02.221-.046.338-.069-.042-.097-1.137.305 1.316-.592a20.779 20.779 0 0 1 1.634-.52c2.549-1.605 3.727-4.57 3.145-8.343-.348-2.258-1.301-4.125-2.755-5.386a6.666 6.666 0 0 0-1.693-1.062c.141-.146.264-.288.372-.419 1.649-1.948 1.455-4.639 1.169-6.49-.662-4.279-3.68-6.432-8.065-5.755-1.92.295-3.469 1.079-4.476 2.262zM109.78 54.968c-3.196.491-5.024 2.541-5.611 6.278-.325 2.199-.185 5.226.44 9.282.626 4.055 1.425 6.994 2.415 8.98 1.729 3.248 4.099 4.583 7.254 4.102 2.525-.391 4.149-1.637 5.114-3.917.758-1.686 1.032-3.86.774-5.869-.514-.392-.794-.767-.895-1.119l-2.426.374.141.938c.282 1.814.532 6.089-3.11 6.651-1.734.262-3.28-.779-4.244-2.862-.672-1.416-1.209-3.497-1.649-6.359l-.218-1.438 11.568-1.775-.456-2.967c-.49-3.193-1.326-5.599-2.553-7.358-1.686-2.395-3.824-3.357-6.544-2.941z"/><path fill="#B17C8F" d="M107.332 67.101c-.443-3.582-.474-8.68 2.851-9.193 1.704-.261 3.14.633 4.047 2.509.598 1.205 1.061 2.891 1.487 5.396l-8.385 1.288z"/><path fill="#311616" d="M143.353 68.666c-.011-.039-2.594-16.87-2.594-16.87l-.148-.935-3.157.487 4.2 27.356 2.482-.387.184-.55 6.666-20.549.196 1.791c.008.04 2.592 16.867 2.592 16.867l.147.938 3.156-.484-4.206-27.352-2.476.38-.18.555-6.668 20.588-.194-1.835zM158.934 48.293l-3.036.465 4.202 27.351 3.163-.483-2.708-17.607 8.101 15.721.311.61 1.531-.232c-.19-.562-.078-1.094.625-1.206.25-.034.427-.018.558.041l2.947-17.104c.686 4.472 2.566 16.672 2.566 16.672l.147.94 3.155-.487-.229-1.469-1.661-1.415s-.566-.588.288-1.074c.438-.252.777-.147 1.011.122l-.253-1.678c-.213.047-.399.07-.568.093-.047.002-.095.012-.142.013-.043.002-.078.002-.119.002a.792.792 0 0 1-.226-.025h-.013c-.062-.022-.104-.057-.111-.109 0-.006-.004-.01-.004-.016-.007-.04.007-.093.039-.158.015-.018.024-.045.038-.064a.916.916 0 0 1 .124-.151c.04-.046.058-.078.104-.131.24-.239.476-.435.695-.6l-3.181-20.692-3.038.47-.115.674-3.701 22.113L159.243 48.9l-.309-.607z"/><path fill="#311616" d="M182.485 45.126c-1.809-10.782-3.418-23.278-5.011-31.384-.775-.02-.888-.896-.636-1.668.057-.177.105-.327.148-.467-22.215 3.392-43.91 6.992-65.604 10.202-.587.25-2.481.063-4.073.406-2.33.123-7.506 1.152-8.984 1.139-5.801 1.161-12.282 2.063-18.477 3.06-.557.077.927-.199-.28-.106-3.046.32-.641.522-3.568.898l.494-.185c-.224.021-.433.053-.65.079l.882 1.07s-1.15 1.574-1.612-.156a6.433 6.433 0 0 0-.245-.795c-3.398.481-6.588 1.281-10.422 1.75 1.33-.324-.666-.261-.149-.459 3.46-.513 6.948-1.031 10.44-1.545-.262-.357-.667-.19-1.983-.364l-22.53 3.467.011.054c.142.111.958 1.764.876 2.125 1.24-.214 3.639-.192 2.047.058.08.144.629.13 1.395.037l2.919-.448c.094-.015.61-.098 1.368-.212a4.932 4.932 0 0 0-.725-.341c-.84-.267 1.656-.855 2.438-.979.361-.054.833.381 1.131.885l.424-.066a.61.61 0 0 1 .027.071c.508.67.928 1.235 1.123.554.102-.337.735-.677 1.168-.982 2.323-.354 4.324-.664 4.324-.664 1.268-.342 2.658-.71 3.885-.772l-.467.103c.517.011 1.138-.052 1.808-.131l1.981-.309c2.798-.502 8.708-1.572 8.708-1.572 6.187-.994 12.379-1.794 18.414-2.598l72.181-11.101 5.019 32.609a4537.719 4537.719 0 0 1 3.078 18.493c.295-.124.599-.277.918-.488.65-.426 1.085-.456 1.387-.288l-.041-.265-.816-4.038c-.688-4.816-2.321-14.587-2.321-14.677z"/><path fill="#311616" d="M126.978 28.814c-.437 1.979-.437 4.506.026 7.5.626 4.061 1.683 6.906 3.24 8.687 1.348 1.474 2.982 2.033 5.012 1.722 2.657-.409 4.308-2.039 4.889-4.838.444-1.983.437-4.539-.033-7.588-.606-3.946-1.699-6.843-3.244-8.608a4.99 4.99 0 0 0-.394-.39c-1.238.938-5.626.957-5.626.957l.877-2.252c-2.575.448-4.172 2.063-4.747 4.81z"/><path fill="#B17C8F" d="M132.213 26.684c1.827-.283 2.941 1.482 3.443 2.557.541 1.132.98 2.736 1.327 4.724 1.803-.078 3.573.679 2.669 1.325-.578.4-1.396 1.059-2.247 1.709.01.06.014.112.02.167 1.035.534 1.45 3.205 1.45 3.205s-.535.855-1.737 1.503c-.343.985-1.012 1.953-2.334 2.155-1.943.299-3.009-1.498-3.474-2.596-.5-1.16-.949-3.032-1.345-5.576a27.493 27.493 0 0 1-.222-1.75c-1.087-.286-1.731-.891-.554-2.227.168-.187.311-.348.446-.502.015-.431.055-.836.107-1.212.267-2.026 1.158-3.285 2.451-3.482z"/><path fill="#311616" d="M57.125 47.29c-.179-.173-.302-.582-.302-.582l-1.528.854.052 1.384-.716 2.09 1.5-1.031s.71-1.482.977-1.853c.261-.364 1.297-1.171 1.297-1.171s-1.109.485-1.28.309z"/><path fill="#311616" d="M58.718 47.14s-1.066.717-1.319 1.171c-.257.455-.724 1.557-.724 1.557l4.348-2.114s-.906-.512-1.451-.626c-.551-.107-.854.012-.854.012zM60.318 55.92c.545-.117 1.892-.203 1.892-.203s-.462-.462-.537-.557c-.077-.093.34-.438.34-.438s-.832-.118-1.964.029c-1.135.143-2.553.788-2.553.788l1.685.81s.593-.314 1.137-.429zM58.726 54.498c.916-.284 3.022-.192 3.022-.192s-.188-.256-.365-.517c-.187-.263-.739-.732-.739-.732l.902-.521s-1.142.003-2.259.213C58.161 52.954 55 54.158 55 54.158l2.103 1.069c.001.001.71-.444 1.623-.729zM48.323 52.733s.023.25-.227.624c-.249.375-.816 1.049-.816 1.049l.019 1.224.045.634-.059 1.032 1.589-.217s1.037-1.573 1.428-1.465c.34.09-.68 1.915-.951 2.392l-.021.008.004.023c-.021.045-.051.08-.051.08l.051-.022-.012 1.663s.415-.083.653-.012c.241.067.352 1.271.352 1.271s.205-1.292.394-1.701c.189-.41 1.149-1.755 1.149-1.755l.16-1.547.043-.047.313-2.827-.397-.291s-.35.458-.69.265c-.337-.196-1.29-1.178-1.29-1.178l-1.686.797zM60.632 59.821s.208-.261.333-.229c.13.035.759 0 .759 0s-.205-.257-.373-.696a55.66 55.66 0 0 1-.386-.988l-1.63-.76s.262.981.554 1.563c.289.584.743 1.11.743 1.11zM185.902 65.792c-.565.095-1.401.322-2.3.585.382 2.335.772 4.675 1.144 7.011 1.373 2.975-.177 1.308.138 2.935 0 0-.077-.028-.716.623-.646.65-4.12.978-5.715 1.225l-9.96 1.494c-6.277.916-12.588 1.788-18.946 2.607l-44.21 6.799-.271 1.57-1.201.978c3.7-.548 7.671-1.138 11.999-1.789 6.133-.908 12.27-1.848 18.417-2.784l-1.054-1.265s1.153-1.576 1.608.146c.139.506.228.8.338.983 8.267-1.262 16.519-2.537 24.766-3.803l15.367-2.333c.021-.261.114-.495.319-.668.799-.668 2.25-.483 2.089.303l4.175-.638 5.464-.813c.978.616-.184-2.965-.174-4.238l-1.277-8.928zM41.422 94.121l3.162-.49-4.211-27.354-3.04.468-.111.679-3.708 22.118L23.325 69.56l-.305-.607-3.04.463 4.201 27.354 3.159-.487-2.703-17.602 8.099 15.721.315.607 2.542-.394.114-.675 3.007-17.432c.687 4.474 2.565 16.673 2.565 16.673l.143.94z"/><path fill="#311616" d="M61.428 52.274s-.68-.564-.886-.673c-.213-.111-.895-.281-.895-.281s-.953.071-1.256.243c-.307.182-1.078-.012-1.078-.012s.552-.607 1.051-.553c.501.059 1.119-.681 1.422-1.085.303-.403 1.082-1.648 1.082-1.648s-2.238 1.085-3.832 1.976c-2.257 1.271-2.197 1.353-4.033 2.731l1.749.866 3.499-1.324 3.177-.24zM59.074 58.252c-.16-.523-.189-1.188-.189-1.188l-1.304-.913a.196.196 0 0 0-.009-.034l-2.665-1.613s.527 3.347.902 4.424c.368 1.076.732 1.85.732 1.85l.201-.813s.695.244 1.005.271c.317.024 1.132.082 1.132.082s.091-.528.205-.513c.119.014.75.192.75.192s-.589-1.225-.76-1.745zM78.856 78.644l1.418 9.232 1.114-.172c.365-.696.941-1.686 1.35-1.879.161-.071.304-.137.429-.189l-3.939-25.595-13.336 2.049 2.167 14.085c.716 4.682 1.102 8.145.645 9.805-.135.452-.422 1.128-1.532 1.255-.563.06-1.252-.134-1.739-.307l1.121 3.355a6.842 6.842 0 0 0 1.689-.06c1.605-.292 2.871-1.551 3.482-3.561.637-2.217.35-5.393-.33-9.813l-1.676-10.872a6.443 6.443 0 0 0-.387-.85c-.466-.861.272-.839 1.441-1.019 0 0 .431.052.863.146l4.893-.752 1.736 11.28c.223-.056.388.045.38.476-.021 1.389 1.098 1.129.659 2.931-.11.448-.262.553-.448.455zM47.151 32.482l1.385.029-.484-1.55-.73-.405-2.283.302s-.304.324.564 1.051c.229.19 1.548.573 1.548.573zM60.792 90.179l.145.938 3.161-.487-4.208-27.353-2.476.382-.182.555-6.665 20.589-.201-1.835c-.004-.043-2.593-16.869-2.593-16.869l-.143-.936-3.164.486 2.885 18.728c.147.114.305.258.489.463.451.525.208.682-.314.693l1.152 7.469 2.476-.378.181-.556 6.672-20.552.191 1.795 2.594 16.868z"/><path fill="#311616" d="M98.298 91.868c-.995 1.02-.913-.415-1.055-1.552l-14.918 2.295c-15.992 2.565-32.131 5.364-47.733 7.616-10.851 1.739-1.422.203-12.136 1.771-.653.304-1.168.285-1.546.06l-.293-.243c-.39-.446-.542-1.182-.447-1.938l-.595-4.019-1.2-8.057-2.531-16.211.096.051a38671.11 38671.11 0 0 1-2.784-17.712c.936 1.134 1.995 2.045 3.108 2.63 3.218 1.671 7.424 1.776 11.918.512a47.65 47.65 0 0 0 1.933-.604c4.902 10.768 14.49-1.48 22.067-10.541 5.44-1.417 12.625-.68 17.589 1 .414.139.598 1.826 1.003 1.97.318.11 1.763.192 2.118-.252.994-1.288-1.828-2.873-2.039-2.942-.395-.145-.785-.275-1.178-.406a47.59 47.59 0 0 0-3.613-1.001c5.237-.868 9.927-2.888 13.365-8.942.053-.089.455-.779-.136-1.128-.565-.33-1.232.125-1.292.992-.05.731.508.52.367.731-.997 1.469-2.667 4.172-7.103 5.73-2.678.934-6.682 1.759-9.215 1.908a28.324 28.324 0 0 0-8.053.203c3.186-3.696 5.877-6.349 7.481-5.687 1.775.742 2.932-2.602 1.573-2.367-4.292.728-7.475 4.923-10.103 8.258-3.693.773-8.414 3.325-12.438 5.567-6.593 3.683-15.413 7.675-22.092 5.021-3.229-1.29-6.181-4.675-6.768-10.361 0-.008-.016-.006-.016-.014l-.573-3.677c-.338-.644-.311-1.061-.079-1.339l.201-.179c.818-.548 2.758-.345 3.513-.684L27.4 36.354c10.925-1.947 6.521-2.136 2.658-2.323.104-1.405-2.898.063-4.186-.045-6.775 1.036-10.532 1.606-16.964 2.589 1.049 18.612 6.15 44.135 9.31 65.438l.396 2.737.201.209s1.883-.265 2.573-.532l3.71-.554a898.757 898.757 0 0 0 13.58-2.104c-.835.151-.573.136-.608.187 26.945-4.66 39.81-6.487 62.574-9.861v-.004l1.981-2.604-3.077.478c-.201.501-.497 1.131-1.25 1.903z"/><path fill="#B17C8F" d="M38.098 52.912c4.215-2.425 8.211-5.068 12.865-6.656.06-.017.127-.027.185-.049-2.622 3.118-4.971 5.429-8.022 8.475-4.24 4.229-9.026 5.45-11.542 1.265a43.795 43.795 0 0 0 6.514-3.035z"/><path fill="#311616" d="M56.261 61.011l-.896-2.159s-.146.433-.222.736c-.076.309-.109.646-.109.646s.206.224.402.353c.2.128.825.424.825.424zM30.092 33.163l-.043.004c.016.016.031.037.054.051l-.011-.055zM50.814 61.304s.043.325.429.737c.373.408 1.273.919 1.273.919l-.41-4.815s-.705.968-.967 1.416c-.256.46-.325 1.743-.325 1.743zM54.317 46.161l-1.468.528-.504.514-.785.585s-.329.554-.531.951c-.201.399-.596.809-.596.809l.354 1.414s.979.528 1.309.722c.334.2.121.73.121.73l.451.204 1.684-1.329.747-2.213-.107-1.371s-.936 2.153-1.232 1.868c-.288-.282.563-1.971.563-1.971l-.006-1.441zM54.751 59.951l.369-1.655-.614-3.847-1.616-1.092c-.284 2.278-.386 2.265-.374 4.865.019 1.818.181 4.302.181 4.302s.698-1.294.898-1.752c.2-.466.543-1.369.24-1.773-.296-.408-.04-1.187-.04-1.187s.548.564.548.921c-.005.356.408 1.218.408 1.218zM61.025 56.21c-.635.12-1.578.506-1.578.506l1.445.679c.22.377.775 1.321.906 1.526.177.254.481.42.481.42s.218-.197.477-.33c.261-.125.535-.307.535-.307s-.229-.305-.338-.579c-.027-.074-.027-.025-.349-1.099l.035.007s-.16-.412-.255-.497c-.105-.075-.02-.401-.02-.401s-.691-.041-1.339.075z"/><g fill="#311616"><path d="M195.493 96.624c2.315-1.128 4.765-2.641 7.114-4.392a23.589 23.589 0 0 0-.104 3.522c.086 1.777 1.126 6.849 4.654 6.849h.001c2.294-.01 3.993-1.611 4.922-4.633 1.93-.756 3.878-1.896 5.951-3.483.359-.274.548-.377.642-.415a4.714 4.714 0 0 1-.083.578c-.061.336-.13.716-.132 1.093 0 .868.305 1.646.881 2.252.463.486 1.014.733 1.637.733 2.01 0 4.328-2.594 5.853-4.652-.127.932-.094 1.896.379 2.504.404.523 1.063.699 1.945.51 2.13-.452 4.627-3.016 6.119-5.512a80.665 80.665 0 0 1-.254 1.739l-.117.819a3.777 3.777 0 0 0-.209 1.842c.027.247.219.42.466.42a.495.495 0 0 0 .499-.455 35.19 35.19 0 0 1 .251-2.032c.414-.602 1.152-1.049 1.874-1.456.308-.172.617-.336.925-.5.773-.411 1.574-.836 2.313-1.375.406-.298.687-.729.875-1.027l.016.167c.101 1.263.837 4.54 3.011 4.54l.068-.001c2.039-.066 3.76-1.646 5.071-3.128.953 2.232 2.528 3.156 4.504 2.625 1.811-.482 3.27-2.39 3.221-4.19.055-.098.108-.2.163-.309l.013.099c.19 1.369.695 2.836 1.462 4.243.279.506.769.763 1.455.763.505 0 1.058-.135 1.546-.253.229-.056.447-.109.646-.145 4.413-.811 7.025-4.142 9.192-7.623a.433.433 0 0 0 .016-.447c-.166-.291-.683-.311-.857-.013-1.669 2.678-3.588 5.404-7.042 6.747-1.121.432-1.955.633-2.627.633-1.032.001-1.705-.474-2.119-1.494-.73-1.783-.975-3.434-.727-4.903a.465.465 0 0 0-.098-.383c-.226-.265-.726-.177-.847.174-.188.582-.39 1.117-.604 1.598-.768-1.078-2.418-1.566-3.851-1.566-1.493 0-2.708.491-3.249 1.313-.238.362-.445.947-.215 1.772a.438.438 0 0 0-.177.135 16.34 16.34 0 0 1-2.874 2.676c-.614.448-1.173.676-1.657.676-1.815 0-2.466-3.341-2.557-5.101-.006-.25-.22-.447-.487-.447a.466.466 0 0 0-.431.266c-.672 1.364-2.104 2.199-3.49 3.008-.822.479-1.608.938-2.251 1.498.18-1.229.339-2.488.343-3.759l-.031-.149-.083-.129a.43.43 0 0 0-.228-.139.298.298 0 0 0-.113-.023l-.104.007a.598.598 0 0 0-.217.079l-.064.06a.202.202 0 0 0-.023.038.35.35 0 0 0-.1.177c-.354 1.739-1.881 3.439-3.107 4.807l-.155.172a12.061 12.061 0 0 1-2.628 2.244c-.688.434-1.161.506-1.439.15-.554-.71-.284-2.77-.076-3.603.025-.105.049-.193.074-.283a17.59 17.59 0 0 0 .866-1.519.46.46 0 0 0-.03-.444c-.174-.266-.637-.267-.826.009-.145.199-.304.5-.467.884-.115.182-.274.481-.443.802-.174.329-.359.682-.518.938-.632.979-1.464 1.934-2.62 3.001-.736.68-1.893 1.533-3.223 1.737-.498.076-.847-.029-1.087-.326-.509-.631-.525-2.065-.042-4.296a.454.454 0 0 0-.091-.384c-.167-.201-.524-.218-.729-.036-2.287 1.951-4.393 3.35-6.586 4.369.091-.41.17-.839.236-1.28.017-.124.01-.423-.421-.531a3.53 3.53 0 0 0-.929-.118c-2.042 0-4.237 1.479-5.219 3.515a.463.463 0 0 0 .02.448.49.49 0 0 0 .427.222c1.52-.028 2.984-.27 4.462-.738-.533 1.182-1.475 2.555-2.669 3.115a2.459 2.459 0 0 1-1.032.249c-2.188 0-3.321-3.71-3.526-4.453-.445-1.626-.547-3.535-.304-5.677 5.044-3.923 9.027-8.528 11.226-12.978.785-1.593.824-3.168.106-4.322a2.79 2.79 0 0 0-2.415-1.343c-1.207 0-2.456.702-3.52 1.979-2.291 2.746-3.52 6.335-4.58 9.774-.666 2.136-1.149 4.178-1.438 6.069-2.602 2.079-5.217 3.766-7.772 5.015-.195.094-.293.283-.247.483.065.29.429.467.716.328zm17.654-22.764c.682.286 1.093.712 1.257 1.303.543 1.95-1.757 5.103-2.745 6.457-2.204 3.009-4.967 5.933-8.018 8.488.758-4.321 2.589-8.621 4.026-11.526.6-1.212 2.424-4.897 4.637-4.897.281 0 .564.058.843.175zm-2.016 21.953c.336 0 .36.135.372.2.055.298-.002.764-.16 1.319-.52.198-2.672.907-3.705.907-.305 0-.376-.063-.379-.063-.001-.003-.003-.024.014-.073.26-.749 2.688-2.29 3.858-2.29zm41.402-8.118c.261-.037.524-.057.785-.057 1.707 0 3.096.809 3.351 1.935-1.109 1.797-2.438 2.415-3.98 1.838-1.069-.403-1.856-1.493-1.754-2.431.075-.69.642-1.146 1.598-1.285zm2.21 4.727a3.12 3.12 0 0 0 1.019-.451c-.604.647-1.258.975-1.946.975-.649 0-1.313-.316-1.877-.854a4.128 4.128 0 0 0 2.804.33zM299.376 114.078c-.942.251-1.836.378-2.656.378-3.075 0-4.988-1.778-5.13-4.761.543-1.195.612-2.102.206-2.696l-.124-.163h-.004c-.467-.548-1.076-.837-1.77-.837-1.165 0-2.422.848-2.987 2.016-.312.644-.35 1.16-.114 1.536.219.35.646.534 1.237.534a3.76 3.76 0 0 0 1.746-.468c.293-.173.556-.39.785-.611l-.001.074-.003.228c-.261.782-.723 1.589-1.41 2.464-.899 1.145-2.008 1.775-3.12 1.775-1.397 0-2.67-.975-3.405-2.609-.154-.335-.719-.37-.889-.032-.775 1.546-1.602 2.7-3.108 3.309a2.542 2.542 0 0 1-.956.208c-1.789 0-2.56-2.581-2.737-4.126a.455.455 0 0 0-.111-.333c-.16-.186-.466-.22-.651-.066a.434.434 0 0 0-.166.207c-1.061 2.512-3.445 4.737-6.075 5.669-.119.042-.193.046-.246-.016-.277-.319-.099-1.636-.019-2.194.267-.434.477-.846.641-1.257a.459.459 0 0 0-.043-.438c-.19-.282-.663-.288-.838.044-.083.177-.215.456-.357.814-.489.978-1.339 1.827-2.185 2.601-1.631 1.491-3.756 2.532-5.83 2.854-1.227.196-2.214-.06-2.917-.766-1.079-1.083-1.234-2.89-1.23-3.87a.47.47 0 0 0-.662-.413c-2.183.976-3.825 2.682-5.414 4.331l-.145.15c-.234.24-.465.483-.696.727-.757.796-1.54 1.618-2.405 2.325-.221.185-.417.281-.567.281-.064 0-.163-.015-.274-.143-.412-.473-.487-1.806-.427-2.247.107-.796.368-1.606.621-2.391l.186-.582a.431.431 0 0 0-.07-.384.529.529 0 0 0-.549-.173c-2.532.819-4.736 2.839-6.17 5.616-.002-.46-.01-.919-.017-1.369a56.818 56.818 0 0 1-.008-2.436.424.424 0 0 0-.116-.315c-.241-.254-.849-.118-.854.334-.004.104-.004.212-.004.319 0 .102 0 .204.002.262-.369 1.738-1.905 3.445-3.139 4.815l-.109.121a12.179 12.179 0 0 1-2.626 2.244c-.695.438-1.173.506-1.452.145-.551-.709-.291-2.717-.081-3.563.339-.597.657-1.211.949-1.833a.46.46 0 0 0-.029-.44c-.176-.269-.632-.27-.824.005-.132.185-.284.468-.464.862-.106.169-.253.444-.411.745a16.06 16.06 0 0 1-.56 1.007c-.633.994-1.463 1.95-2.613 3.01-.732.677-1.887 1.528-3.227 1.736-.491.074-.841-.032-1.08-.327-.347-.429-.644-1.482-.104-4.029a16.88 16.88 0 0 0 .472-1.313.422.422 0 0 0-.06-.383.487.487 0 0 0-.396-.188.5.5 0 0 0-.485.349c-.073.25-.183.552-.305.873a.421.421 0 0 0-.12.203l-.02.099a.423.423 0 0 0-.01.065c-.56 1.38-2.598 5.884-5.321 5.884-.516 0-1.041-.164-1.561-.486-.713-.447-1.123-1.153-1.558-1.901-.324-.558-.659-1.135-1.132-1.6-.636-.621-1.938-.899-2.946-.899-.749 0-1.384.148-1.79.42a8.251 8.251 0 0 0-.48.351.427.427 0 0 0-.051-.325.514.514 0 0 0-.434-.236c-.05 0-.099.008-.087.012a.462.462 0 0 0-.379.232 9.911 9.911 0 0 0-.494 1.005c-1.028 1.852-2.051 3.222-3.105 4.157a2.318 2.318 0 0 0-.301-1.684c-.709-1.163-2.479-1.944-4.403-1.944-.335 0-.665.025-.981.074-.889.145-1.534.533-1.867 1.125-.282.501-.335 1.13-.153 1.817l-.053.036a.397.397 0 0 0-.146.102 15.37 15.37 0 0 1-2.885 2.672c-.614.45-1.172.679-1.656.679-1.811 0-2.456-3.338-2.545-5.112a.481.481 0 0 0-.491-.433.47.47 0 0 0-.427.265c-.671 1.362-2.104 2.197-3.488 3.006-.822.48-1.611.94-2.254 1.502.179-1.227.337-2.483.341-3.757a.336.336 0 0 0-.059-.192l-.07-.109a.534.534 0 0 0-.232-.126c-.026-.006-.06-.014-.101-.014l-.08.005a.467.467 0 0 0-.253.106l.001.001-.066.072a.302.302 0 0 0-.096.177c-.352 1.727-1.872 3.424-3.095 4.787l-.17.19a11.89 11.89 0 0 1-2.634 2.241c-.688.436-1.165.51-1.442.149-.555-.713-.28-2.769-.07-3.598.028-.111.049-.199.068-.288.387-.612.708-1.173.863-1.506a.457.457 0 0 0-.021-.447c-.171-.269-.635-.276-.831.006-.145.207-.31.521-.46.874-.112.177-.267.467-.432.777-.179.337-.371.7-.535.963-.642.999-1.495 1.981-2.612 3.006-.743.683-1.907 1.539-3.235 1.744-.495.073-.841-.032-1.079-.326-.76-.938-.231-3.429-.046-4.305a.44.44 0 0 0-.084-.376c-.162-.2-.51-.229-.728-.051-2.293 1.959-4.399 3.358-6.589 4.373.096-.417.175-.85.234-1.272a.481.481 0 0 0-.11-.384.489.489 0 0 0-.369-.161h-.001c-2.958-.09-4.912.979-6.096 3.413a.472.472 0 0 0 .458.667 15.566 15.566 0 0 0 4.492-.753c-.451 1.136-1.265 2.454-2.708 3.127a2.455 2.455 0 0 1-1.031.249c-2.204 0-3.319-3.711-3.521-4.456-.445-1.613-.549-3.521-.311-5.669 5.042-3.919 9.026-8.527 11.226-12.985.786-1.593.826-3.169.108-4.323a2.788 2.788 0 0 0-2.413-1.342c-1.205 0-2.454.702-3.515 1.977-2.282 2.725-3.52 6.327-4.591 9.784-.68 2.197-1.148 4.184-1.432 6.068-2.596 2.07-5.211 3.757-7.776 5.015-.193.097-.287.287-.24.483.068.29.414.47.721.326 2.382-1.164 4.769-2.638 7.102-4.386a23.19 23.19 0 0 0-.098 3.519c.109 2.231 1.387 6.839 4.637 6.839h.008c2.295 0 3.996-1.597 4.926-4.618 1.919-.751 3.872-1.896 5.965-3.495.353-.271.54-.373.634-.412a4.661 4.661 0 0 1-.083.574c-.062.338-.131.721-.132 1.101 0 .876.296 1.634.88 2.252.464.487 1.016.734 1.639.734 2.023 0 4.333-2.591 5.851-4.651-.127.932-.093 1.896.379 2.503.404.522 1.059.698 1.941.509 2.136-.461 4.632-3.021 6.12-5.509a87.32 87.32 0 0 1-.264 1.819l-.107.744a3.724 3.724 0 0 0-.202 1.834.465.465 0 0 0 .469.418.487.487 0 0 0 .494-.45c.058-.602.137-1.249.248-2.032.421-.608 1.155-1.052 1.875-1.455.334-.189.668-.367 1.001-.544.75-.399 1.526-.812 2.235-1.336.407-.301.688-.732.878-1.03.005.05.011.106.016.171.106 1.264.854 4.542 3.013 4.542l.066-.001c2.051-.063 3.768-1.648 5.072-3.137.773 1.683 2.141 2.712 3.641 2.712 1.11 0 2.181-.568 3.101-1.644 1.079-.629 2.16-1.637 3.223-3.005-.197 1.164-.268 2.333-.312 3.445a.444.444 0 0 0 .12.328.468.468 0 0 0 .342.138c.279 0 .499-.2.511-.466.033-.728.067-1.34.123-1.938l.041-.123c.182-1.506.376-2.58 1.387-3.748.654-.752 1.429-1.134 2.302-1.134 1.396 0 2.638.981 3.199 1.894.719 1.17 1.417 2.186 2.695 2.751.472.211.952.317 1.427.317 2.114 0 3.804-2.048 4.96-4.085.04.954.274 1.669.701 2.133.492.536 1.228.733 2.183.586 2.246-.348 4.1-2.186 5.399-3.953-.067.795.008 1.612.436 2.145.406.507 1.06.675 1.93.488 2.366-.501 4.966-3.471 6.32-5.875-.006 1.27-.032 2.554-.162 3.787a14.502 14.502 0 0 0-.371 2.191.414.414 0 0 0 .106.323c.227.248.743.132.854-.207.274-.907.447-1.922.526-3.103a20.671 20.671 0 0 1 2.444-4.119c.528-.691 1.239-1.355 2.238-2.091.592-.431.858-.543.97-.57-.003.176-.134.581-.215.835-.063.195-.127.396-.174.576-.008.027-.742 2.854.122 4.001.23.305.559.466.951.466l.064-.001c1.515-.069 2.95-1.759 3.999-2.992.266-.313.508-.599.721-.82 1.261-1.321 2.625-2.7 4.263-3.774.245.031.573 1.349.681 1.781.098.391.174.698.257.876.592 1.226 2.023 2.048 3.608 2.048 2.867-.051 6.07-1.636 8.227-4.017-.024.515.072.905.292 1.182.224.282.561.426 1.003.428 2.531-.004 5.164-2.869 6.486-5.002.397 1.578 1.344 3.623 3.565 3.511 1.192-.067 2.208-.496 2.935-1.238a10.007 10.007 0 0 0 1.451-1.868c.159.128.424.61.518.779.107.195.157.284.211.338 1.682 1.707 3.945 1.689 6.112-.03.425-.342 1.104-1.108 1.718-2.023.141.703.374 1.332.72 1.94.852 1.527 2.442 2.302 4.726 2.302h.001c1.049 0 2.252-.174 3.471-.5a.437.437 0 0 0 .354-.481.495.495 0 0 0-.624-.419zm-9.941-5.39l-.004-.005-.17.077c-.418.192-.849.329-1.186.377-.33.052-.56.004-.586-.055-.005-.012-.116-.295.731-1.229a3.44 3.44 0 0 1 .536-.495l.075-.057.005-.024.083-.048c.529-.39.897-.433 1.03-.433l.112.009.072-.001c.443 0 .547.076.568.1.04.045.023.2.007.352a3.408 3.408 0 0 0-.024.405c.003.188-.419.603-1.239 1.02a.03.03 0 0 0-.01.007zm-94.173 21.323c.034.023.069.047.104.069.703.453 1.44.7 2.194.738-.96.272-1.753-.14-2.298-.807zm4.705-3.118c.381.613.4 1.303.059 1.991-.075.146-.178.286-.286.435l-.004.005a4.708 4.708 0 0 1-2.666.413c-.987-.142-2.362-1.176-2.655-2.296-.154-.594.033-1.098.557-1.498.502-.383 1.15-.585 1.876-.585 1.276-.001 2.559.63 3.119 1.535zm-45.114 8.32c-.521.161-2.769.659-3.782.659a2.13 2.13 0 0 1-.188-.008c.553-.909 1.367-1.524 2.467-1.849.362-.2.676-.302.934-.302.212 0 .518.057.779.526a12.52 12.52 0 0 1-.21.974zm1.833-23.48c.682.288 1.093.715 1.257 1.306.539 1.942-1.749 5.086-2.748 6.46-2.22 3.025-4.983 5.949-8.021 8.49.752-4.331 2.585-8.627 4.025-11.526.603-1.213 2.435-4.903 4.65-4.903.279 0 .561.058.837.173zM79.961 145.791c-.352.43-4.357 4.021-6.371 4.021-.364 0-.862-.105-.971-1.024-.105-.869.149-1.878.775-3.135a25.6 25.6 0 0 0 1.106-1.549.431.431 0 0 0 .017-.447c-.148-.268-.583-.331-.803-.093-.321.355-.712.92-1.044 1.507-.307.344-.647.748-.898 1.045-.161.19-.283.336-.333.39-1.447 1.571-3.14 2.721-4.894 3.325-.928.313-1.561.249-1.886-.221-.652-.938-.078-3.197.365-4.388a.418.418 0 0 0-.051-.386c-.146-.206-.5-.259-.677-.129-1.768 1.136-3.364 2.021-5.023 2.786a.484.484 0 0 0-.278.555.447.447 0 0 0 .634.313 42.794 42.794 0 0 0 3.921-2.069 20.01 20.01 0 0 1-.158 1.229c-.06.402-.111.749-.122.95-.047 1.167.583 2.062 1.687 2.392.322.098.662.146 1.008.146 1.989 0 4.035-1.603 5.585-3.207-.223 1.142-.003 2.009.652 2.539.436.353.963.531 1.567.531 2.717 0 6.157-3.539 6.928-4.485a.449.449 0 0 0 .067-.489c-.139-.297-.585-.374-.803-.107z"/><path d="M140.089 103.476c.653-.752 1.428-1.133 2.301-1.133 1.396 0 2.636.977 3.195 1.884l.069.114c.593.979 1.404 2.321 2.726 2.68.318.086.641.13.956.13 1.453 0 2.652-.905 3.662-1.754.205-.173.749-.632.938-.632.069 0 .19.221.307.435.114.209.256.468.461.762.391.559 1.03 1.021 1.631 1.179.313.081.634.122.954.122 2.225 0 4.275-1.961 4.39-4.208 0-.058-.005-.11-.011-.163l.034-.063c.257 3.514 1.821 5.182 4.418 4.606 2.625-.587 5.247-1.325 7.781-2.039 3.488-.981 7.094-1.997 10.745-2.626a32.325 32.325 0 0 1 3.475-.396.472.472 0 0 0 .453-.489c-.008-.258-.208-.452-.502-.452h-.003c-4.998.338-9.934 1.711-14.706 3.039l-.812.227c-.533.149-1.064.302-1.597.454-1.663.477-3.384.969-5.094 1.376-.92.223-1.642.015-2.185-.635-1.089-1.299-1.184-4.104-.903-5.682a.453.453 0 0 0-.096-.378c-.222-.266-.729-.177-.848.172a17.718 17.718 0 0 1-.605 1.579c-.827-1.108-2.604-1.515-3.989-1.515-1.027 0-1.974.214-2.597.585-.921.548-1.191 1.435-.765 2.485a.457.457 0 0 0-.144.105c-2.861 3.2-5.141 3.674-6.826 1.26a10.442 10.442 0 0 1-.456-.727c-.438-.738-.89-1.501-1.861-1.883-2.354-.915-4.371-.296-5.628 1.637.04-.597.083-1.193.13-1.79a.42.42 0 0 0-.11-.323c-.198-.212-.632-.162-.792.084-3.382 5.23-8.695 9.11-13.834 12.861l-.089.065c-1.131.82-2.326 1.651-3.638 2.53.839-3.13 1.809-6.439 3.135-9.657a.452.452 0 0 0-.029-.438c-.188-.292-.699-.282-.84.048-1.059 2.535-3.456 4.776-6.108 5.712-.118.044-.189.046-.241-.014-.272-.313-.103-1.598-.02-2.2.254-.414.468-.835.634-1.249a.457.457 0 0 0-.035-.439c-.187-.283-.665-.276-.83.04-.125.246-.29.584-.445.952-.537.989-1.404 1.836-2.101 2.464-1.64 1.486-3.766 2.531-5.832 2.866-1.226.196-2.216-.067-2.92-.773-1.081-1.085-1.235-2.89-1.231-3.88-.012-.304-.389-.535-.66-.409-2.182.977-3.822 2.68-5.408 4.327l-.153.159c-.222.229-.441.458-.66.688-.769.808-1.563 1.643-2.439 2.363-.221.183-.417.279-.568.279-.065 0-.166-.016-.279-.146-.418-.482-.477-1.856-.42-2.246.104-.781.362-1.584.613-2.36.065-.202.131-.404.194-.609a.431.431 0 0 0-.071-.383.527.527 0 0 0-.552-.169c-2.88.927-4.692 3.124-5.684 4.774-.159.194-.323.385-.493.575-.003-.325-.008-.65-.012-.974a62.968 62.968 0 0 1-.003-2.569.435.435 0 0 0-.121-.318c-.241-.245-.831-.121-.852.325l-.013.109c-.869.862-1.818 2.447-2.822 4.122-.887 1.48-1.804 3.012-2.607 3.895a4.343 4.343 0 0 1-.843.702c.226-.669.226-1.403-.021-2.005a2.024 2.024 0 0 0-1.436-1.223c-1.215-.286-2.689.137-3.578.938.039-1.034.354-2.15.617-3.079l.067-.238c.019-.072.219-.687.36-1.118l.119-.366a.418.418 0 0 0-.053-.383.49.49 0 0 0-.4-.191.486.486 0 0 0-.477.33l-.021.062c-.045.125-.09.255-.132.391-.039.06-.08.132-.127.219l-.046.083c-.427.846-1.174 1.591-1.897 2.311l-.219.219c-1.842 1.827-3.602 2.827-5.383 3.058-.75.099-1.24-.039-1.524-.419-.694-.929-.05-3.102.334-4.4.096-.322.176-.596.22-.79a.44.44 0 0 0-.066-.359.479.479 0 0 0-.333-.2l-.076-.005a.507.507 0 0 0-.495.328c-.868 2.309-2.839 4.223-4.246 5.461-.65.575-1.433 1.214-2.318 1.591a.342.342 0 0 1-.12.031c-.325-.263.457-2.959.705-3.446a.438.438 0 0 0-.003-.44c-.175-.293-.689-.3-.861.027-.057.114-.36.678-.395.739-2.709 4.325-6.29 7.195-9.527 9.423.699-2.676 1.561-5.726 2.691-8.644.099-.305.223-.6.315-.819l.083-.199a.467.467 0 0 0-.042-.444c-.197-.294-.701-.274-.833.054-1.05 2.524-3.446 4.768-6.104 5.713-.119.04-.191.043-.244-.018-.275-.316-.1-1.627-.013-2.243.277-.439.479-.825.63-1.205a.456.456 0 0 0-.036-.437c-.189-.288-.678-.278-.833.031-.107.207-.213.464-.335.762l-.036.058c-.492.995-1.336 1.839-2.176 2.603-1.636 1.492-3.76 2.534-5.829 2.857-1.232.199-2.221-.063-2.925-.77-1.08-1.084-1.234-2.888-1.229-3.868a2.07 2.07 0 0 0-.005-.138c-.003-.051-.007-.11-.007-.202 1.202-1.634 2.588-2.645 4.357-3.179a.45.45 0 0 0 .331-.504.491.491 0 0 0-.619-.387c-2.5.751-4.7 2.749-6.156 5.554-.005-.404-.015-.806-.024-1.201-.021-.886-.041-1.724-.017-2.54a.436.436 0 0 0-.121-.318c-.242-.248-.833-.122-.851.334-.021.809-.001 1.63.019 2.498.03 1.268.061 2.578-.036 3.784a12.556 12.556 0 0 0-.529 2.746l-.002.065a.432.432 0 0 0 .114.327c.227.238.731.118.838-.198.275-.815.45-1.737.525-2.766.304-.997.739-1.984 1.271-2.893.281 2.83 1.888 4.435 4.493 4.435 2.614 0 5.864-1.622 8.023-3.943-.032.563.067.99.296 1.276.356.446.985.521 1.869.206 1.546-.548 2.915-1.698 3.952-2.729l-.135.404c-.779 2.284-1.426 4.633-2.008 6.835-3.237 2.108-6.673 3.902-10.308 5.802l-.76.397c-6.589 3.457-16.546 8.682-12.909 17.364 1.134 2.712 4.155 4.464 7.697 4.464h.025c4.544-.006 7.541-3.649 9.643-6.822 3.843-5.818 5.54-12.554 7.182-19.067l.427-1.688c4.027-2.677 7.042-5.432 9.395-8.597-.065.596-.028 1.168.241 1.518.329.429.913.46 1.718.057 1.763-.888 3.582-2.509 4.955-4.382-.163.999-.138 1.925.37 2.583.448.582 1.232.877 2.33.877l.096-.001c2.358-.039 5.078-1.948 6.873-4.048-.242 1.278-.28 2.36-.112 3.226-.015.308.078.606.242.818.512 1.234 1.59 1.859 3.205 1.859h.079a2.244 2.244 0 0 0 1.615-.699c2.522-.952 4.022-3.597 5.347-5.932.546-.963 1.069-1.885 1.607-2.57l-.051 1.557c-.05 1.579-.12 3.74-.15 4.006a14.15 14.15 0 0 0-.345 2.101.41.41 0 0 0 .1.324.468.468 0 0 0 .353.147.512.512 0 0 0 .501-.344c.278-.903.451-1.923.528-3.116.418-.937.948-1.905 1.566-2.863.303-.396.6-.815.88-1.246l.043-.067c.534-.675 1.236-1.318 2.203-2.018.584-.429.85-.544.962-.573-.005.178-.136.578-.218.831-.064.196-.129.397-.178.582-.007.028-.735 2.862.134 4.004.228.299.551.456.936.456l.067-.001c1.518-.066 2.954-1.752 4.002-2.983.269-.315.513-.603.728-.826 1.178-1.242 2.573-2.659 4.259-3.773.158 0 .388.598.682 1.775.097.391.174.698.258.874.59 1.226 2.011 2.049 3.535 2.049l.069-.001c2.885-.049 6.014-1.578 8.183-3.954-.004.608.181 1.058.559 1.362.196.156.443.235.733.235 1.009 0 2.347-.957 3.065-1.472l.207-.147c.582-.403 1.141-.88 1.711-1.462-.856 2.52-1.553 5.021-2.134 7.193-2.87 1.876-5.455 3.384-8.128 4.743-.626.32-1.304.655-2.018 1.008-6.461 3.19-16.225 8.013-14.49 15.969.76 3.467 3.281 5.779 6.917 6.346.399.062.805.094 1.206.094 3.157 0 6.471-2.027 8.864-5.422 1.556-2.207 2.887-4.662 4.063-7.495 2.111 1.92 5.191 3.057 8.322 3.057 2.337 0 4.538-.617 6.364-1.785 4.518-2.888 5.829-9.341 6.613-13.196.944-4.658 1.319-9.476 1.622-13.995.176-1.402.375-2.482 1.37-3.629zm-16.211 31.618c-1.459 0-2.96-.271-4.46-.803-1.199-.431-2.322-1.184-3.259-2.183 1.54-3.922 2.617-8.064 3.66-12.073l.431-1.651c3.498-2.302 6.772-4.783 9.239-6.693 3.024-2.351 5.491-4.635 7.542-6.987.318-.375.661-.81.958-1.218l-.083 1.217c-.087 1.273-.173 2.544-.275 3.862-.49 6.623-.996 13.473-3.649 19.663-1.851 4.299-5.628 6.866-10.104 6.866zm-9.929-7.172a.494.494 0 0 0-.5-.391.486.486 0 0 0-.372.162.43.43 0 0 0-.091.353c.273 1.54.964 2.95 2.056 4.194-1.451 3.622-3.143 6.605-5.168 9.118-1.787 2.223-4.464 3.55-7.163 3.55a8.277 8.277 0 0 1-3.2-.642c-1.594-.663-2.762-1.87-3.376-3.489-.794-2.094-.612-4.785.476-7.024 1.111-2.299 3.885-4.043 6.114-5.443l.496-.313c2.712-1.704 5.644-3.202 8.479-4.65l.749-.383c2.098-1.063 4.25-2.301 6.563-3.777l-.117.437-.08.31c-.977 3.75-1.984 7.623-3.377 11.317-.774-1.046-1.286-2.188-1.489-3.329zm43.729-21.629c-.686 0-1.382-.351-1.962-.935.146.102.287.185.414.248.966.48 2.171.397 3.347-.217.057-.029.113-.061.168-.095-.61.664-1.27.999-1.967.999zm-1.13-1.538c-1.064-.396-1.849-1.481-1.748-2.419.074-.695.643-1.153 1.6-1.291.261-.037.524-.056.784-.056 1.701 0 3.09.807 3.351 1.931-1.118 1.801-2.44 2.412-3.987 1.835zm-79.463 18.582c-1.105-.183-1.591-.957-1.575-1.6.017-.645.549-1.454 1.997-1.618.083-.01.162-.015.238-.015.463 0 .84.179 1.091.518.283.381.378.949.237 1.412-.367 1.203-1.054 1.342-1.539 1.342-.16 0-.314-.018-.449-.039zm-52.577 22.518c1.711-3.533 6.623-6.042 10.569-8.058.598-.306 1.171-.599 1.703-.88l.89-.471c3.233-1.709 6.298-3.328 9.219-5.162l-.311 1.192c-.675 2.606-1.374 5.302-2.192 7.917-2.069 6.627-4.979 13.728-10.881 16.151a7.177 7.177 0 0 1-2.75.543c-2.087 0-4.192-.911-5.631-2.438-2.216-2.349-1.906-6.111-.616-8.794z"/></g></svg>