<svg xmlns="http://www.w3.org/2000/svg" width="26" height="26"><path d="M26 2.082v21.887a.977.977 0 0 0-.05.163 2.384 2.384 0 0 1-1.74 1.8l-.24.07H1.93A2.42 2.42 0 0 1 0 24.021V1.98A2 2 0 0 1 1.93 0h11.88a2.7 2.7 0 0 0 .3.032h8.29c.45 0 .89-.011 1.34.008a2.348 2.348 0 0 1 2.14 1.63c.05.136.08.275.12.412zM1.63 13.812v.154q-.015 4.785 0 9.569a.777.777 0 0 0 .86.839h9.39c.08 0 .16-.007.25-.011v-2.252a3.053 3.053 0 0 1-3.36-1.386 2.883 2.883 0 0 1 .04-3.317 3.082 3.082 0 0 1 3.31-1.332v-2.264H8.89a1.023 1.023 0 0 1-.3-.035 1.009 1.009 0 0 1-.54-1.537 1.426 1.426 0 0 0 .23-1.151 1.393 1.393 0 0 0-.94-1.043 1.311 1.311 0 0 0-1.36.258 1.415 1.415 0 0 0-.26 1.915 1.017 1.017 0 0 1 .04 1.1.982.982 0 0 1-.93.5c-1.06-.019-2.11-.007-3.2-.007zm2.26-1.634a3.107 3.107 0 0 1 2.6-3.843 2.985 2.985 0 0 1 2.5.8 3.134 3.134 0 0 1 .9 3.032h2.25V9.05a1.042 1.042 0 0 1 1.66-.937 1.43 1.43 0 0 0 1.85-2.144 1.35 1.35 0 0 0-1.83-.228 1.075 1.075 0 0 1-1.68-.932V1.625H2.62a.836.836 0 0 0-1 .99v9.564h2.27zm18.22 1.686a3.118 3.118 0 0 1-2.5 3.806 2.982 2.982 0 0 1-2.33-.57 3.124 3.124 0 0 1-1.18-3.233h-2.25V17a1.025 1.025 0 0 1-.75 1.053 1.149 1.149 0 0 1-.96-.168 1.388 1.388 0 0 0-1.81.285 1.448 1.448 0 0 0 .01 1.867 1.355 1.355 0 0 0 1.8.268 1.107 1.107 0 0 1 1.18-.074 1.045 1.045 0 0 1 .53 1.021c-.01.948 0 1.9 0 2.843v.284h9.65a.773.773 0 0 0 .87-.875v-9.639h-2.26zm-8.25-1.678h3.23a1 1 0 0 1 .99.785 1.058 1.058 0 0 1-.17.864 1.406 1.406 0 0 0 .12 1.716 1.429 1.429 0 0 0 2.29-1.7 1.046 1.046 0 0 1 .94-1.674c.95.01 1.89 0 2.84 0h.28v-.3c-.01-3.1 0-6.21-.01-9.315a.787.787 0 0 0-.92-.92h-9.32c-.09 0-.18.008-.26.012v2.22a3.155 3.155 0 0 1 3.8 2.658 2.987 2.987 0 0 1-.71 2.382 3.166 3.166 0 0 1-3.1 1.012v2.245z" fill="#3b3f43" fill-rule="evenodd"/></svg>