<svg xmlns="http://www.w3.org/2000/svg" viewBox="0 0 161.2 21.06"><defs><style>.cls-1{fill:#fff;text-align:center}</style></defs><g id="Слой_2" data-name="Слой 2"><g id="Layer_1" data-name="Layer 1"><path class="cls-1" d="M8.81 13.27v7.06h-3.4v-7.06h-1v7.06H1v-7.06H0v7.66h9.8v-7.66zM16.51 16.23l2.78-3h-.55l-4.11 4.31v-4.27h-1v7.66h1v-2.69l1.24-1.32 2.91 4h1.14zM30.13 15.79a4 4 0 0 0-.78-1.29 4.13 4.13 0 0 0-1.33-1 4.32 4.32 0 0 0-1.9-.39 4.19 4.19 0 0 0-1.86.38 4.05 4.05 0 0 0-1.29 1 3.85 3.85 0 0 0-.73 1.29A4.1 4.1 0 0 0 22 17.1a4 4 0 0 0 .24 1.31 3.9 3.9 0 0 0 .76 1.28 4 4 0 0 0 1.29 1 4.11 4.11 0 0 0 1.86.39 4.56 4.56 0 0 0 1.33-.18 4.22 4.22 0 0 0 1.07-.49 3.83 3.83 0 0 0 .83-.71 4 4 0 0 0 .57-.84 4.39 4.39 0 0 0 .34-.89 3.43 3.43 0 0 0 .11-.86 3.9 3.9 0 0 0-.27-1.32zm-1.08 2.71a3.28 3.28 0 0 1-.68 1.1 3.08 3.08 0 0 1-1 .72 3 3 0 0 1-1.22.26 2.85 2.85 0 0 1-1.21-.26 2.89 2.89 0 0 1-1-.72 3.28 3.28 0 0 1-.65-1.1 4.29 4.29 0 0 1 0-2.81 3.28 3.28 0 0 1 .65-1.1 2.89 2.89 0 0 1 1-.72 2.85 2.85 0 0 1 1.21-.26 3 3 0 0 1 1.22.26 3.08 3.08 0 0 1 1 .72 3.28 3.28 0 0 1 .68 1.1 4 4 0 0 1 0 2.81zM36.65 13.27H36l-2.36 6a7.47 7.47 0 0 1-.36.78c-.33.63-1.13.31-1.13.31l-.21.52a2.27 2.27 0 0 0 .4.1 2.72 2.72 0 0 0 .43 0 .85.85 0 0 0 .63-.3 2.54 2.54 0 0 0 .5-.85l2.14-5.42 2.77 6.43H40zM45.63 13.27h-.55l-3.24 7.66h.5l1-2.25h3.78l1 2.25h1.08zm-2.11 4.91l1.58-3.69 1.72 3.69zM60.42 16.23l2.78-3h-.55l-4.11 4.31v-4.27h-1v7.66h1v-2.69l1.24-1.32 2.91 4h1.14zM71.59 14.69a2 2 0 0 0-.46-.73 2.31 2.31 0 0 0-.78-.5 3.06 3.06 0 0 0-1.1-.18h-2.57v7.66h1v-3.21a5.68 5.68 0 0 0 .61.13 4.85 4.85 0 0 0 .72 0 3.38 3.38 0 0 0 1.18-.19 2.46 2.46 0 0 0 .86-.51 2.09 2.09 0 0 0 .52-.74 2.36 2.36 0 0 0 .18-.9 2.47 2.47 0 0 0-.16-.83zm-1 1.56a1.64 1.64 0 0 1-.34.58 1.77 1.77 0 0 1-.58.43 2 2 0 0 1-.84.16 5.52 5.52 0 0 1-.62 0 2.06 2.06 0 0 1-.51-.11v-3.56h1.15a1.87 1.87 0 0 1 .81.17 1.77 1.77 0 0 1 .58.43 1.82 1.82 0 0 1 .35.6 2 2 0 0 1 .11.66 2.15 2.15 0 0 1-.13.64zM77.72 13.27h-.55l-3.24 7.66h.5l1-2.25h3.78l1 2.25h1.06zm-2.11 4.91l1.58-3.69 1.72 3.69zM101.24 15.79a3.84 3.84 0 0 0-.78-1.29 4.13 4.13 0 0 0-1.33-1 4.32 4.32 0 0 0-1.9-.39 4.19 4.19 0 0 0-1.86.38 4 4 0 0 0-1.28 1 3.77 3.77 0 0 0-.74 1.29 4.1 4.1 0 0 0-.24 1.32 4 4 0 0 0 .24 1.31 3.82 3.82 0 0 0 .74 1.29 3.92 3.92 0 0 0 1.28 1 4.11 4.11 0 0 0 1.86.39 4.56 4.56 0 0 0 1.33-.18 4.22 4.22 0 0 0 1.07-.49 3.83 3.83 0 0 0 .83-.71 4 4 0 0 0 .57-.84 4.39 4.39 0 0 0 .34-.89 3.45 3.45 0 0 0 .12-.86 3.91 3.91 0 0 0-.25-1.33zm-1.08 2.71a3.35 3.35 0 0 1-.68 1.1 3.1 3.1 0 0 1-1 .72 3 3 0 0 1-1.22.26 2.9 2.9 0 0 1-2.18-1 3.48 3.48 0 0 1-.65-1.1 4.29 4.29 0 0 1 0-2.81 3.48 3.48 0 0 1 .65-1.1 2.9 2.9 0 0 1 2.18-1 3 3 0 0 1 1.22.26 3.1 3.1 0 0 1 1 .72 3.35 3.35 0 0 1 .68 1.1 4 4 0 0 1 0 2.81zM103.47 13.27v.6h2.93v7.06h1v-7.06h2.93v-.6zM118.27 17.92a1.71 1.71 0 0 0-.47-.66 2.46 2.46 0 0 0-.83-.47 3.79 3.79 0 0 0-1.23-.18h-1.67v-3.34h-1v7.66h2.6a3.64 3.64 0 0 0 1.32-.2 2.32 2.32 0 0 0 .84-.54 1.89 1.89 0 0 0 .46-.73 2.49 2.49 0 0 0 .13-.79 2.1 2.1 0 0 0-.15-.75zm-1.08 1.5a1.66 1.66 0 0 1-.35.54 1.68 1.68 0 0 1-.54.36 1.73 1.73 0 0 1-.69.13h-1.56V17.1h1.4a2.21 2.21 0 0 1 .75.13 1.8 1.8 0 0 1 .59.35 1.61 1.61 0 0 1 .38.54 1.63 1.63 0 0 1 .14.67 1.66 1.66 0 0 1-.11.63zm2.32-6.15v7.66h1v-7.66zM90.72 19.52a3.74 3.74 0 0 1-2.65 1.05 3.61 3.61 0 0 1-1.51-.3 3.15 3.15 0 0 1-1.09-.79 3.4 3.4 0 0 1-.67-1.14 4.08 4.08 0 0 1-.22-1.34 3.86 3.86 0 0 1 .23-1.36 3.22 3.22 0 0 1 .66-1.06 3 3 0 0 1 1-.7 3.15 3.15 0 0 1 1.27-.25 3.22 3.22 0 0 1 .86.11 2.79 2.79 0 0 1 .69.29 1.89 1.89 0 0 1 .49.4c.13.15.35.45.35.45h.73a3 3 0 0 0-.42-.69 2.48 2.48 0 0 0-.64-.55 3.33 3.33 0 0 0-.9-.36 4.7 4.7 0 0 0-1.17-.13 5.21 5.21 0 0 0-1.73.27 3.93 3.93 0 0 0-1.34.78 3.51 3.51 0 0 0-.87 1.22A4.06 4.06 0 0 0 83.5 17a4.6 4.6 0 0 0 .25 1.5 3.64 3.64 0 0 0 .76 1.29 3.77 3.77 0 0 0 1.31.91 4.85 4.85 0 0 0 1.9.34 5.39 5.39 0 0 0 1.28-.11 5.21 5.21 0 0 0 1-.32 3.3 3.3 0 0 0 .68-.41 3 3 0 0 0 .41-.38zM13.19.13h-.55L9.4 7.8h.5l1-2.26h3.77L15.7 7.8h1.06zM11.07 5l1.58-3.69L14.41 5zM24.71.13v3.35h-4.59V.13h-1V7.8h1V4h4.59v3.8h1V.13zM32.41 3.1l2.78-3h-.55l-4.1 4.31V.13h-1V7.8h1V5.1l1.24-1.32 2.91 4h1.14zM37.57.13v.6h2.94V7.8h1V.73h2.94v-.6zM46.51 4.46v.82h2.7v-.82zM52.39.13V7.8h1V.73H58V7.8h1V.13zM67.75.73v-.6H62.8V7.8h4.94v-.6h-4V4h3.39v-.52H63.8V.73zM69.5.13v.6h2.93V7.8h1V.73h2.93v-.6zM84 .73v-.6h-4.9V7.8H84v-.6h-4V4h3.39v-.52h-3.3V.73zM91.8 1.55a1.93 1.93 0 0 0-.46-.73 2.22 2.22 0 0 0-.78-.5 3 3 0 0 0-1.1-.19h-2.57V7.8h1V4.6a6 6 0 0 0 .61.12 4.9 4.9 0 0 0 .72 0 3.52 3.52 0 0 0 1.18-.18 2.5 2.5 0 0 0 .86-.51 2.09 2.09 0 0 0 .52-.74 2.33 2.33 0 0 0 .18-.9 2.5 2.5 0 0 0-.16-.84zm-1 1.57a1.69 1.69 0 0 1-.92 1 2 2 0 0 1-.84.17h-.62a1.84 1.84 0 0 1-.51-.12V.61H89a1.87 1.87 0 0 1 .81.17 1.66 1.66 0 0 1 .58.44 1.77 1.77 0 0 1 .35.6 2 2 0 0 1 .12.66 2.19 2.19 0 0 1-.08.64zM100.38 4.86a1.65 1.65 0 0 0-.45-.69 2.4 2.4 0 0 0-.87-.5 4.39 4.39 0 0 0-1.41-.19h-1.52V.73h3.67v-.6h-4.67V7.8h2.52a4.22 4.22 0 0 0 1.41-.2 2.32 2.32 0 0 0 .87-.51 1.75 1.75 0 0 0 .44-.7 2.38 2.38 0 0 0 0-1.53zm-1.12 1.55a1.45 1.45 0 0 1-.4.51 1.84 1.84 0 0 1-.57.31 2 2 0 0 1-.66.1h-1.5V4h1.44a2.11 2.11 0 0 1 .77.13 1.62 1.62 0 0 1 .58.36 1.66 1.66 0 0 1 .36.55 1.81 1.81 0 0 1 .13.7 1.52 1.52 0 0 1-.15.67zM108.69.13l-2 4.45-2.82-4.45h-1.17l3.43 5.55-.39.83c-.08.14-.19.25-.27.38-.53.78-1.56.12-1.56.12l-.25.55a1.53 1.53 0 0 0 .45.25 1.85 1.85 0 0 0 .67.12 2 2 0 0 0 .35 0 1 1 0 0 0 .35-.14 1.52 1.52 0 0 0 .33-.3 2.45 2.45 0 0 0 .32-.51l3.13-6.85zM117 1.55a2 2 0 0 0-.47-.73 2.19 2.19 0 0 0-.78-.5 3 3 0 0 0-1.11-.19h-2.56V7.8h1V4.6a5.73 5.73 0 0 0 .61.12 4.8 4.8 0 0 0 .72 0 3.54 3.54 0 0 0 1.18-.18 2.55 2.55 0 0 0 .86-.51 2.16 2.16 0 0 0 .52-.74 2.33 2.33 0 0 0 .18-.9 2.63 2.63 0 0 0-.15-.84zm-1 1.57a1.59 1.59 0 0 1-.33.58 1.75 1.75 0 0 1-.58.42 2 2 0 0 1-.84.17h-.62a1.75 1.75 0 0 1-.51-.12V.61h1.15a1.9 1.9 0 0 1 .81.17 1.71 1.71 0 0 1 .58.44 1.67 1.67 0 0 1 .34.6 2 2 0 0 1 .12.66 2 2 0 0 1-.12.64zM120.35.13V7.8h1V.73H125v-.6zM134.45 6.38a3.93 3.93 0 0 1-4.16.76 3.22 3.22 0 0 1-1.09-.79 3.35 3.35 0 0 1-.66-1.14 4 4 0 0 1-.23-1.35 3.72 3.72 0 0 1 .24-1.36 3.07 3.07 0 0 1 .66-1.07 3 3 0 0 1 1-.7 3.24 3.24 0 0 1 1.27-.25 3.11 3.11 0 0 1 1.52.4 1.8 1.8 0 0 1 .49.4c.13.15.35.45.35.45h.73a3.06 3.06 0 0 0-.42-.69 2.38 2.38 0 0 0-.64-.55 3.26 3.26 0 0 0-.9-.36 4.71 4.71 0 0 0-1.13-.13 5.21 5.21 0 0 0-1.73.28 3.76 3.76 0 0 0-1.34.78 3.41 3.41 0 0 0-.87 1.22 4 4 0 0 0-.3 1.61 4.58 4.58 0 0 0 .24 1.49 3.64 3.64 0 0 0 .76 1.29 3.75 3.75 0 0 0 1.31.91 4.77 4.77 0 0 0 1.9.35 5.35 5.35 0 0 0 1.25-.13 5.2 5.2 0 0 0 1-.33 3.56 3.56 0 0 0 .68-.41 3.29 3.29 0 0 0 .41-.39zM140.49 3.1l2.78-3h-.55l-4.1 4.31V.13h-1V7.8h1V5.1l1.24-1.32 2.91 4h1.14zM149.55.13H149l-3.23 7.67h.5l1-2.26H151l1.05 2.26h1.06zM147.44 5L149 1.36 150.78 5zM158.72.13a3.08 3.08 0 0 0-1.21.2 2.08 2.08 0 0 0-.76.5 1.8 1.8 0 0 0-.4.65 2.11 2.11 0 0 0-.12.65 2.26 2.26 0 0 0 .11.67 1.92 1.92 0 0 0 1 1.13 2.2 2.2 0 0 0 .9.23l-.1.06a.77.77 0 0 0-.23.17 3.09 3.09 0 0 0-.24.31l-.4.62a31.521 31.521 0 0 1-1 1.48 2.26 2.26 0 0 1-.29.31 1.11 1.11 0 0 1-.33.19 1.12 1.12 0 0 1-.4.07h-.22v.43a1 1 0 0 0 .31.11h.39a1.67 1.67 0 0 0 .56-.09 1.56 1.56 0 0 0 .42-.24 2.08 2.08 0 0 0 .34-.35c.1-.14.21-.29.32-.46l.87-1.28.34-.51a1.56 1.56 0 0 1 .31-.34 1 1 0 0 1 .36-.18 2 2 0 0 1 .51-.06h.49v3.4h1V.13zm1.49 3.79h-1.14a1.89 1.89 0 0 1-.77-.15 1.86 1.86 0 0 1-.57-.4 1.66 1.66 0 0 1-.34-.55 1.63 1.63 0 0 1-.12-.6 1.57 1.57 0 0 1 .13-.65 1.39 1.39 0 0 1 .36-.51 1.88 1.88 0 0 1 .58-.34 2.28 2.28 0 0 1 .75-.12h1.11zM7.21 6.38a3.73 3.73 0 0 1-2.65 1 3.73 3.73 0 0 1-1.51-.29A3.27 3.27 0 0 1 2 6.35a3.35 3.35 0 0 1-.7-1.14 4.11 4.11 0 0 1-.23-1.35 3.84 3.84 0 0 1 .24-1.36A3.07 3.07 0 0 1 2 1.43a3.16 3.16 0 0 1 1-.7A3.25 3.25 0 0 1 4.26.49a3 3 0 0 1 .85.11 2.91 2.91 0 0 1 .69.28 1.82 1.82 0 0 1 .5.4c.13.15.34.45.34.45h.73A3 3 0 0 0 7 1a2.41 2.41 0 0 0-.69-.5 3.29 3.29 0 0 0-.89-.37A4.71 4.71 0 0 0 4.25 0a5.27 5.27 0 0 0-1.74.28 3.86 3.86 0 0 0-1.34.78 3.4 3.4 0 0 0-.86 1.22A4 4 0 0 0 0 3.89a4.59 4.59 0 0 0 .25 1.49A3.54 3.54 0 0 0 1 6.67a3.8 3.8 0 0 0 1.31.91 4.78 4.78 0 0 0 1.91.35 5.42 5.42 0 0 0 1.26-.13 5 5 0 0 0 1-.33 3.39 3.39 0 0 0 .68-.41 3.87 3.87 0 0 0 .42-.39z"/></g></g></svg>