<svg xmlns="http://www.w3.org/2000/svg" viewBox="0 0 48.24 48.3" height="75" width="75"><defs><style>.cls-1{fill:#fff}</style></defs><g id="Слой_2" data-name="Слой 2"><g id="Layer_1" data-name="Layer 1"><path class="cls-1" d="M47.09 27.88c0 .15-.1.3-.15.45a20.89 20.89 0 0 1-8.18 10.79 11.92 11.92 0 0 1-9 1.85 9.7 9.7 0 0 1-1.09-.31l-.13-.05a7.18 7.18 0 0 1-4-9.43c6.31 2 10.94 2 11.95 1.86a2 2 0 0 0 1.72-1.41 5.46 5.46 0 0 0-.21-2.06 1 1 0 0 1 .19-.79s.62.11.84-.33c.32-.66-.47-1.14-.47-1.14s-.35-.32.51-.63 1-1.06.81-1.2a2.21 2.21 0 0 1-.92-2c1.14-.77 2-1.29 2.09-1.83.08-.86-3.51-3.23-3.63-5.14a2 2 0 0 0 1.58-.9c-1.17.7-1.77 0-1.77 0 .08-.63.44-.88.52-1.74a17 17 0 0 0-1.3-6.19c0 .13-.06.26-.08.38-1.15 5.8-11.28 10.32-15.6 17.64a13.08 13.08 0 0 0-1.2 11.1c2.22 7.12 13.43 10.11 21.32 2.85 0 0-2 5.88-9.9 7.83-7.12 1.75-12.48.58-17.57-2.55a25 25 0 0 1-11-15.79A24 24 0 0 1 20.78.61a24.93 24.93 0 0 1 10-.19 11.1 11.1 0 0 1 3.54 1.34 5.42 5.42 0 0 1 2.31 5h1.43l.41.05a9.53 9.53 0 0 1 1.94.46c6.69 2.36 9.66 11.53 6.68 20.61zM13.23 46.88A19.38 19.38 0 0 1 3.12 36.35C3.42 41.74 1.9 45.07 0 46.5c2.15 1.5 8.52 2.96 13.23.38z"/></g></g></svg>