<svg id="Layer_1" xmlns="http://www.w3.org/2000/svg" viewBox="0 0 260 31"><style>.st2{opacity:.49}.st3{fill:#fff}.st4{fill:none;stroke:#eccc29;stroke-width:9.276500e-02;stroke-miterlimit:1}</style><linearGradient id="SVGID_1_" gradientUnits="userSpaceOnUse" x1="-549" y1="-372" x2="-549" y2="-373"><stop offset=".006" stop-color="#d0bd7d"/><stop offset=".073" stop-color="#736939"/><stop offset=".5" stop-color="#efebd6"/><stop offset=".618" stop-color="#e3d9b2"/><stop offset=".67" stop-color="#e2d7ae"/><stop offset=".721" stop-color="#ddd1a2"/><stop offset=".772" stop-color="#d6c68e"/><stop offset=".809" stop-color="#cfbc7b"/><stop offset="1" stop-color="#614f1c"/></linearGradient><linearGradient id="SVGID_2_" gradientUnits="userSpaceOnUse" x1="106.61" y1="29.39" x2="106.61" y2="1.658"><stop offset=".006" stop-color="#d0bd7d"/><stop offset=".073" stop-color="#736939"/><stop offset=".5" stop-color="#efebd6"/><stop offset=".618" stop-color="#e3d9b2"/><stop offset=".67" stop-color="#e2d7ae"/><stop offset=".721" stop-color="#ddd1a2"/><stop offset=".772" stop-color="#d6c68e"/><stop offset=".809" stop-color="#cfbc7b"/><stop offset="1" stop-color="#614f1c"/></linearGradient><path d="M118.6 1.7H115.6h.4H114.6h.4H114l-6.9 20.5L98 1.7h-5c.9 1.2 1.7 2.6 2.6 4-.5 8.3-1.2 16.4-2.6 23.7h3.3c-.3-6.5 0-13.8.5-21.5 3.5 6.4 6.6 14.2 9.3 21.5h.6c2.6-6.7 5.2-14.5 8.3-21.1 1.3 7.3 1.6 14.3 1 21.1h4.4c-1.8-8.2-2.8-16.6-3.2-25.3.4-.9.8-1.7 1.4-2.4z" fill="url(#SVGID_2_)"/><radialGradient id="SVGID_3_" cx="109.239" cy="53.312" r="40.99" gradientTransform="matrix(1 0 0 .4883 0 27.28)" gradientUnits="userSpaceOnUse"><stop offset=".444" stop-color="#fff" stop-opacity="0"/><stop offset=".921" stop-color="#fff" stop-opacity=".464"/><stop offset="1" stop-color="#fff" stop-opacity=".54"/></radialGradient><path d="M118.6 1.7H115.6h.4H114.6h.4H114l-6.9 20.5L98 1.7h-5c.9 1.2 1.7 2.6 2.6 4-.5 8.3-1.2 16.4-2.6 23.7h3.3c-.3-6.5 0-13.8.5-21.5 3.5 6.4 6.6 14.2 9.3 21.5h.6c2.6-6.7 5.2-14.5 8.3-21.1 1.3 7.3 1.6 14.3 1 21.1h4.4c-1.8-8.2-2.8-16.6-3.2-25.3.4-.9.8-1.7 1.4-2.4z" opacity=".58" fill="url(#SVGID_3_)"/><g class="st2"><path class="st3" d="M116.4 29c.2-2.5.3-5.1.2-7.6-.1-3.8-.4-7.6-1-11.4-.4-2.8-.2-4.1-1.5-1.2-1.8 4-3.4 8.2-4.9 12.3-.7 1.8-1.1 4.5-2.3 6.1-.4 2.1-.8 2.2-1.2.2-.3-.7-.6-1.5-.8-2.2-2.5-6.5-5.3-12.9-8.6-19-.3 5.9-.6 11.8-.6 17.7 0 .8.4 3.3 0 3.9-.5 1-1.2 1.6-1.9.5-.6-1 .6-4.9.8-6 .5-4 .9-7.9 1.1-11.9.1-1.5.6-3.4.3-4.8-.2-.7-.8-1.3-1.1-1.9-.7-1.7-.9-1.8 1.3-1.5.6.1 1.1-.1 1.6.2.8.6 1.5 3.2 1.9 4.2 1.1 2.4 2.2 4.7 3.3 7.1.4.8 3.8 9.7 4.5 9.7.6 0 3.5-10.3 3.7-11.1.7-2.2 1.7-8.8 3.6-10.1.2-.1 1.1 0 1.4 0 1.3.1.7-.2 1 .7.6 1.7-.6.5-.6 1 0 .4.1.9.1 1.2-.5 4.9.8 10.7 1.5 15.5.2 1.2 2.1 7.3 1.3 8.3-.3.3-2.6 0-3.1 0v.1h3.3v-.2c-.9-4.6-1.7-9.1-2.2-13.8-.5-4.2-2.1-9.2.2-12.9v-.2c-2.3 0-2.5-.4-3.5 1.2-1.3 2.1-1.7 5.2-2.5 7.5-.4 1.1-3.9 12.4-4.2 12.4-.6-.1-2.1-4.5-2.3-5-1.3-2.8-2.6-5.7-4-8.5-.9-1.9-1.7-5.1-3.1-6.6-1.2-1.3-2.2-.9-4.3-.9v.2c1 1.5 1.9 2.7 2.1 4.3.4 2.9-.4 6.6-.7 9.5-.4 4.3-.9 8.6-1.7 12.8v.2h2.3v-.2c-.2-6.7.1-13.3.4-20 .2-2.9.5-2 1.7.3 1.6 3 3 6.1 4.3 9.3.7 1.5 1.3 3.1 1.9 4.7.5 1.2 1 4.3 2 5.1.3 1.2.6.9.9-.9.3-.8.6-1.7 1-2.5.8-2.1 1.5-4.1 2.3-6.2 1.1-2.9 2.2-8.1 4.3-10.4 1-1.1.2-1.5.8.1.7 1.6.6 3.9.8 5.7.5 4.9.6 9.9.2 14.9v.1z"/></g><path class="st4" d="M118.6 1.7H115.6h.4H114.6h.4H114l-6.9 20.5L98 1.7h-5c.9 1.2 1.7 2.6 2.6 4-.5 8.3-1.2 16.4-2.6 23.7h3.3c-.3-6.5 0-13.8.5-21.5 3.5 6.4 6.6 14.2 9.3 21.5h.6c2.6-6.7 5.2-14.5 8.3-21.1 1.3 7.3 1.6 14.3 1 21.1h4.4c-1.8-8.2-2.8-16.6-3.2-25.3.4-.9.8-1.7 1.4-2.4z"/><linearGradient id="SVGID_4_" gradientUnits="userSpaceOnUse" x1="203.605" y1="29.366" x2="203.605" y2="1.681"><stop offset=".006" stop-color="#d0bd7d"/><stop offset=".073" stop-color="#736939"/><stop offset=".5" stop-color="#efebd6"/><stop offset=".618" stop-color="#e3d9b2"/><stop offset=".67" stop-color="#e2d7ae"/><stop offset=".721" stop-color="#ddd1a2"/><stop offset=".772" stop-color="#d6c68e"/><stop offset=".809" stop-color="#cfbc7b"/><stop offset="1" stop-color="#614f1c"/></linearGradient><path d="M206.5 2c-7.2-1.5-14.2 3.3-15.8 10.8-1.6 7.5 2.9 14.8 10.1 16.3 7.2 1.5 14.2-3.3 15.8-10.8 1.6-7.5-3-14.8-10.1-16.3zm2.2 24.6c-4.7 2.9-10.8.3-13.7-5.8-2.8-6.1-1.3-13.4 3.4-16.3 4.7-2.9 10.8-.3 13.7 5.8 2.9 6.1 1.3 13.4-3.4 16.3z" fill="url(#SVGID_4_)"/><g opacity=".58"><radialGradient id="SVGID_5_" cx="206.159" cy="53.249" r="40.732" gradientTransform="matrix(1 0 0 .4883 0 27.247)" gradientUnits="userSpaceOnUse"><stop offset=".444" stop-color="#fff" stop-opacity="0"/><stop offset=".921" stop-color="#fff" stop-opacity=".464"/><stop offset="1" stop-color="#fff" stop-opacity=".54"/></radialGradient><path d="M206.5 2c-7.2-1.5-14.2 3.3-15.8 10.8-1.6 7.5 2.9 14.8 10.1 16.3 7.2 1.5 14.2-3.3 15.8-10.8 1.6-7.5-3-14.8-10.1-16.3zm2.2 24.6c-4.7 2.9-10.8.3-13.7-5.8-2.8-6.1-1.3-13.4 3.4-16.3 4.7-2.9 10.8-.3 13.7 5.8 2.9 6.1 1.3 13.4-3.4 16.3z" fill="url(#SVGID_5_)"/></g><g class="st2"><path class="st3" d="M203.4 28.8c-16.5-.9-15.9-26.6.5-26.6 6.2 0 11.3 4.8 12.4 10.7 1.4 8.3-4.9 15.5-12.9 15.9v.2c16.5-.9 17.6-27 .5-27-16.8 0-17.3 26.1-.5 27v-.2z"/><path class="st3" d="M202.6 2.8c-14.1 1.3-11.4 25.7 1.9 25.5 14.7-.2 10.9-24.5-1.9-25.5V3c13 1 16.1 25 1.9 25.1-13.2.1-15.8-23.9-1.9-25.1v-.2z"/></g><path class="st4" d="M206.5 2c-7.2-1.5-14.2 3.3-15.8 10.8-1.6 7.5 2.9 14.8 10.1 16.3 7.2 1.5 14.2-3.3 15.8-10.8 1.6-7.5-3-14.8-10.1-16.3zm2.2 24.6c-4.7 2.9-10.8.3-13.7-5.8-2.8-6.1-1.3-13.4 3.4-16.3 4.7-2.9 10.8-.3 13.7 5.8 2.9 6.1 1.3 13.4-3.4 16.3z"/><g><linearGradient id="SVGID_6_" gradientUnits="userSpaceOnUse" x1="157.952" y1="29.39" x2="157.952" y2="1.658"><stop offset=".006" stop-color="#d0bd7d"/><stop offset=".073" stop-color="#736939"/><stop offset=".5" stop-color="#efebd6"/><stop offset=".618" stop-color="#e3d9b2"/><stop offset=".67" stop-color="#e2d7ae"/><stop offset=".721" stop-color="#ddd1a2"/><stop offset=".772" stop-color="#d6c68e"/><stop offset=".809" stop-color="#cfbc7b"/><stop offset="1" stop-color="#614f1c"/></linearGradient><path d="M161.5 15.3c-1.4-.8-3.2-1.5-4.7-2.1-4-1.7-5.6-6.3-2-9.2 3-2.4 7.7-1.1 9.1 2.2h.5c-.1-1.4-.2-2.9.2-4.5h-5.8c-4.8 0-9.9 2.7-8.6 9.1.9 4.2 4.4 5 8.2 6.5 1.7.7 3 1.7 3.7 3 1.3 2.6.4 6.1-2.2 7.2-3.4 1.5-7.2-.7-8.5-4.1-.2.1-.4.1-.6.2.6 2.1 1.1 4 1.2 5.8h4.9c4.3 0 8.6-2.3 8.7-7.6.2-3.1-1.6-5-4.1-6.5z" fill="url(#SVGID_6_)"/><radialGradient id="SVGID_7_" cx="159.46" cy="53.312" r="38.504" gradientTransform="matrix(1 0 0 .4883 0 27.28)" gradientUnits="userSpaceOnUse"><stop offset=".444" stop-color="#fff" stop-opacity="0"/><stop offset=".921" stop-color="#fff" stop-opacity=".464"/><stop offset="1" stop-color="#fff" stop-opacity=".54"/></radialGradient><path d="M161.5 15.3c-1.4-.8-3.2-1.5-4.7-2.1-4-1.7-5.6-6.3-2-9.2 3-2.4 7.7-1.1 9.1 2.2h.5c-.1-1.4-.2-2.9.2-4.5h-5.8c-4.8 0-9.9 2.7-8.6 9.1.9 4.2 4.4 5 8.2 6.5 1.7.7 3 1.7 3.7 3 1.3 2.6.4 6.1-2.2 7.2-3.4 1.5-7.2-.7-8.5-4.1-.2.1-.4.1-.6.2.6 2.1 1.1 4 1.2 5.8h4.9c4.3 0 8.6-2.3 8.7-7.6.2-3.1-1.6-5-4.1-6.5z" opacity=".58" fill="url(#SVGID_7_)"/><g class="st2"><path class="st3" d="M152.6 28.9c-.1-.8-.2-1.7-.4-2.5.7-.2 1.3.1 1.6.9 1.9.5 3 1.7 5.2 1.2 2.5-.5 4-2.5 4.2-5 .3-3.3-1.8-5.2-4.5-6.6-2.4-1.2-5.5-1.6-7.1-4.1-2.4-3.7-.6-8.2 3.2-9.8.8-.3 11-1.6 9.1.8-.8 1.1-2-.6-2.9-1-3-1.3-7-.1-8.3 3.1-.5 1.3-.5 2.8 0 4.1 2.4 6.3 15.4 4.9 12.1 14.3-1.7 5.1-7.9 4.6-12.2 4.6v.2c5.3 0 12.9.1 12.8-7.3-.1-5.8-6.2-6.2-10-8.9-7.7-5.3 2.6-15.1 8.6-7.5v-.2c0-1 .1-2 .1-3V2c-5.3 0-13.7-.5-13.6 7.1.1 6 5.4 6.1 9.4 8.5 3.5 2.2 4.4 8.2.2 10.2-3.2 1.5-6.4-.4-8.3-2.9v.2c.3 1.3.6 2.5.7 3.9.1 0 .1-.1.1-.1z"/></g><path class="st4" d="M161.5 15.3c-1.4-.8-3.2-1.5-4.7-2.1-4-1.7-5.6-6.3-2-9.2 3-2.4 7.7-1.1 9.1 2.2h.5c-.1-1.4-.2-2.9.2-4.5h-5.8c-4.8 0-9.9 2.7-8.6 9.1.9 4.2 4.4 5 8.2 6.5 1.7.7 3 1.7 3.7 3 1.3 2.6.4 6.1-2.2 7.2-3.4 1.5-7.2-.7-8.5-4.1-.2.1-.4.1-.6.2.6 2.1 1.1 4 1.2 5.8h4.9c4.3 0 8.6-2.3 8.7-7.6.2-3.1-1.6-5-4.1-6.5z"/></g><g><linearGradient id="SVGID_8_" gradientUnits="userSpaceOnUse" x1="229.034" y1="29.39" x2="229.034" y2="1.658"><stop offset=".006" stop-color="#d0bd7d"/><stop offset=".073" stop-color="#736939"/><stop offset=".5" stop-color="#efebd6"/><stop offset=".618" stop-color="#e3d9b2"/><stop offset=".67" stop-color="#e2d7ae"/><stop offset=".721" stop-color="#ddd1a2"/><stop offset=".772" stop-color="#d6c68e"/><stop offset=".809" stop-color="#cfbc7b"/><stop offset="1" stop-color="#614f1c"/></linearGradient><path d="M238.8 1.7c.7 6.6.8 15.1.5 21.8L222.7 1.7h-6.6c1.3 1.2 2.6 2.6 3.9 3.9.7 8 .5 15.9-.3 23.8h3c-.6-7.1-.8-14.2-.5-21.3 5.7 6.4 11.4 13.8 16.4 21.3h3.1c-.9-9.2-1-18.4.1-27.7h-3z" fill="url(#SVGID_8_)"/><radialGradient id="SVGID_9_" cx="231.513" cy="53.312" r="40.593" gradientTransform="matrix(1 0 0 .4883 0 27.28)" gradientUnits="userSpaceOnUse"><stop offset=".444" stop-color="#fff" stop-opacity="0"/><stop offset=".921" stop-color="#fff" stop-opacity=".464"/><stop offset="1" stop-color="#fff" stop-opacity=".54"/></radialGradient><path d="M238.8 1.7c.7 6.6.8 15.1.5 21.8L222.7 1.7h-6.6c1.3 1.2 2.6 2.6 3.9 3.9.7 8 .5 15.9-.3 23.8h3c-.6-7.1-.8-14.2-.5-21.3 5.7 6.4 11.4 13.8 16.4 21.3h3.1c-.9-9.2-1-18.4.1-27.7h-3z" opacity=".58" fill="url(#SVGID_9_)"/><g class="st2"><path class="st3" d="M238.9 28.9c-5.2-7.7-10.9-15-17.1-22-.2 3.2-.2 6.4-.2 9.6 0 1.8.1 3.5.1 5.3 0 0 .8 9.2-1.3 7.1-1.2-1.2.3-8.8.3-10.1V16c0-3.1.8-8-.5-10.7-1.2-2.4-4.8-3.1-.5-3.1 1.1 0 2-.2 2.8.3 2 1.2 3.8 4.9 5.1 6.7 3.9 5.2 7.9 10.3 11.8 15.5.1-3.3.2-6.6.2-9.9 0-2.8-.1-5.6-.3-8.4 0-.4-.4-2.5-.2-3.1.6-2.1 1.4-1.6 1.8.2.5 2.1-.5 6.4-.5 8.6v3.6c0 1.8.1 3.7.1 5.5.1 1.5.7 4.2.4 5.7-.3 2.4.1 2-2 2v.2h2.4v-.2c-.8-8.9-.9-17.8.1-26.7V2h-2.2v.2c.2 2.6.4 5.2.5 7.7.2 4.5.2 8.9 0 13.4 0 .3 0 .6-.1.9-.3.2-1.1-1.1-1.6-1.7-2.4-3.2-4.9-6.4-7.3-9.6-2.4-3.1-4.7-6.2-7.1-9.3-1.8-2.4-3.4-1.6-6.4-1.6v.2c2.7 2.8 3.2 2.8 3.4 6.9.4 6.6.1 13.2-.5 19.8v.2h2.1v-.2c-.2-3.1-1.6-20.4-.4-20.7 1.1-.3-.9-.8.8-.3.8.2 2.9 3.3 3.4 3.9 4.6 5.5 8.9 11.3 13 17.3-.1-.1 0-.2-.1-.2z"/></g><path class="st4" d="M238.8 1.7c.7 6.6.8 15.1.5 21.8L222.7 1.7h-6.6c1.3 1.2 2.6 2.6 3.9 3.9.7 8 .5 15.9-.3 23.8h3c-.6-7.1-.8-14.2-.5-21.3 5.7 6.4 11.4 13.8 16.4 21.3h3.1c-.9-9.2-1-18.4.1-27.7h-3z"/></g><g><linearGradient id="SVGID_10_" gradientUnits="userSpaceOnUse" x1="129.961" y1="29.39" x2="129.961" y2="1.658"><stop offset=".006" stop-color="#d0bd7d"/><stop offset=".073" stop-color="#736939"/><stop offset=".5" stop-color="#efebd6"/><stop offset=".618" stop-color="#e3d9b2"/><stop offset=".67" stop-color="#e2d7ae"/><stop offset=".721" stop-color="#ddd1a2"/><stop offset=".772" stop-color="#d6c68e"/><stop offset=".809" stop-color="#cfbc7b"/><stop offset="1" stop-color="#614f1c"/></linearGradient><path d="M126.8 27.2c-.3-3.5-.4-6.9-.5-10.3 2.2-1 5.3-.9 8.7.5v-3.6c-2.4 1.1-5.5 1-8.7.3 0-3.7.2-7.4.5-11 4 .1 6.8.9 8.3 2.4l-.6-3.7h-11.6c1.4 9.3 1.2 18.6.1 27.7h12.3l1.6-3.9c-3.2 1.8-6.6 2.4-10.1 1.6z" fill="url(#SVGID_10_)"/><radialGradient id="SVGID_11_" cx="131.306" cy="53.312" r="38.245" gradientTransform="matrix(1 0 0 .4883 0 27.28)" gradientUnits="userSpaceOnUse"><stop offset=".444" stop-color="#fff" stop-opacity="0"/><stop offset=".921" stop-color="#fff" stop-opacity=".464"/><stop offset="1" stop-color="#fff" stop-opacity=".54"/></radialGradient><path d="M126.8 27.2c-.3-3.5-.4-6.9-.5-10.3 2.2-1 5.3-.9 8.7.5v-3.6c-2.4 1.1-5.5 1-8.7.3 0-3.7.2-7.4.5-11 4 .1 6.8.9 8.3 2.4l-.6-3.7h-11.6c1.4 9.3 1.2 18.6.1 27.7h12.3l1.6-3.9c-3.2 1.8-6.6 2.4-10.1 1.6z" opacity=".58" fill="url(#SVGID_11_)"/><g class="st2"><path class="st3" d="M123.6 29c.5-5 .9-9.9.8-14.9 0-3.2-.3-6.4-.6-9.6-.2-2.1-.5-1.8.9-2.3.9-.3 2.7 0 3.7 0s4.9-.6 5.7 0c.7.6.2 1.6 0 1.7-.6.2-3.9-1.2-4.8-1.3-3.7-.4-2.9.4-3.1 3.8-.2 2.6-.2 5.2-.2 7.8v.1c1.5.4 8.4.2 8.7.7 1.1 2-3.2.6-4.1.6-1.6-.1-3.1.1-4.6.8v.2c0 3.7.2 7.3.5 11 1.6.4 3.3.5 5 .3.2 0 4.6-1.2 4.6-1.2.1.1-.7 2-.9 2.1-.3.2-1.1-.1-1.4 0-3 .7-6.9 0-10 0-.2.1-.2.2-.2.2h7.6c3.3 0 3.6.6 4.9-2.5v-.2c-2.3 1-4.6 1.6-7.1 1.5-3.6-.2-2.7-1.9-2.9-5.1-.1-2.5-1.1-5.4 1.2-6.6 2.1-1.1 5.3 0 7.3.6v-.1-2.3-.1c-2.2.6-5.3 1.1-7.6.2-2.5-1-1-5.3-.9-7.9.1-1.4-.3-3.4.7-4 1.7-1 6.2.9 7.7 1.8v-.2c-.4-2.9-.9-2.2-3.8-2.2h-7.2v.2c1.2 8.9 1.1 17.8.1 26.7v.2z"/></g><path class="st4" d="M126.8 27.2c-.3-3.5-.4-6.9-.5-10.3 2.2-1 5.3-.9 8.7.5v-3.6c-2.4 1.1-5.5 1-8.7.3 0-3.7.2-7.4.5-11 4 .1 6.8.9 8.3 2.4l-.6-3.7h-11.6c1.4 9.3 1.2 18.6.1 27.7h12.3l1.6-3.9c-3.2 1.8-6.6 2.4-10.1 1.6z"/></g><g><linearGradient id="SVGID_12_" gradientUnits="userSpaceOnUse" x1="251.693" y1="29.39" x2="251.693" y2="1.658"><stop offset=".006" stop-color="#d0bd7d"/><stop offset=".073" stop-color="#736939"/><stop offset=".5" stop-color="#efebd6"/><stop offset=".618" stop-color="#e3d9b2"/><stop offset=".67" stop-color="#e2d7ae"/><stop offset=".721" stop-color="#ddd1a2"/><stop offset=".772" stop-color="#d6c68e"/><stop offset=".809" stop-color="#cfbc7b"/><stop offset="1" stop-color="#614f1c"/></linearGradient><path d="M248.5 27.2c-.3-3.5-.4-6.9-.5-10.3 2.2-1 5.3-.9 8.7.5v-3.6c-2.4 1.1-5.5 1-8.7.3 0-3.7.2-7.4.5-11 4 .1 6.8.9 8.3 2.4l-.6-3.7h-11.6c1.4 9.3 1.2 18.6.1 27.7H257l1.6-3.9c-3.2 1.8-6.6 2.4-10.1 1.6z" fill="url(#SVGID_12_)"/><radialGradient id="SVGID_13_" cx="253.038" cy="53.312" r="38.245" gradientTransform="matrix(1 0 0 .4883 0 27.28)" gradientUnits="userSpaceOnUse"><stop offset=".444" stop-color="#fff" stop-opacity="0"/><stop offset=".921" stop-color="#fff" stop-opacity=".464"/><stop offset="1" stop-color="#fff" stop-opacity=".54"/></radialGradient><path d="M248.5 27.2c-.3-3.5-.4-6.9-.5-10.3 2.2-1 5.3-.9 8.7.5v-3.6c-2.4 1.1-5.5 1-8.7.3 0-3.7.2-7.4.5-11 4 .1 6.8.9 8.3 2.4l-.6-3.7h-11.6c1.4 9.3 1.2 18.6.1 27.7H257l1.6-3.9c-3.2 1.8-6.6 2.4-10.1 1.6z" opacity=".58" fill="url(#SVGID_13_)"/><g class="st2"><path class="st3" d="M245.3 29c.5-5 .9-9.9.8-14.9 0-3.2-.3-6.4-.6-9.6-.2-2.1-.5-1.8.9-2.3.9-.3 2.7 0 3.7 0s4.9-.6 5.7 0c.7.6.2 1.6 0 1.7-.6.2-3.9-1.2-4.8-1.3-3.7-.4-2.9.4-3.1 3.8-.2 2.6-.2 5.2-.2 7.8v.1c1.5.4 8.4.2 8.7.7 1.1 2-3.2.6-4.1.6-1.6-.1-3.1.1-4.6.8v.2c0 3.7.2 7.3.5 11 1.6.4 3.3.5 5 .3.2 0 4.6-1.2 4.6-1.2.1.1-.7 2-.9 2.1-.3.2-1.1-.1-1.4 0-3 .7-6.9 0-10 0-.2.1-.2.2-.2.2h7.6c3.3 0 3.6.6 4.9-2.5v-.2c-2.3 1-4.6 1.6-7.1 1.5-3.6-.2-2.7-1.9-2.9-5.1-.1-2.5-1.1-5.4 1.2-6.6 2.1-1.1 5.3 0 7.3.6v-.1-2.3-.1c-2.2.6-5.3 1.1-7.6.2-2.5-1-1-5.3-.9-7.9.1-1.4-.3-3.4.7-4 1.7-1 6.2.9 7.7 1.8v-.2c-.4-2.9-.9-2.2-3.8-2.2h-7.2v.2c1.2 8.9 1.1 17.8.1 26.7v.2z"/></g><path class="st4" d="M248.5 27.2c-.3-3.5-.4-6.9-.5-10.3 2.2-1 5.3-.9 8.7.5v-3.6c-2.4 1.1-5.5 1-8.7.3 0-3.7.2-7.4.5-11 4 .1 6.8.9 8.3 2.4l-.6-3.7h-11.6c1.4 9.3 1.2 18.6.1 27.7H257l1.6-3.9c-3.2 1.8-6.6 2.4-10.1 1.6z"/></g><g><linearGradient id="SVGID_14_" gradientUnits="userSpaceOnUse" x1="180.08" y1="29.39" x2="180.08" y2="1.658"><stop offset=".006" stop-color="#d0bd7d"/><stop offset=".073" stop-color="#736939"/><stop offset=".5" stop-color="#efebd6"/><stop offset=".618" stop-color="#e3d9b2"/><stop offset=".67" stop-color="#e2d7ae"/><stop offset=".721" stop-color="#ddd1a2"/><stop offset=".772" stop-color="#d6c68e"/><stop offset=".809" stop-color="#cfbc7b"/><stop offset="1" stop-color="#614f1c"/></linearGradient><path d="M180.9 3c6.2.1 9.2.8 10.4 2.1l1.8-3.4H168.3l-.9 4.3c1.7-1.3 4.7-2.9 10.8-3 .8 8.5.8 18.1-.6 26.4h4.4c-1.3-8.2-1.9-17.7-1.1-26.4z" fill="url(#SVGID_14_)"/><radialGradient id="SVGID_15_" cx="182.56" cy="53.312" r="40.593" gradientTransform="matrix(1 0 0 .4883 0 27.28)" gradientUnits="userSpaceOnUse"><stop offset=".444" stop-color="#fff" stop-opacity="0"/><stop offset=".921" stop-color="#fff" stop-opacity=".464"/><stop offset="1" stop-color="#fff" stop-opacity=".54"/></radialGradient><path d="M180.9 3c6.2.1 9.2.8 10.4 2.1l1.8-3.4H168.3l-.9 4.3c1.7-1.3 4.7-2.9 10.8-3 .8 8.5.8 18.1-.6 26.4h4.4c-1.3-8.2-1.9-17.7-1.1-26.4z" opacity=".58" fill="url(#SVGID_15_)"/><g class="st2"><path class="st3" d="M177.9 29c.7-4.8 1-9.7 1-14.5 0-3.2-.1-6.5-.4-9.7-.2-2.7.1-2.5-2.4-2.3-2 .2-4.1.5-6 1.2-1 .4-3.4 1.8-2-.5.8-1.3.1-.8 2-1 4.4-.4 9.1 0 13.5 0h6.1c1.5 0 2.5-.6 1.8.9-.8 1.8-.5.5-1.9.4-1.3 0-2.8-.7-4.2-.9-.7-.1-4.5-.7-5-.2-.4.4.1.4-.3 1.4-1.1 2.5-.3 7.6-.2 10.5.1 3.5.3 6.9.7 10.3.2 1.6.9 3.6-.4 4.2-.5.3-1.9 0-2.5 0 .2.1.2.2.2.2h3.4v-.2c-.5-4-.9-8-1.1-12 0-.4-1.5-13.3.6-14.2 1.8-.8 6.3.3 8.1.8 2.4.8 2 1.3 3.3-1.3v-.2h-14.3c-2.5 0-5.5-.4-7.9 0-2.1.4-1.6.4-2.1 2.8v.2c1.8-1 8.9-3.9 10.5-2.3.1.1.5 6.3.2 2.3.3 4.4.4 8.9.3 13.3-.1 3.6-.5 7.1-1 10.6v.2z"/></g><path class="st4" d="M180.9 3c6.2.1 9.2.8 10.4 2.1l1.8-3.4H168.3l-.9 4.3c1.7-1.3 4.7-2.9 10.8-3 .8 8.5.8 18.1-.6 26.4h4.4c-1.3-8.2-1.9-17.7-1.1-26.4z"/></g><g><linearGradient id="SVGID_16_" gradientUnits="userSpaceOnUse" x1="12.8" y1="29.39" x2="12.8" y2="1.658"><stop offset=".006" stop-color="#d0bd7d"/><stop offset=".073" stop-color="#736939"/><stop offset=".5" stop-color="#efebd6"/><stop offset=".618" stop-color="#e3d9b2"/><stop offset=".67" stop-color="#e2d7ae"/><stop offset=".721" stop-color="#ddd1a2"/><stop offset=".772" stop-color="#d6c68e"/><stop offset=".809" stop-color="#cfbc7b"/><stop offset="1" stop-color="#614f1c"/></linearGradient><path d="M17.4 1.7C7.1 1.7.4 8.6 1 17.5c.5 6.8 6.2 11.9 13.7 11.9 3.9 0 7-1.2 9.3-3.9-.2-.2-.4-.3-.5-.5-7.8 5.5-17.8.7-18.5-7.6C4.1 4.2 17.4-.6 24.2 6.2l.4-.3L22 1.7h-4.6z" fill="url(#SVGID_16_)"/><radialGradient id="SVGID_17_" cx="15.07" cy="53.312" r="40.067" gradientTransform="matrix(1 0 0 .4883 0 27.28)" gradientUnits="userSpaceOnUse"><stop offset=".444" stop-color="#fff" stop-opacity="0"/><stop offset=".921" stop-color="#fff" stop-opacity=".464"/><stop offset="1" stop-color="#fff" stop-opacity=".54"/></radialGradient><path d="M17.4 1.7C7.1 1.7.4 8.6 1 17.5c.5 6.8 6.2 11.9 13.7 11.9 3.9 0 7-1.2 9.3-3.9-.2-.2-.4-.3-.5-.5-7.8 5.5-17.8.7-18.5-7.6C4.1 4.2 17.4-.6 24.2 6.2l.4-.3L22 1.7h-4.6z" opacity=".58" fill="url(#SVGID_17_)"/><g class="st2"><path class="st3" d="M14.8 28.9C9.2 28.6 4.1 26 2.2 20.5c-2.5-7.1 1.6-14.4 8.2-17 2.1-.8 9.3-2.6 11.5-1.1.4.3 1.1 1.6 1.2 2 .2 1.2-1.1-.5-2.1-.9-2.6-1.1-5.7-1.1-8.4-.1-5.8 2.2-8.6 8.4-8 14.3.5 4.9 4 8.9 8.9 10 .4.1 9.1-.2 8.6-1.1.7 1-6.7 2.2-7.3 2.3v.2c3.4-.1 6-.9 8.5-3.2v-.2c-9.4 5.4-21-1.4-18.3-13C6.9 4.2 16.3.1 23.6 5.1v-.2c-.5-.9-1.1-2.6-2-3-1.2-.6-4.4-.1-5.8.1-7 .6-13.3 5-14.2 12.3-1 8.2 5.2 14.3 13.2 14.6 0 .1 0 0 0 0z"/></g><path class="st4" d="M17.4 1.7C7.1 1.7.4 8.6 1 17.5c.5 6.8 6.2 11.9 13.7 11.9 3.9 0 7-1.2 9.3-3.9-.2-.2-.4-.3-.5-.5-7.8 5.5-17.8.7-18.5-7.6C4.1 4.2 17.4-.6 24.2 6.2l.4-.3L22 1.7h-4.6z"/></g><g><linearGradient id="SVGID_18_" gradientUnits="userSpaceOnUse" x1="80.997" y1="30.163" x2="80.997" y2="1.658"><stop offset=".006" stop-color="#d0bd7d"/><stop offset=".073" stop-color="#736939"/><stop offset=".5" stop-color="#efebd6"/><stop offset=".618" stop-color="#e3d9b2"/><stop offset=".67" stop-color="#e2d7ae"/><stop offset=".721" stop-color="#ddd1a2"/><stop offset=".772" stop-color="#d6c68e"/><stop offset=".809" stop-color="#cfbc7b"/><stop offset="1" stop-color="#614f1c"/></linearGradient><path d="M83.8 15.6c5.1-2.7 4.6-8.7 2-11.7-1.5-1.6-3.8-2.3-6.5-2.3h-7.7c1.1 9.3 1 18.6.1 27.7h3.5c-.7-8.7-.9-17.4-.2-25.9 4-1.8 8.6.2 9.4 4.1.8 4.4-.6 7.9-5.9 8.9l.1.5c.9-.1 1.3-.2 2.1-.3 1.7 6.8 5.3 11.8 9.8 13.5v-.6c-3.4-2.5-6.6-9.4-6.7-13.9z" fill="url(#SVGID_18_)"/><radialGradient id="SVGID_19_" cx="82.818" cy="54.754" r="40.066" gradientTransform="matrix(1 0 0 .4883 0 28.017)" gradientUnits="userSpaceOnUse"><stop offset=".444" stop-color="#fff" stop-opacity="0"/><stop offset=".921" stop-color="#fff" stop-opacity=".464"/><stop offset="1" stop-color="#fff" stop-opacity=".54"/></radialGradient><path d="M83.8 15.6c5.1-2.7 4.6-8.7 2-11.7-1.5-1.6-3.8-2.3-6.5-2.3h-7.7c1.1 9.3 1 18.6.1 27.7h3.5c-.7-8.7-.9-17.4-.2-25.9 4-1.8 8.6.2 9.4 4.1.8 4.4-.6 7.9-5.9 8.9l.1.5c.9-.1 1.3-.2 2.1-.3 1.7 6.8 5.3 11.8 9.8 13.5v-.6c-3.4-2.5-6.6-9.4-6.7-13.9z" opacity=".58" fill="url(#SVGID_19_)"/><g class="st2"><path class="st3" d="M89.3 29c-3.1-1.9-5.2-4.7-6.6-8.1-.3-.8-1.9-3.9-1.6-4.7.5-1.1 2.7-1.8 3.3-3.3.5-1.2.7-2.7.6-4-.3-3.8-3-6.7-6.9-6.7-4.5 0-3.7 2.3-3.8 5.9-.3 3.4-.3 6.8-.3 10.2 0 1.7 1.6 9.4.2 10.6-2.8 2.3-1.6-7.1-1.6-7.4.2-3.6.2-7.3 0-10.9-.1-1.7-1.2-7.6 0-8.3 1.2-.7 5-.1 6.4 0 3.4.2 6.4.9 7.7 4.4 1.3 3.6-.2 6.9-3.4 8.7v.2c.1 5 2.6 10.1 5.9 13.8 0-.2.1-.3.1-.4-1.9-2.1-3.3-4.4-4.3-7-.5-1.3-1.1-2.7-1.3-4-.4-2.4.1-2.1 1.2-3.6 1.4-1.8 2.4-2.9 2.4-5.3C87.1.8 77.8 2 72 2v.2c1 8.9.9 17.8.1 26.7v.2h2.5v-.2c-.5-6.8-.8-13.7-.4-20.6.2-4.3-.6-6.3 4.5-5.8 7.2.7 8.3 10.3 2.3 13.6v.2c1.3 5.2 3.7 10.1 8.3 13-.1-.1 0-.3 0-.3z"/></g><path class="st4" d="M83.8 15.6c5.1-2.7 4.6-8.7 2-11.7-1.5-1.6-3.8-2.3-6.5-2.3h-7.7c1.1 9.3 1 18.6.1 27.7h3.5c-.7-8.7-.9-17.4-.2-25.9 4-1.8 8.6.2 9.4 4.1.8 4.4-.6 7.9-5.9 8.9l.1.5c.9-.1 1.3-.2 2.1-.3 1.7 6.8 5.3 11.8 9.8 13.5v-.6c-3.4-2.5-6.6-9.4-6.7-13.9z"/></g><g><linearGradient id="SVGID_20_" gradientUnits="userSpaceOnUse" x1="35.674" y1="29.39" x2="35.674" y2="1.658"><stop offset=".006" stop-color="#d0bd7d"/><stop offset=".073" stop-color="#736939"/><stop offset=".5" stop-color="#efebd6"/><stop offset=".618" stop-color="#e3d9b2"/><stop offset=".67" stop-color="#e2d7ae"/><stop offset=".721" stop-color="#ddd1a2"/><stop offset=".772" stop-color="#d6c68e"/><stop offset=".809" stop-color="#cfbc7b"/><stop offset="1" stop-color="#614f1c"/></linearGradient><path d="M40.6 1.7c.5 4.8.7 9.6.6 14.4H30.1c0-4.8.2-9.6.6-14.4h-3.6c1.1 9.3 1 18.6.1 27.7h3.5c-.3-4-.6-8-.6-11.9h11.1c-.1 4-.3 7.9-.6 11.9H44c-.9-9.2-1-18.4.1-27.7h-3.5z" fill="url(#SVGID_20_)"/><radialGradient id="SVGID_21_" cx="37.311" cy="53.312" r="38.727" gradientTransform="matrix(1 0 0 .4883 0 27.28)" gradientUnits="userSpaceOnUse"><stop offset=".444" stop-color="#fff" stop-opacity="0"/><stop offset=".921" stop-color="#fff" stop-opacity=".464"/><stop offset="1" stop-color="#fff" stop-opacity=".54"/></radialGradient><path d="M40.6 1.7c.5 4.8.7 9.6.6 14.4H30.1c0-4.8.2-9.6.6-14.4h-3.6c1.1 9.3 1 18.6.1 27.7h3.5c-.3-4-.6-8-.6-11.9h11.1c-.1 4-.3 7.9-.6 11.9H44c-.9-9.2-1-18.4.1-27.7h-3.5z" opacity=".58" fill="url(#SVGID_21_)"/><g class="st2"><path class="st3" d="M41.1 29c.3-4 .5-8 .6-11.9v-.2h-12v.2c0 3 1.2 7.2.4 10-.2.8 0 2.7-1.5 1.8-1.1-.6-.5-2.4-.5-3.7.1-3.7.4-7.4.3-11.2 0-2.9-.3-5.8-.4-8.7 0-.7-.3-5 1.8-3.2.7.6.1 4 0 4.9-.2 3.2-.2 6.3-.2 9.5h12.1c0-2 0-4-.1-6 0-1.3-1.2-7.5-.1-8.4 2.6-2.3 1.7 4.9 1.6 5.7-.2 2.7-.2 5.3-.2 8 0 2.5.1 4.9.2 7.4 0-.1.2 3.9.3 3.8-.6 2.2-.2 1.8-2.3 1.8v.2h2.5v-.2c-.8-8.9-.9-17.8.1-26.7v-.2h-2.6v.2c.3 2.9 2.3 13.9-.2 14.4-1.6.3-3.6 0-5.2 0s-3.6.3-5.2 0C27.9 16 30 5 30.2 2.2V2h-2.6v.2c1 8.9.9 17.8.1 26.7v.2h2.5v-.2c-.1-1.5-1.4-11.1-.2-11.7 1.2-.6 4.3 0 5.7 0 1.4 0 4.1-.5 5.4 0 1.6.6.1 10 0 11.7v.1z"/></g><path class="st4" d="M40.6 1.7c.5 4.8.7 9.6.6 14.4H30.1c0-4.8.2-9.6.6-14.4h-3.6c1.1 9.3 1 18.6.1 27.7h3.5c-.3-4-.6-8-.6-11.9h11.1c-.1 4-.3 7.9-.6 11.9H44c-.9-9.2-1-18.4.1-27.7h-3.5z"/></g><g><linearGradient id="SVGID_22_" gradientUnits="userSpaceOnUse" x1="57.972" y1="29.39" x2="57.972" y2="1.658"><stop offset=".006" stop-color="#d0bd7d"/><stop offset=".073" stop-color="#736939"/><stop offset=".5" stop-color="#efebd6"/><stop offset=".618" stop-color="#e3d9b2"/><stop offset=".67" stop-color="#e2d7ae"/><stop offset=".721" stop-color="#ddd1a2"/><stop offset=".772" stop-color="#d6c68e"/><stop offset=".809" stop-color="#cfbc7b"/><stop offset="1" stop-color="#614f1c"/></linearGradient><path d="M57.4 1.7c-3.2 9.4-6.6 18.8-11.1 27.7h3.6c1.5-7.1 4.4-14.7 7.5-22.5 3.2 7.6 5.5 15 7.2 22.5h5.1c-4.4-8.5-8-17.8-11.2-27.7h-1.1z" fill="url(#SVGID_22_)"/><radialGradient id="SVGID_23_" cx="60.217" cy="53.312" r="40.006" gradientTransform="matrix(1 0 0 .4883 0 27.28)" gradientUnits="userSpaceOnUse"><stop offset=".444" stop-color="#fff" stop-opacity="0"/><stop offset=".921" stop-color="#fff" stop-opacity=".464"/><stop offset="1" stop-color="#fff" stop-opacity=".54"/></radialGradient><path d="M57.4 1.7c-3.2 9.4-6.6 18.8-11.1 27.7h3.6c1.5-7.1 4.4-14.7 7.5-22.5 3.2 7.6 5.5 15 7.2 22.5h5.1c-4.4-8.5-8-17.8-11.2-27.7h-1.1z" opacity=".58" fill="url(#SVGID_23_)"/><g class="st2"><path class="st3" d="M64.9 28.9C63.6 23.4 62 18 60.1 12.6c-.5-1.4-1.3-5.7-2.5-6.4-.7-.4.2-.5-.5.3-.5.6-.8 2.1-1.1 2.8-2.1 5.3-4.2 10.7-5.6 16.3-.2.7-.7 5-2.5 3.4-.9-.8 2.1-6 2.6-7.4 2-4.7 3.8-9.5 5.5-14.4.1-.4 1.4-5 1.9-4.9.8.1 2.4 6.3 2.7 7.2 1.7 4.8 3.6 9.5 5.7 14.2.6 1.4 2.7 4.7 1.8 5.3-.5.2-2.5-.1-3.2-.1v.2h4v-.2c-2.1-4.3-4.1-8.6-5.8-13-.7-1.7-4-13.7-5.2-13.8-.7-.1-3.7 9.8-4.1 11.1-2 5.3-4.3 10.6-6.8 15.7v.2c.6 0 2 .3 2.5 0 .9-.5 1.6-6.3 2.1-7.6.7-2.3 1.5-4.6 2.4-6.9.7-2 1.6-6.2 3-7.7.9-1-.1-1 .8 0 1.3 1.3 2 5 2.6 6.8 1.8 5.1 3.3 10.2 4.5 15.4v-.2z"/></g><path class="st4" d="M57.4 1.7c-3.2 9.4-6.6 18.8-11.1 27.7h3.6c1.5-7.1 4.4-14.7 7.5-22.5 3.2 7.6 5.5 15 7.2 22.5h5.1c-4.4-8.5-8-17.8-11.2-27.7h-1.1z"/></g></svg>