<svg id="Layer_1" xmlns="http://www.w3.org/2000/svg" viewBox="0 0 261 167"><style>.st1{opacity:.58}.st3{opacity:.49}.st4{fill:#fff}.st5{fill:none;stroke:#eccc29;stroke-width:9.276500e-02;stroke-miterlimit:1}</style><linearGradient id="SVGID_1_" gradientUnits="userSpaceOnUse" x1="-416" y1="-309" x2="-416" y2="-310"><stop offset=".006" stop-color="#d0bd7d"/><stop offset=".073" stop-color="#736939"/><stop offset=".5" stop-color="#efebd6"/><stop offset=".618" stop-color="#e3d9b2"/><stop offset=".67" stop-color="#e2d7ae"/><stop offset=".721" stop-color="#ddd1a2"/><stop offset=".772" stop-color="#d6c68e"/><stop offset=".809" stop-color="#cfbc7b"/><stop offset="1" stop-color="#614f1c"/></linearGradient><linearGradient id="SVGID_2_" gradientUnits="userSpaceOnUse" x1="117.45" y1="105.868" x2="117.45" y2="36.599"><stop offset=".006" stop-color="#d0bd7d"/><stop offset=".073" stop-color="#736939"/><stop offset=".5" stop-color="#efebd6"/><stop offset=".618" stop-color="#e3d9b2"/><stop offset=".67" stop-color="#e2d7ae"/><stop offset=".721" stop-color="#ddd1a2"/><stop offset=".772" stop-color="#d6c68e"/><stop offset=".809" stop-color="#cfbc7b"/><stop offset="1" stop-color="#614f1c"/></linearGradient><path d="M96.2 36.6l-.9 1.2c-2.6 3.6-4.6 7.6-6 11.9-1.3 4.2-2.1 8.6-2.1 13.2 0 5.1.9 10.1 2.6 14.8 1.7 4.7 4.3 9.1 7.6 13l.7.8 2.1-13.3 20.5 3.3-.9 5.8-1.3.6c-.9.5-1.7 1.2-2.3 2-.6.8-1 1.8-1.2 2.9-.4 2.4.5 4.7 2.1 6.6 1.9 2.4 4.6 4.3 7 5.3 2.2.9 4.7 1.3 7.1 1.2 2.4-.1 4.8-.7 6.9-1.8 2.9-1.5 5.2-3.7 6.9-6.3 1.6-2.6 2.5-5.7 2.5-9 0-1.8-.3-3.6-.8-5.3-.5-1.7-1.4-3.3-2.4-4.8-.6-.6-1.3-1-2.1-1.3-.8-.3-1.6-.4-2.4-.4-1.1 0-2.1.2-3 .7-.9.5-1.7 1.1-2.3 2l-.8 1.2h-5.9v-9.3h-.5c-8.6-.8-16.3-4.8-21.8-10.8-5.5-5.9-9-13.9-9.1-22.6l-.2-1.6zM131 81.8h3.1l1.1-1.6c.5-.7 1.2-1.3 2-1.7.8-.4 1.7-.6 2.6-.6.7 0 1.4.1 2.1.4.6.2 1.2.6 1.7 1 1 1.4 1.7 2.9 2.3 4.4.5 1.6.8 3.3.8 5 0 3-.9 6-2.4 8.5s-3.8 4.6-6.5 6c-2 1-4.3 1.6-6.5 1.7h-.2V81.8zm-4.3-9.4v9.3h3.2v23.1c-1.8-.1-3.6-.4-5.4-1.1-2.2-.9-4.9-2.7-6.6-4.9-1.4-1.8-2.2-3.8-1.9-5.9.1-.9.5-1.7 1-2.5.5-.7 1.2-1.3 2-1.7l1.7-.9 1.2-7.3L99.5 77l-1.9 12.1c-2.9-3.6-5.1-7.6-6.7-11.8-1.6-4.4-2.5-9.1-2.6-13.9h18.4c5.4 4.9 12.3 8.2 20 9zm-21.1-10.1H88.3c.1-4.2.7-8.4 2-12.3 1.2-3.7 2.9-7.2 5-10.4.5 8.4 4 16 9.3 21.7.3.4.7.7 1 1z" fill="url(#SVGID_2_)"/><g class="st1"><radialGradient id="SVGID_3_" cx="123.246" cy="165.625" r="100.389" gradientTransform="matrix(1 0 0 .4883 0 84.748)" gradientUnits="userSpaceOnUse"><stop offset=".444" stop-color="#fff" stop-opacity="0"/><stop offset=".921" stop-color="#fff" stop-opacity=".464"/><stop offset="1" stop-color="#fff" stop-opacity=".54"/></radialGradient><path d="M96.2 36.6l-.9 1.2c-2.6 3.6-4.6 7.6-6 11.9-1.3 4.2-2.1 8.6-2.1 13.2 0 5.1.9 10.1 2.6 14.8 1.7 4.7 4.3 9.1 7.6 13l.7.8 2.1-13.3 20.5 3.3-.9 5.8-1.3.6c-.9.5-1.7 1.2-2.3 2-.6.8-1 1.8-1.2 2.9-.4 2.4.5 4.7 2.1 6.6 1.9 2.4 4.6 4.3 7 5.3 2.2.9 4.7 1.3 7.1 1.2 2.4-.1 4.8-.7 6.9-1.8 2.9-1.5 5.2-3.7 6.9-6.3 1.6-2.6 2.5-5.7 2.5-9 0-1.8-.3-3.6-.8-5.3-.5-1.7-1.4-3.3-2.4-4.8-.6-.6-1.3-1-2.1-1.3-.8-.3-1.6-.4-2.4-.4-1.1 0-2.1.2-3 .7-.9.5-1.7 1.1-2.3 2l-.8 1.2h-5.9v-9.3h-.5c-8.6-.8-16.3-4.8-21.8-10.8-5.5-5.9-9-13.9-9.1-22.6l-.2-1.6zM131 81.8h3.1l1.1-1.6c.5-.7 1.2-1.3 2-1.7.8-.4 1.7-.6 2.6-.6.7 0 1.4.1 2.1.4.6.2 1.2.6 1.7 1 1 1.4 1.7 2.9 2.3 4.4.5 1.6.8 3.3.8 5 0 3-.9 6-2.4 8.5s-3.8 4.6-6.5 6c-2 1-4.3 1.6-6.5 1.7h-.2V81.8zm-4.3-9.4v9.3h3.2v23.1c-1.8-.1-3.6-.4-5.4-1.1-2.2-.9-4.9-2.7-6.6-4.9-1.4-1.8-2.2-3.8-1.9-5.9.1-.9.5-1.7 1-2.5.5-.7 1.2-1.3 2-1.7l1.7-.9 1.2-7.3L99.5 77l-1.9 12.1c-2.9-3.6-5.1-7.6-6.7-11.8-1.6-4.4-2.5-9.1-2.6-13.9h18.4c5.4 4.9 12.3 8.2 20 9zm-21.1-10.1H88.3c.1-4.2.7-8.4 2-12.3 1.2-3.7 2.9-7.2 5-10.4.5 8.4 4 16 9.3 21.7.3.4.7.7 1 1z" fill="url(#SVGID_3_)"/></g><g class="st3"><path class="st4" d="M130.4 105.3c-5.8-.3-19.8-6.8-13.8-15 1.1-1.5 3-1.8 3.8-3.3.8-1.4.7-4.2.9-5.8V81l-18.6-3c-2.5-.4-2.7-1-3.1 1.5-.3 1.8-.6 3.6-.9 5.3-.2.9-.1 4.2-.8 4.9-.8.8-1.9-1.6-2.7-2.8-2-3-3.7-6.2-5-9.5-3.8-10.3-3.3-22.1 1.2-32.1.3-.8 3.6-7.4 4.2-7.1.3.1.8 6.5.9 7.1 1.5 6.4 4.8 12.3 9.5 17 2.8 2.8 6.1 5 9.7 6.7 1.7.8 3.4 1.4 5.1 1.9 1.4.4 4.2.3 5.4 1.1 1.3.8.8 2.2.8 4.2V81.4c1.7 0 5.1.7 6.6 0 1.2-.6 1.8-2.5 3.1-3.2 2-1 4.8-.9 6.5.6 5.3 4.3 4.2 14.3.7 19.3-2.8 4.5-7.9 7.1-13.5 7.2v.2c12-.3 22.2-15.4 14-25.9-2.8-3.5-6.7-2.4-9.7.2-.5.4-.6 1.1-1.1 1.3-.9.4-2.6 0-3.6 0-2.8 0-2.8.2-2.8-2.6v-6.6-.1c-17.4-1.6-31.1-16.6-31.4-34-5.6 7.8-8.4 17.4-8 27 .3 7.4 2.6 14.7 6.6 21 .7 1 3 4.9 3.6 4.4.6-.5.8-4.8.9-5.6.3-1.7.3-6.3 1.6-6.8.8-.3 3.3.5 4.2.7 2.2.3 4.3.7 6.5 1 2 .3 3.9.6 5.9.9.6.1 3.6.1 4.1.7.4.5-.3 2.8-.4 3.6-.4 2.2-.3 2.1-1.7 3.4-2 1.9-3.8 3.3-3.5 6.3.5 7 8.9 10.8 14.9 11.1-.1 0-.1-.2-.1-.2z"/><path class="st4" d="M130.5 105.4c9.1-.4 16.5-7.5 16.5-16.7 0-4.1-1.4-10.4-6.1-11.2-3.1-.6-4.2 1.3-6.3 2.7-1.6 1.1-1.7 1-4 1v.1c-.1 8-.1 16-.1 24.1V93.8v-8.2c0-.9-.4-3.7.2-4.2.5-.5 2.4.3 3.1 0 .8-.3 1.8-2.3 2.5-2.8 4.3-2.9 8 .3 9.5 4.3 4.2 11-4.2 21.9-15.4 22.3.1 0 .1.2.1.2z"/><path class="st4" d="M118.9 88.3c-2.1 1.4-3.4 3.3-3.3 5.9.2 7 8.8 11 14.8 11.2v-.1-24-.1c-3.1 0-3.2.4-3.2-2.6V72v-.1c-5.1-.5-10-2.1-14.4-4.7-3-1.8-4.5-4.3-7.9-4.3H88v.2c.1 4.4.7 8.7 2 12.8.5 1.4 6.5 15.2 8 14.5.8-.4 1-6.4 1.2-7.3.2-1.2.2-4.8 1.1-5.4 1.1-.7 5.9.9 7.2 1.2 3.4.5 6.8 1.1 10.2 1.6 1.9.3 3.3.1 3.8 1.3.3.7-.5 3.9-.7 4.5-.8 1.5-.3 1.2-1.9 2v.2c2.6-1.3 2.2-4.7 2.6-7.4v-.2c-6.1-1-12.3-2-18.4-3-2.6-.4-2.8-1.2-3.5 1.1-.5 1.6-.6 3.5-.8 5.2-.2 1.2-.1 4.2-.8 5.1-.1.1 0 .7-.1.8-.1 0-1.7-2.2-1.7-2.2-2.2-3-4-6.3-5.4-9.8-1.4-3.6-2.3-7.4-2.7-11.3-.4-3.9-1-3.5 1.6-3.9 3.5-.6 7.5 0 11.1 0 2.4 0 4.9-.4 6.9.6 3.2 1.7 5.8 4.3 9.3 5.8 1.7.7 3.4 1.3 5.2 1.7.9.2 4.2.3 4.8.8 1.2 1.3.3 7.2.3 9.2v.1c1.6 0 2.7-.5 3.2.7.5 1 0 3.2 0 4.3v13.4c0 1.2.5 3.7 0 4.7-.6 1.2-1.4.7-3.3.3-6.6-1.3-16.9-10.6-8.2-16.4-.1.4-.1.3-.1.2z"/><path class="st4" d="M94.9 39.3c-4.5 7.1-7 15-7.1 23.4v.2h18.8v-.2c-6.8-6.7-10.4-15-11-24.5-.2.3-.4.7-.7 1.1v.2c1.3-1.9 1 2.3 1.2 3.4.7 4.2 2.1 8.2 4.2 11.9.5.8 6.2 8 6.3 7.9-.1.3-4.4 0-4.7 0h-7.5c-1.5 0-4.4.6-5.8 0-2-.9-.1-7.8.5-10.1 1.2-4.7 3.2-9 5.8-13.1.1-.1 0-.2 0-.2z"/></g><path class="st5" d="M96.2 36.6l-.9 1.2c-2.6 3.6-4.6 7.6-6 11.9-1.3 4.2-2.1 8.6-2.1 13.2 0 5.1.9 10.1 2.6 14.8 1.7 4.7 4.3 9.1 7.6 13l.7.8 2.1-13.3 20.5 3.3-.9 5.8-1.3.6c-.9.5-1.7 1.2-2.3 2-.6.8-1 1.8-1.2 2.9-.4 2.4.5 4.7 2.1 6.6 1.9 2.4 4.6 4.3 7 5.3 2.2.9 4.7 1.3 7.1 1.2 2.4-.1 4.8-.7 6.9-1.8 2.9-1.5 5.2-3.7 6.9-6.3 1.6-2.6 2.5-5.7 2.5-9 0-1.8-.3-3.6-.8-5.3-.5-1.7-1.4-3.3-2.4-4.8-.6-.6-1.3-1-2.1-1.3-.8-.3-1.6-.4-2.4-.4-1.1 0-2.1.2-3 .7-.9.5-1.7 1.1-2.3 2l-.8 1.2h-5.9v-9.3h-.5c-8.6-.8-16.3-4.8-21.8-10.8-5.5-5.9-9-13.9-9.1-22.6l-.2-1.6zM131 81.8h3.1l1.1-1.6c.5-.7 1.2-1.3 2-1.7.8-.4 1.7-.6 2.6-.6.7 0 1.4.1 2.1.4.6.2 1.2.6 1.7 1 1 1.4 1.7 2.9 2.3 4.4.5 1.6.8 3.3.8 5 0 3-.9 6-2.4 8.5s-3.8 4.6-6.5 6c-2 1-4.3 1.6-6.5 1.7h-.2V81.8zm-4.3-9.4v9.3h3.2v23.1c-1.8-.1-3.6-.4-5.4-1.1-2.2-.9-4.9-2.7-6.6-4.9-1.4-1.8-2.2-3.8-1.9-5.9.1-.9.5-1.7 1-2.5.5-.7 1.2-1.3 2-1.7l1.7-.9 1.2-7.3L99.5 77l-1.9 12.1c-2.9-3.6-5.1-7.6-6.7-11.8-1.6-4.4-2.5-9.1-2.6-13.9h18.4c5.4 4.9 12.3 8.2 20 9zm-21.1-10.1H88.3c.1-4.2.7-8.4 2-12.3 1.2-3.7 2.9-7.2 5-10.4.5 8.4 4 16 9.3 21.7.3.4.7.7 1 1z"/><linearGradient id="SVGID_4_" gradientUnits="userSpaceOnUse" x1="107.61" y1="165.39" x2="107.61" y2="137.658"><stop offset=".006" stop-color="#d0bd7d"/><stop offset=".073" stop-color="#736939"/><stop offset=".5" stop-color="#efebd6"/><stop offset=".618" stop-color="#e3d9b2"/><stop offset=".67" stop-color="#e2d7ae"/><stop offset=".721" stop-color="#ddd1a2"/><stop offset=".772" stop-color="#d6c68e"/><stop offset=".809" stop-color="#cfbc7b"/><stop offset="1" stop-color="#614f1c"/></linearGradient><path d="M119.6 137.7H116.6h.4H115.6h.4H115l-6.9 20.5-9.1-20.5h-5c.9 1.2 1.7 2.6 2.6 4-.4 8.3-1.1 16.4-2.5 23.7h3.3c-.3-6.5 0-13.8.5-21.5 3.5 6.4 6.6 14.2 9.3 21.5h.6c2.6-6.7 5.2-14.5 8.3-21.1 1.3 7.3 1.6 14.3 1 21.1h4.4c-1.8-8.2-2.8-16.6-3.2-25.3.3-.9.7-1.7 1.3-2.4z" fill="url(#SVGID_4_)"/><radialGradient id="SVGID_5_" cx="110.239" cy="189.312" r="40.99" gradientTransform="matrix(1 0 0 .4883 0 96.869)" gradientUnits="userSpaceOnUse"><stop offset=".444" stop-color="#fff" stop-opacity="0"/><stop offset=".921" stop-color="#fff" stop-opacity=".464"/><stop offset="1" stop-color="#fff" stop-opacity=".54"/></radialGradient><path d="M119.6 137.7H116.6h.4H115.6h.4H115l-6.9 20.5-9.1-20.5h-5c.9 1.2 1.7 2.6 2.6 4-.4 8.3-1.1 16.4-2.5 23.7h3.3c-.3-6.5 0-13.8.5-21.5 3.5 6.4 6.6 14.2 9.3 21.5h.6c2.6-6.7 5.2-14.5 8.3-21.1 1.3 7.3 1.6 14.3 1 21.1h4.4c-1.8-8.2-2.8-16.6-3.2-25.3.3-.9.7-1.7 1.3-2.4z" opacity=".58" fill="url(#SVGID_5_)"/><g class="st3"><path class="st4" d="M117.4 165c.2-2.5.3-5.1.2-7.6-.1-3.8-.4-7.6-1-11.4-.4-2.8-.2-4.1-1.5-1.2-1.8 4-3.4 8.2-4.9 12.3-.7 1.8-1.1 4.5-2.3 6.1-.4 2.1-.8 2.2-1.2.2-.3-.7-.6-1.5-.8-2.2-2.5-6.5-5.3-12.9-8.6-19-.3 5.9-.7 11.8-.7 17.7 0 .8.4 3.3 0 3.9-.5 1-1.2 1.6-1.9.5-.6-1 .6-4.9.8-6 .5-4 .9-7.9 1.1-11.9.1-1.4.6-3.4.3-4.8-.2-.7-.8-1.3-1.1-1.9-.6-1.6-.8-1.8 1.4-1.4.6.1 1.1-.1 1.6.2.8.6 1.5 3.2 1.9 4.2 1.1 2.4 2.2 4.7 3.3 7.1.4.8 3.8 9.7 4.5 9.7.6 0 3.5-10.3 3.7-11.1.7-2.2 1.7-8.8 3.6-10.1.2-.1 1.1 0 1.4 0 1.3.1.7-.2 1 .7.6 1.7-.6.5-.6 1 0 .4.1.9.1 1.2-.5 4.9.8 10.7 1.5 15.5.2 1.2 2.1 7.3 1.3 8.3-.3.3-2.6 0-3.1 0 0-.1 0 0 0 0h3.3v-.2c-.9-4.6-1.7-9.1-2.2-13.8-.5-4.2-2.1-9.2.2-12.9v-.2c-2.3 0-2.5-.4-3.5 1.2-1.3 2.1-1.7 5.2-2.5 7.5-.4 1.1-3.9 12.4-4.2 12.4-.6-.1-2.1-4.5-2.3-5-1.3-2.8-2.6-5.7-4-8.5-.9-1.9-1.7-5.1-3.1-6.6-1.2-1.3-2.2-.9-4.3-.9v.2c1 1.5 1.9 2.7 2.1 4.3.4 2.9-.4 6.6-.7 9.5-.4 4.3-.9 8.6-1.7 12.8v.2h2.3v-.2c-.2-6.7.1-13.3.4-20 .2-2.9.5-2 1.7.3 1.6 3 3 6.1 4.3 9.3.7 1.5 1.3 3.1 1.9 4.7.5 1.2 1 4.3 2 5.1.3 1.2.6.9.9-.9.3-.8.6-1.7 1-2.5.8-2.1 1.5-4.1 2.3-6.2 1.1-2.9 2.2-8.1 4.3-10.4 1-1.1.2-1.5.8.1.7 1.6.6 3.9.8 5.7.5 4.9.6 9.9.2 14.9v.1z"/></g><path class="st5" d="M119.6 137.7H116.6h.4H115.6h.4H115l-6.9 20.5-9.1-20.5h-5c.9 1.2 1.7 2.6 2.6 4-.4 8.3-1.1 16.4-2.5 23.7h3.3c-.3-6.5 0-13.8.5-21.5 3.5 6.4 6.6 14.2 9.3 21.5h.6c2.6-6.7 5.2-14.5 8.3-21.1 1.3 7.3 1.6 14.3 1 21.1h4.4c-1.8-8.2-2.8-16.6-3.2-25.3.3-.9.7-1.7 1.3-2.4z"/><linearGradient id="SVGID_6_" gradientUnits="userSpaceOnUse" x1="204.605" y1="165.366" x2="204.605" y2="137.681"><stop offset=".006" stop-color="#d0bd7d"/><stop offset=".073" stop-color="#736939"/><stop offset=".5" stop-color="#efebd6"/><stop offset=".618" stop-color="#e3d9b2"/><stop offset=".67" stop-color="#e2d7ae"/><stop offset=".721" stop-color="#ddd1a2"/><stop offset=".772" stop-color="#d6c68e"/><stop offset=".809" stop-color="#cfbc7b"/><stop offset="1" stop-color="#614f1c"/></linearGradient><path d="M207.5 138c-7.2-1.5-14.2 3.3-15.8 10.8-1.6 7.5 2.9 14.8 10.1 16.3 7.2 1.5 14.2-3.3 15.8-10.8 1.6-7.5-3-14.8-10.1-16.3zm2.2 24.6c-4.7 2.9-10.8.3-13.7-5.8-2.8-6.1-1.3-13.4 3.4-16.3 4.7-2.9 10.8-.3 13.7 5.8 2.9 6.1 1.3 13.4-3.4 16.3z" fill="url(#SVGID_6_)"/><g class="st1"><radialGradient id="SVGID_7_" cx="207.159" cy="189.249" r="40.732" gradientTransform="matrix(1 0 0 .4883 0 96.836)" gradientUnits="userSpaceOnUse"><stop offset=".444" stop-color="#fff" stop-opacity="0"/><stop offset=".921" stop-color="#fff" stop-opacity=".464"/><stop offset="1" stop-color="#fff" stop-opacity=".54"/></radialGradient><path d="M207.5 138c-7.2-1.5-14.2 3.3-15.8 10.8-1.6 7.5 2.9 14.8 10.1 16.3 7.2 1.5 14.2-3.3 15.8-10.8 1.6-7.5-3-14.8-10.1-16.3zm2.2 24.6c-4.7 2.9-10.8.3-13.7-5.8-2.8-6.1-1.3-13.4 3.4-16.3 4.7-2.9 10.8-.3 13.7 5.8 2.9 6.1 1.3 13.4-3.4 16.3z" fill="url(#SVGID_7_)"/></g><g class="st3"><path class="st4" d="M204.4 164.8c-16.5-.9-15.9-26.6.5-26.6 6.2 0 11.3 4.8 12.4 10.7 1.4 8.3-4.9 15.5-12.9 15.9v.2c16.5-.9 17.6-27 .5-27-16.8 0-17.3 26.1-.5 27v-.2z"/><path class="st4" d="M203.6 138.8c-14.1 1.3-11.4 25.7 1.9 25.5 14.7-.2 10.9-24.5-1.9-25.5v.2c13 1 16.1 25 1.9 25.1-13.2.1-15.8-23.9-1.9-25.1v-.2z"/></g><path class="st5" d="M207.5 138c-7.2-1.5-14.2 3.3-15.8 10.8-1.6 7.5 2.9 14.8 10.1 16.3 7.2 1.5 14.2-3.3 15.8-10.8 1.6-7.5-3-14.8-10.1-16.3zm2.2 24.6c-4.7 2.9-10.8.3-13.7-5.8-2.8-6.1-1.3-13.4 3.4-16.3 4.7-2.9 10.8-.3 13.7 5.8 2.9 6.1 1.3 13.4-3.4 16.3z"/><g><linearGradient id="SVGID_8_" gradientUnits="userSpaceOnUse" x1="158.952" y1="165.39" x2="158.952" y2="137.658"><stop offset=".006" stop-color="#d0bd7d"/><stop offset=".073" stop-color="#736939"/><stop offset=".5" stop-color="#efebd6"/><stop offset=".618" stop-color="#e3d9b2"/><stop offset=".67" stop-color="#e2d7ae"/><stop offset=".721" stop-color="#ddd1a2"/><stop offset=".772" stop-color="#d6c68e"/><stop offset=".809" stop-color="#cfbc7b"/><stop offset="1" stop-color="#614f1c"/></linearGradient><path d="M162.5 151.3c-1.4-.8-3.2-1.5-4.7-2.1-4-1.7-5.6-6.3-2-9.2 3-2.4 7.7-1.1 9.1 2.2h.5c-.1-1.4-.2-2.9.2-4.5h-5.8c-4.8 0-9.9 2.7-8.6 9.1.9 4.2 4.4 5 8.2 6.5 1.7.7 3 1.7 3.7 3 1.3 2.6.4 6.1-2.2 7.2-3.4 1.5-7.2-.7-8.5-4.1-.2.1-.4.1-.6.2.6 2.1 1.1 4 1.2 5.8h4.9c4.3 0 8.6-2.3 8.7-7.6.2-3.1-1.6-5-4.1-6.5z" fill="url(#SVGID_8_)"/><radialGradient id="SVGID_9_" cx="160.46" cy="189.312" r="38.504" gradientTransform="matrix(1 0 0 .4883 0 96.869)" gradientUnits="userSpaceOnUse"><stop offset=".444" stop-color="#fff" stop-opacity="0"/><stop offset=".921" stop-color="#fff" stop-opacity=".464"/><stop offset="1" stop-color="#fff" stop-opacity=".54"/></radialGradient><path d="M162.5 151.3c-1.4-.8-3.2-1.5-4.7-2.1-4-1.7-5.6-6.3-2-9.2 3-2.4 7.7-1.1 9.1 2.2h.5c-.1-1.4-.2-2.9.2-4.5h-5.8c-4.8 0-9.9 2.7-8.6 9.1.9 4.2 4.4 5 8.2 6.5 1.7.7 3 1.7 3.7 3 1.3 2.6.4 6.1-2.2 7.2-3.4 1.5-7.2-.7-8.5-4.1-.2.1-.4.1-.6.2.6 2.1 1.1 4 1.2 5.8h4.9c4.3 0 8.6-2.3 8.7-7.6.2-3.1-1.6-5-4.1-6.5z" opacity=".58" fill="url(#SVGID_9_)"/><g class="st3"><path class="st4" d="M153.6 164.9c-.1-.8-.2-1.7-.4-2.5.7-.2 1.3.1 1.6.9 1.9.5 3 1.7 5.2 1.2 2.5-.5 4-2.5 4.2-5 .3-3.3-1.8-5.2-4.5-6.6-2.4-1.2-5.5-1.6-7.1-4.1-2.4-3.7-.6-8.2 3.2-9.8.8-.3 11-1.6 9.1.8-.8 1.1-2-.6-2.9-1-3-1.3-7-.1-8.3 3.1-.5 1.3-.5 2.8 0 4.1 2.4 6.3 15.4 4.9 12.1 14.3-1.7 5.1-7.9 4.6-12.2 4.6v.2c5.3 0 12.9.1 12.8-7.3-.1-5.8-6.2-6.2-10-8.9-7.7-5.3 2.6-15.1 8.6-7.5v-.2c0-1 .1-2 .1-3v-.2c-5.3 0-13.6-.5-13.6 7.1.1 6 5.4 6.1 9.4 8.5 3.5 2.2 4.4 8.2.2 10.2-3.2 1.5-6.4-.4-8.3-2.9v.2c.3 1.3.6 2.5.7 3.9.1 0 .1-.1.1-.1z"/></g><path class="st5" d="M162.5 151.3c-1.4-.8-3.2-1.5-4.7-2.1-4-1.7-5.6-6.3-2-9.2 3-2.4 7.7-1.1 9.1 2.2h.5c-.1-1.4-.2-2.9.2-4.5h-5.8c-4.8 0-9.9 2.7-8.6 9.1.9 4.2 4.4 5 8.2 6.5 1.7.7 3 1.7 3.7 3 1.3 2.6.4 6.1-2.2 7.2-3.4 1.5-7.2-.7-8.5-4.1-.2.1-.4.1-.6.2.6 2.1 1.1 4 1.2 5.8h4.9c4.3 0 8.6-2.3 8.7-7.6.2-3.1-1.6-5-4.1-6.5z"/></g><g><linearGradient id="SVGID_10_" gradientUnits="userSpaceOnUse" x1="230.034" y1="165.39" x2="230.034" y2="137.658"><stop offset=".006" stop-color="#d0bd7d"/><stop offset=".073" stop-color="#736939"/><stop offset=".5" stop-color="#efebd6"/><stop offset=".618" stop-color="#e3d9b2"/><stop offset=".67" stop-color="#e2d7ae"/><stop offset=".721" stop-color="#ddd1a2"/><stop offset=".772" stop-color="#d6c68e"/><stop offset=".809" stop-color="#cfbc7b"/><stop offset="1" stop-color="#614f1c"/></linearGradient><path d="M239.8 137.7c.7 6.6.8 15.1.5 21.8l-16.6-21.8h-6.6c1.3 1.2 2.6 2.6 3.9 3.9.7 8 .5 15.9-.3 23.8h3c-.6-7.1-.8-14.2-.5-21.3 5.7 6.4 11.4 13.8 16.4 21.3h3.1c-.9-9.2-1-18.4.1-27.7h-3z" fill="url(#SVGID_10_)"/><radialGradient id="SVGID_11_" cx="232.513" cy="189.312" r="40.593" gradientTransform="matrix(1 0 0 .4883 0 96.869)" gradientUnits="userSpaceOnUse"><stop offset=".444" stop-color="#fff" stop-opacity="0"/><stop offset=".921" stop-color="#fff" stop-opacity=".464"/><stop offset="1" stop-color="#fff" stop-opacity=".54"/></radialGradient><path d="M239.8 137.7c.7 6.6.8 15.1.5 21.8l-16.6-21.8h-6.6c1.3 1.2 2.6 2.6 3.9 3.9.7 8 .5 15.9-.3 23.8h3c-.6-7.1-.8-14.2-.5-21.3 5.7 6.4 11.4 13.8 16.4 21.3h3.1c-.9-9.2-1-18.4.1-27.7h-3z" opacity=".58" fill="url(#SVGID_11_)"/><g class="st3"><path class="st4" d="M239.9 164.9c-5.2-7.7-10.9-15-17.1-22-.2 3.2-.2 6.4-.2 9.6 0 1.8.1 3.5.1 5.3 0 0 .8 9.2-1.3 7.1-1.2-1.2.3-8.9.3-10.1V152c0-3.1.8-8-.5-10.7-1.2-2.4-4.8-3.1-.5-3.1 1.1 0 2-.2 2.8.3 2 1.2 3.8 4.9 5.1 6.7 3.9 5.2 7.9 10.3 11.8 15.5.1-3.3.2-6.6.2-9.9 0-2.8-.1-5.6-.3-8.4 0-.4-.4-2.5-.2-3.1.6-2.1 1.4-1.6 1.8.2.5 2.1-.5 6.4-.5 8.6v3.6c0 1.8.1 3.7.1 5.5.1 1.5.7 4.2.4 5.7-.3 2.4.1 2-2 2v.2h2.4v-.2c-.8-8.9-.9-17.8.1-26.7v-.2h-2.2v.2c.2 2.6.4 5.2.5 7.7.2 4.5.2 8.9 0 13.4 0 .3 0 .6-.1.9-.3.2-1.1-1.1-1.6-1.7-2.4-3.2-4.9-6.4-7.3-9.6-2.4-3.1-4.7-6.2-7.1-9.3-1.8-2.4-3.4-1.6-6.4-1.6v.2c2.7 2.8 3.2 2.8 3.4 6.9.4 6.6.1 13.2-.5 19.8v.2h2.1v-.2c-.2-3.1-1.6-20.4-.4-20.7 1.1-.3-.9-.8.8-.3.8.2 2.9 3.3 3.4 3.9 4.6 5.5 8.9 11.3 13 17.3-.1-.1 0-.2-.1-.2z"/></g><path class="st5" d="M239.8 137.7c.7 6.6.8 15.1.5 21.8l-16.6-21.8h-6.6c1.3 1.2 2.6 2.6 3.9 3.9.7 8 .5 15.9-.3 23.8h3c-.6-7.1-.8-14.2-.5-21.3 5.7 6.4 11.4 13.8 16.4 21.3h3.1c-.9-9.2-1-18.4.1-27.7h-3z"/></g><g><linearGradient id="SVGID_12_" gradientUnits="userSpaceOnUse" x1="130.961" y1="165.39" x2="130.961" y2="137.658"><stop offset=".006" stop-color="#d0bd7d"/><stop offset=".073" stop-color="#736939"/><stop offset=".5" stop-color="#efebd6"/><stop offset=".618" stop-color="#e3d9b2"/><stop offset=".67" stop-color="#e2d7ae"/><stop offset=".721" stop-color="#ddd1a2"/><stop offset=".772" stop-color="#d6c68e"/><stop offset=".809" stop-color="#cfbc7b"/><stop offset="1" stop-color="#614f1c"/></linearGradient><path d="M127.8 163.2c-.3-3.5-.4-6.9-.5-10.3 2.2-1 5.3-.9 8.7.5v-3.6c-2.4 1.1-5.5 1-8.7.3 0-3.7.2-7.4.5-11 4 .1 6.8.9 8.3 2.4l-.6-3.7h-11.6c1.4 9.3 1.2 18.6.1 27.7h12.3l1.6-3.9c-3.2 1.8-6.6 2.4-10.1 1.6z" fill="url(#SVGID_12_)"/><radialGradient id="SVGID_13_" cx="132.306" cy="189.312" r="38.245" gradientTransform="matrix(1 0 0 .4883 0 96.869)" gradientUnits="userSpaceOnUse"><stop offset=".444" stop-color="#fff" stop-opacity="0"/><stop offset=".921" stop-color="#fff" stop-opacity=".464"/><stop offset="1" stop-color="#fff" stop-opacity=".54"/></radialGradient><path d="M127.8 163.2c-.3-3.5-.4-6.9-.5-10.3 2.2-1 5.3-.9 8.7.5v-3.6c-2.4 1.1-5.5 1-8.7.3 0-3.7.2-7.4.5-11 4 .1 6.8.9 8.3 2.4l-.6-3.7h-11.6c1.4 9.3 1.2 18.6.1 27.7h12.3l1.6-3.9c-3.2 1.8-6.6 2.4-10.1 1.6z" opacity=".58" fill="url(#SVGID_13_)"/><g class="st3"><path class="st4" d="M124.6 165c.5-5 .9-9.9.8-14.9 0-3.2-.3-6.4-.6-9.6-.2-2.1-.5-1.8.9-2.3.9-.3 2.7 0 3.7 0s4.9-.6 5.7 0c.7.6.2 1.6 0 1.7-.6.2-3.9-1.2-4.8-1.3-3.7-.4-2.9.4-3.1 3.8-.2 2.6-.2 5.2-.2 7.8v.1c1.5.4 8.4.2 8.7.7 1.1 2-3.2.6-4.1.6-1.6-.1-3.1.1-4.6.8v.2c0 3.7.2 7.3.5 11 1.6.4 3.3.5 5 .3.2 0 4.6-1.2 4.6-1.2.1.1-.7 2-.9 2.1-.3.2-1.1-.1-1.4 0-3 .7-6.9 0-10 0-.2.1-.2.2-.2.2h7.6c3.3 0 3.6.6 4.9-2.5v-.2c-2.3 1-4.6 1.6-7.1 1.5-3.6-.2-2.7-1.9-2.9-5.1-.1-2.5-1.1-5.4 1.2-6.6 2.1-1.1 5.3 0 7.3.6v-.1-2.3-.1c-2.2.6-5.3 1.1-7.6.2-2.5-1-1-5.3-.9-7.9.1-1.4-.3-3.4.7-4 1.7-1 6.2.9 7.7 1.8v-.2c-.4-2.9-.9-2.2-3.8-2.2h-7.2v.2c1.2 8.9 1.1 17.8.1 26.7v.2z"/></g><path class="st5" d="M127.8 163.2c-.3-3.5-.4-6.9-.5-10.3 2.2-1 5.3-.9 8.7.5v-3.6c-2.4 1.1-5.5 1-8.7.3 0-3.7.2-7.4.5-11 4 .1 6.8.9 8.3 2.4l-.6-3.7h-11.6c1.4 9.3 1.2 18.6.1 27.7h12.3l1.6-3.9c-3.2 1.8-6.6 2.4-10.1 1.6z"/></g><g><linearGradient id="SVGID_14_" gradientUnits="userSpaceOnUse" x1="252.693" y1="165.39" x2="252.693" y2="137.658"><stop offset=".006" stop-color="#d0bd7d"/><stop offset=".073" stop-color="#736939"/><stop offset=".5" stop-color="#efebd6"/><stop offset=".618" stop-color="#e3d9b2"/><stop offset=".67" stop-color="#e2d7ae"/><stop offset=".721" stop-color="#ddd1a2"/><stop offset=".772" stop-color="#d6c68e"/><stop offset=".809" stop-color="#cfbc7b"/><stop offset="1" stop-color="#614f1c"/></linearGradient><path d="M249.5 163.2c-.3-3.5-.4-6.9-.5-10.3 2.2-1 5.3-.9 8.7.5v-3.6c-2.4 1.1-5.5 1-8.7.3 0-3.7.2-7.4.5-11 4 .1 6.8.9 8.3 2.4l-.6-3.7h-11.6c1.4 9.3 1.2 18.6.1 27.7H258l1.6-3.9c-3.2 1.8-6.6 2.4-10.1 1.6z" fill="url(#SVGID_14_)"/><radialGradient id="SVGID_15_" cx="254.038" cy="189.312" r="38.245" gradientTransform="matrix(1 0 0 .4883 0 96.869)" gradientUnits="userSpaceOnUse"><stop offset=".444" stop-color="#fff" stop-opacity="0"/><stop offset=".921" stop-color="#fff" stop-opacity=".464"/><stop offset="1" stop-color="#fff" stop-opacity=".54"/></radialGradient><path d="M249.5 163.2c-.3-3.5-.4-6.9-.5-10.3 2.2-1 5.3-.9 8.7.5v-3.6c-2.4 1.1-5.5 1-8.7.3 0-3.7.2-7.4.5-11 4 .1 6.8.9 8.3 2.4l-.6-3.7h-11.6c1.4 9.3 1.2 18.6.1 27.7H258l1.6-3.9c-3.2 1.8-6.6 2.4-10.1 1.6z" opacity=".58" fill="url(#SVGID_15_)"/><g class="st3"><path class="st4" d="M246.3 165c.5-5 .9-9.9.8-14.9 0-3.2-.3-6.4-.6-9.6-.2-2.1-.5-1.8.9-2.3.9-.3 2.7 0 3.7 0s4.9-.6 5.7 0c.7.6.2 1.6 0 1.7-.6.2-3.9-1.2-4.8-1.3-3.7-.4-2.9.4-3.1 3.8-.2 2.6-.2 5.2-.2 7.8v.1c1.5.4 8.4.2 8.7.7 1.1 2-3.2.6-4.1.6-1.6-.1-3.1.1-4.6.8v.2c0 3.7.2 7.3.5 11 1.6.4 3.3.5 5 .3.2 0 4.6-1.2 4.6-1.2.1.1-.7 2-.9 2.1-.3.2-1.1-.1-1.4 0-3 .7-6.9 0-10 0-.2.1-.2.2-.2.2h7.6c3.3 0 3.6.6 4.9-2.5v-.2c-2.3 1-4.6 1.6-7.1 1.5-3.6-.2-2.7-1.9-2.9-5.1-.1-2.5-1.1-5.4 1.2-6.6 2.1-1.1 5.3 0 7.3.6v-.1-2.3-.1c-2.2.6-5.3 1.1-7.6.2-2.5-1-1-5.3-.9-7.9.1-1.4-.3-3.4.7-4 1.7-1 6.2.9 7.7 1.8v-.2c-.4-2.9-.9-2.2-3.8-2.2h-7.2v.2c1.2 8.9 1.1 17.8.1 26.7v.2z"/></g><path class="st5" d="M249.5 163.2c-.3-3.5-.4-6.9-.5-10.3 2.2-1 5.3-.9 8.7.5v-3.6c-2.4 1.1-5.5 1-8.7.3 0-3.7.2-7.4.5-11 4 .1 6.8.9 8.3 2.4l-.6-3.7h-11.6c1.4 9.3 1.2 18.6.1 27.7H258l1.6-3.9c-3.2 1.8-6.6 2.4-10.1 1.6z"/></g><g><linearGradient id="SVGID_16_" gradientUnits="userSpaceOnUse" x1="181.08" y1="165.39" x2="181.08" y2="137.658"><stop offset=".006" stop-color="#d0bd7d"/><stop offset=".073" stop-color="#736939"/><stop offset=".5" stop-color="#efebd6"/><stop offset=".618" stop-color="#e3d9b2"/><stop offset=".67" stop-color="#e2d7ae"/><stop offset=".721" stop-color="#ddd1a2"/><stop offset=".772" stop-color="#d6c68e"/><stop offset=".809" stop-color="#cfbc7b"/><stop offset="1" stop-color="#614f1c"/></linearGradient><path d="M181.9 139c6.2.1 9.2.8 10.4 2.1l1.8-3.4H169.3l-.9 4.3c1.7-1.3 4.7-2.9 10.8-3 .8 8.5.8 18.1-.6 26.4h4.4c-1.3-8.2-1.9-17.7-1.1-26.4z" fill="url(#SVGID_16_)"/><radialGradient id="SVGID_17_" cx="183.56" cy="189.312" r="40.593" gradientTransform="matrix(1 0 0 .4883 0 96.869)" gradientUnits="userSpaceOnUse"><stop offset=".444" stop-color="#fff" stop-opacity="0"/><stop offset=".921" stop-color="#fff" stop-opacity=".464"/><stop offset="1" stop-color="#fff" stop-opacity=".54"/></radialGradient><path d="M181.9 139c6.2.1 9.2.8 10.4 2.1l1.8-3.4H169.3l-.9 4.3c1.7-1.3 4.7-2.9 10.8-3 .8 8.5.8 18.1-.6 26.4h4.4c-1.3-8.2-1.9-17.7-1.1-26.4z" opacity=".58" fill="url(#SVGID_17_)"/><g class="st3"><path class="st4" d="M178.9 165c.7-4.8 1-9.7 1-14.5 0-3.2-.1-6.5-.4-9.7-.2-2.7.1-2.5-2.4-2.3-2 .2-4.1.5-6 1.2-1 .4-3.4 1.8-2-.5.8-1.3.1-.8 2-1 4.4-.4 9.1 0 13.5 0h6.1c1.5 0 2.5-.6 1.8.9-.8 1.8-.5.5-1.9.4-1.3 0-2.8-.7-4.2-.9-.7-.1-4.5-.7-5-.2-.4.4.1.4-.3 1.4-1.1 2.5-.3 7.6-.2 10.5.1 3.5.3 6.9.7 10.3.2 1.6.9 3.6-.4 4.2-.5.3-1.9 0-2.5 0 .2.1.2.2.2.2h3.4v-.2c-.5-4-.9-8-1.1-12 0-.4-1.5-13.3.6-14.2 1.8-.8 6.3.3 8.1.8 2.4.8 2 1.3 3.3-1.3v-.2h-14.3c-2.5 0-5.5-.4-7.9 0-2.1.4-1.6.4-2.1 2.8v.2c1.8-1 8.9-3.9 10.5-2.3.1.1.5 6.3.2 2.3.3 4.4.4 8.9.3 13.3-.1 3.6-.5 7.1-1 10.6v.2z"/></g><path class="st5" d="M181.9 139c6.2.1 9.2.8 10.4 2.1l1.8-3.4H169.3l-.9 4.3c1.7-1.3 4.7-2.9 10.8-3 .8 8.5.8 18.1-.6 26.4h4.4c-1.3-8.2-1.9-17.7-1.1-26.4z"/></g><g><linearGradient id="SVGID_18_" gradientUnits="userSpaceOnUse" x1="127.44" y1="123.978" x2="127.44" y2="1.707"><stop offset=".006" stop-color="#d0bd7d"/><stop offset=".073" stop-color="#736939"/><stop offset=".5" stop-color="#efebd6"/><stop offset=".618" stop-color="#e3d9b2"/><stop offset=".67" stop-color="#e2d7ae"/><stop offset=".721" stop-color="#ddd1a2"/><stop offset=".772" stop-color="#d6c68e"/><stop offset=".809" stop-color="#cfbc7b"/><stop offset="1" stop-color="#614f1c"/></linearGradient><path d="M75 118.2h29.3c7.9 3.7 16.7 5.8 26 5.8h.3c9 0 17.7-2.1 25.6-5.8h29.3V7.5h-29.3c-8-3.8-16.8-5.8-26-5.8-9.3 0-18.1 2.1-26 5.8H75v29.3c-3.7 7.9-5.8 16.7-5.8 26s2.1 18.1 5.8 26v29.4zm1.5-1.4V91.7c2.8 5.3 6.5 10.2 10.7 14.4 4.2 4.2 9.1 7.8 14.4 10.7H76.5zm107.7 0h-25.1.1c8.7-4.6 16.2-11.4 21.8-19.8l2.1-3.1-15.8-10.7-1.8 2.7c-.7-8.2-4.2-15.7-9.5-21.3-.4-.4-.7-.8-1.1-1.1h29.3v53.3zm0-107.9v53.4h-30.5c-5.3-4.7-12.1-7.8-19.5-8.6v-9.4H131V21.2c2.6.1 5.1.8 7.4 2.1 2.4 1.3 4.4 3.3 5.9 5.7.6 1.2.8 2.3.6 3.6-.1.9-.5 1.7-1 2.4s-1.2 1.3-2 1.7l-1.7.9-1.2 7.3 22.5 3.6 1.9-11.7c.2.3.5.6.7.9.4.6.9 1.2 1.3 1.8l2.1 3.1 15.8-10.7-2.1-3.1c-5.7-8.5-13.2-15.2-21.9-19.9h24.9zm-107.7 0h25c-5.3 2.8-10.1 6.5-14.4 10.7-4.2 4.2-7.8 9.1-10.7 14.4V8.9zm-6.3 53.9c0-16.6 6.7-31.6 17.6-42.5C98.7 9.4 113.7 2.7 130.3 2.7c10 0 19.7 2.5 28.3 7.1 8.6 4.6 16 11.2 21.6 19.6l1.6 2.3-14.2 9.5-1.6-2.3c-.4-.6-.9-1.2-1.3-1.8-.5-.6-.9-1.2-1.4-1.8l-.7-.8-2.1 12.9-20.5-3.3.9-5.8 1.3-.6c.9-.5 1.7-1.2 2.3-2 .6-.8 1-1.8 1.2-2.9.4-1.1-.1-3.2-.7-4.2-1.6-2.6-3.7-4.6-6.2-6-2.5-1.4-5.4-2.2-8.4-2.2-4.7 0-9 1.9-12.1 5-3.1 3.1-5 7.4-5 12.1 0 1.8.3 3.6.8 5.3.5 1.7 1.3 3.3 2.4 4.7.6.6 1.3 1 2.1 1.3.8.3 1.6.5 2.4.5 1.1 0 2.1-.2 3-.7.9-.5 1.7-1.1 2.3-2l.8-1.2h5.9v9.3h.5c8.5.8 16 4.7 21.6 10.5 5.5 5.8 9 13.6 9.4 22.1l.1 1.5.8-1.2c.1-.1.2-.2.3-.4l.3-.4 1.6-2.3 14.2 9.5-1.6 2.3c-5.6 8.3-13 14.9-21.5 19.5s-18.1 7.1-28.1 7.1h-.3c-9.3 0-18.2-2.1-26.1-5.9h-.1c-6.1-3-11.6-6.9-16.4-11.6-10.7-10.9-17.5-26-17.5-42.6zm59.7-41.6v23.1h-3.1l-1.1 1.6c-.5.7-1.2 1.3-2 1.7-.8.4-1.7.6-2.6.6-.7 0-1.4-.1-2.1-.4-.6-.2-1.2-.6-1.7-1.1-1-1.4-1.7-2.9-2.2-4.4-.5-1.6-.8-3.3-.8-5 0-4.5 1.8-8.5 4.7-11.4 2.8-2.7 6.7-4.5 10.9-4.7z" fill="url(#SVGID_18_)"/><g class="st1"><radialGradient id="SVGID_19_" cx="138.639" cy="229.457" r="179.68" gradientTransform="matrix(1 0 0 .4883 0 117.41)" gradientUnits="userSpaceOnUse"><stop offset=".444" stop-color="#fff" stop-opacity="0"/><stop offset=".921" stop-color="#fff" stop-opacity=".464"/><stop offset="1" stop-color="#fff" stop-opacity=".54"/></radialGradient><path d="M75 118.2h29.3c7.9 3.7 16.7 5.8 26 5.8h.3c9 0 17.7-2.1 25.6-5.8h29.3V7.5h-29.3c-8-3.8-16.8-5.8-26-5.8-9.3 0-18.1 2.1-26 5.8H75v29.3c-3.7 7.9-5.8 16.7-5.8 26s2.1 18.1 5.8 26v29.4zm1.5-1.4V91.7c2.8 5.3 6.5 10.2 10.7 14.4 4.2 4.2 9.1 7.8 14.4 10.7H76.5zm107.7 0h-25.1.1c8.7-4.6 16.2-11.4 21.8-19.8l2.1-3.1-15.8-10.7-1.8 2.7c-.7-8.2-4.2-15.7-9.5-21.3-.4-.4-.7-.8-1.1-1.1h29.3v53.3zm0-107.9v53.4h-30.5c-5.3-4.7-12.1-7.8-19.5-8.6v-9.4H131V21.2c2.6.1 5.1.8 7.4 2.1 2.4 1.3 4.4 3.3 5.9 5.7.6 1.2.8 2.3.6 3.6-.1.9-.5 1.7-1 2.4s-1.2 1.3-2 1.7l-1.7.9-1.2 7.3 22.5 3.6 1.9-11.7c.2.3.5.6.7.9.4.6.9 1.2 1.3 1.8l2.1 3.1 15.8-10.7-2.1-3.1c-5.7-8.5-13.2-15.2-21.9-19.9h24.9zm-107.7 0h25c-5.3 2.8-10.1 6.5-14.4 10.7-4.2 4.2-7.8 9.1-10.7 14.4V8.9zm-6.3 53.9c0-16.6 6.7-31.6 17.6-42.5C98.7 9.4 113.7 2.7 130.3 2.7c10 0 19.7 2.5 28.3 7.1 8.6 4.6 16 11.2 21.6 19.6l1.6 2.3-14.2 9.5-1.6-2.3c-.4-.6-.9-1.2-1.3-1.8-.5-.6-.9-1.2-1.4-1.8l-.7-.8-2.1 12.9-20.5-3.3.9-5.8 1.3-.6c.9-.5 1.7-1.2 2.3-2 .6-.8 1-1.8 1.2-2.9.4-1.1-.1-3.2-.7-4.2-1.6-2.6-3.7-4.6-6.2-6-2.5-1.4-5.4-2.2-8.4-2.2-4.7 0-9 1.9-12.1 5-3.1 3.1-5 7.4-5 12.1 0 1.8.3 3.6.8 5.3.5 1.7 1.3 3.3 2.4 4.7.6.6 1.3 1 2.1 1.3.8.3 1.6.5 2.4.5 1.1 0 2.1-.2 3-.7.9-.5 1.7-1.1 2.3-2l.8-1.2h5.9v9.3h.5c8.5.8 16 4.7 21.6 10.5 5.5 5.8 9 13.6 9.4 22.1l.1 1.5.8-1.2c.1-.1.2-.2.3-.4l.3-.4 1.6-2.3 14.2 9.5-1.6 2.3c-5.6 8.3-13 14.9-21.5 19.5s-18.1 7.1-28.1 7.1h-.3c-9.3 0-18.2-2.1-26.1-5.9h-.1c-6.1-3-11.6-6.9-16.4-11.6-10.7-10.9-17.5-26-17.5-42.6zm59.7-41.6v23.1h-3.1l-1.1 1.6c-.5.7-1.2 1.3-2 1.7-.8.4-1.7.6-2.6.6-.7 0-1.4-.1-2.1-.4-.6-.2-1.2-.6-1.7-1.1-1-1.4-1.7-2.9-2.2-4.4-.5-1.6-.8-3.3-.8-5 0-4.5 1.8-8.5 4.7-11.4 2.8-2.7 6.7-4.5 10.9-4.7z" fill="url(#SVGID_19_)"/></g><g class="st3"><path class="st4" d="M130.3 123.4c-7.7-.1-15.3-1.4-22.5-4.3-3.1-1.2-4-1.5-7.2-1.5H78.3c-2.3 0-2.3.5-2.8-1.2-.8-2.8 0-6.9 0-9.8 0-5.7 1-12.3 0-17.9-.6-3.4-2.8-6.8-3.7-10.2C69 68.3 69 57.3 71.8 47c.9-3.4 3.1-6.8 3.7-10.2.3-1.9 0-4.2 0-6.1V18.4c0-2.7-.7-6.7 0-9.3C76 7.5 76 8 78.3 8H101c3.4 0 4.2-.5 7.7-1.8 14.1-5.4 30.2-5.3 44.2.3 6 2.4 12.4 1.5 18.8 1.5 2.2 0 12.5-1.1 13.5.3.4.5 0 2.8 0 3.5v96c0 1.6 1.1 8.3 0 9.6-.3.4-2.6.2-3.5.2h-22.4c-3.3 0-4.8.9-8.1 2.1-3.5 1.3-7.2 2.3-11 2.9-2.8.5-7.6-.2-10 1 .2 0 .1-.1.1-.2v.2c8.5-.1 16.4-1.8 24.2-5 2.7-1.1 5.3-.8 8.2-.8h22.5v-.1-96.1V7.9v-.1h-22.1c-2.2 0-4.8.3-7 0-2.1-.4-4.5-2-6.6-2.6-2-.7-3.9-1.2-6-1.6-4.3-1-8.8-1.5-13.2-1.5-4.2 0-8.3.4-12.4 1.3-2.3.5-4.6 1.1-6.8 1.8-2.1.7-4.5 2.3-6.6 2.6-2.2.4-4.8 0-7 0h-22v18c0 3.2.2 6.4 0 9.6-.3 4.2-2.9 8.2-3.9 12.3-2 7.8-2.4 16.1-1.2 24.1.5 3.5 1.3 7 2.5 10.3.8 2.3 2.2 4.6 2.7 6.9.5 2.3 0 5.2 0 7.5v21.3h22c2.2 0 4.8-.3 7 0 3.8.7 7.8 3.2 11.7 4.1 4.6 1.1 9.3 1.6 14.1 1.6-.1.1-.1-.1-.1-.1z"/><path class="st4" d="M130.3 2.2c-33 .4-60.6 27.3-60.5 60.7 0 34.4 29.8 62.8 64.4 60.5 20.5-1.3 37.1-12.7 48.3-29.4v-.2c-4.1-2.8-8.3-5.6-12.4-8.4-2.2-1.5-2.1-2.1-3.7.1-1.2 1.7-.7 1.9-1.3.1-.7-2.1-.7-4.7-1.3-6.9-3-10-10.5-18.3-20.2-22.2-2.4-1-4.9-1.7-7.4-2.1-2.8-.4-1.9.2-2.4-1.7-.6-2.3 0-5.4 0-7.8v-.1c-1.8 0-4.8-.7-6.4 0-.6.3-1.1 1.4-1.6 1.9-1.5 1.5-3.5 2.3-5.7 1.9-6.1-1.1-6.8-10.9-5.6-15.4 1.1-4.5 4.4-8.3 8.4-10.5 7.1-3.7 20.2-1.5 22.4 7.6.6 2.2-.2 4.6-1.9 6.1-.6.6-2.3 1-2.7 1.6-.9 1.4-.8 4.7-1 6.4v.2c5.3.8 10.6 1.7 15.8 2.5.8.1 4.9 1.4 5.5.9 1-.7 1.1-7 1.3-8.1.5-3.2-.2-5.6 2.5-2 .5.6 1.9 3.5 2.6 3.8.6.2.4-.2 1.3-.5 2.7-.8 5.7-3.8 8-5.4 1.9-1.3 3.9-2.6 5.8-3.9v-.2c-12-17.8-30.2-29.5-52.2-29.5v.2c13 0 26 4.3 36.4 12.1 4.6 3.4 8.7 7.5 12.1 12.1.4.5 3.5 4.1 3.4 5-.1.5-1.7 1.4-2.3 1.8-2.9 1.9-5.7 3.8-8.6 5.8-2.5 1.7-3.2 3.5-5 .9-.5-.7-2.7-4.6-3.3-4.5-.2 0-.3 1.7-.4 2-.2 1.5-.5 3-.7 4.6-.2.9-.1 4.7-.9 5.3-.7.6-2.8-.1-4-.2-4-.6-8-1.3-11.9-1.9-.8-.1-5.1-.3-5.5-.9-.3-.5.5-4.3.8-4.9.7-1.8.2-.8 1.7-2.1 4.9-4.4 4.2-8.6-1.1-12.9-10.2-8.3-26-1.6-27.1 11.5-.5 6 3.8 17.7 11.3 11.6 1.8-1.5 1.2-2 3.4-2.4.7-.1 4.4-.4 5 0 1.1.8.2 7.6.2 9.2v.1c17.1 1.5 30.7 16.1 31.4 33.2.6-.9 1.8-3.3 2.6-3.4 1.1-.1 4.7 3.1 5.6 3.8l6.6 4.5c2.5 1.7 2.7 1.3.9 3.9-11.4 16.6-30 27-50.2 27.1-19.9.1-38.9-9.9-50.2-26.3-12.5-18.2-14-42.7-3.7-62.2C87.3 15.3 108 3.1 130.4 2.8c-.1-.5-.1-.6-.1-.6z"/><path class="st4" d="M180.7 96.6c-5.7 8.2-12.9 14.8-21.7 19.7v.2c.3 2 10 .9 11.9.9h13.7v-.1V63v-.1h-30.9v.2c5.2 5 9 11.1 10.6 18.3.3 1.2.1 4.4.8 5.3.6.8-.5.5.5 0 1.1-.6 1-2.4 2.2-2.5.9 0 3.3 2.2 4.1 2.7 1.8 1.2 3.7 2.5 5.5 3.7 1 .7 3.7 1.8 4.3 2.9.3.5.6.3.6.7.2.3-1.3 1.9-1.6 2.4v.2c.6-.9 1.2-1.8 1.9-2.8v-.2c-2-1.3-4-2.7-5.9-4-2.1-1.4-5.8-5.1-8.3-5.6-.7-.1-.5-.5-1-.4-.6.2-1.6 3.3-2.1 3.2-.1 0-.7-5.2-.8-5.9-.8-3.6-2.2-7-4-10.1-1.5-2.5-3.3-4.6-5.3-6.8-.9-1.1-1.4-.7-.7-1.1 1.2-.8 6.3 0 7.7 0h20.2c1.4 0 1.9-.3 2.4.5.6 1.1 0 4.2 0 5.4v40.8c0 1.8.4 4.1 0 5.9-.4 1.8.4.9-1.1 1.4-2.8.9-7.2 0-10.1 0h-11.4c-.3 0-2.6.2-2.7 0-.5-.8 5.2-4 6.1-4.6 6.1-4.3 11.2-9.7 15.4-15.8-.3 0-.3-.1-.3-.1zM76 91.7v25.6h13.7c1.9 0 11.5 1.2 12-.8v-.2c-5.7-3.2-10.9-7-15.4-11.8a56.4 56.4 0 0 1-6.1-7.6c-.9-1.3-2.7-5.7-4.2-5.2 0-.1 0 .1 0 0 1.5-.3 4.2 5.5 5.1 6.8 1.9 2.6 4 5.1 6.3 7.4 1.4 1.4 14.1 11.1 14 11.3-.3.5-6 0-6.6 0H82.5c-1 0-5.9.7-6.6 0-.7-.6 0-5.6 0-6.5.1-6.4.1-12.7.1-19 0-.1 0-.1 0 0z"/><path class="st4" d="M133.8 54.2c3.4.4 6.7 1.1 9.9 2.5 2 .8 4 1.9 5.8 3.1 1.1.7 2.9 2.8 4.1 3.1 2.2.7 5.6 0 7.9 0h23.2v-.1V8.5v-.1H171c-1.9 0-11.5-1.2-12 .8v.2c6.3 3.5 11.9 7.8 16.7 13.2 2 2.3 3.8 4.7 5.5 7.2 1.2 1.8 1.4 1.4.4 2.7-2 2.5-6.6 4.4-9.3 6.2-1 .7-2.7 2.4-3.9 2.7-1.4.3-.5.6-1.8-.8-.9-1-1.9-3.9-3.1-4.3-.9-.3-.5-.1-.8 1.5-.3 1.6-.4 9.2-1.6 10.1-.6.4-4.1-.6-4.9-.7-2.3-.4-4.6-.7-6.9-1.1-2-.3-3.9-.6-5.9-.9-1.7-.3-3.3 0-3.8-1.3-.2-.7.4-4.4.8-5.2.8-1.4 2.7-1.7 3.8-3.2 5.6-7.7-7.7-14.5-13.6-14.7V45c3.1 0 3.2-.4 3.2 2.6V44.8v-.1c-2.3 0-2.7.6-3.2-1.1-.5-1.8 0-4.7 0-6.5v-8.6c0-1.9-.5-4.7 0-6.5.1-.2-.1-1 0-1.1.6-.5 3.7.5 4.4.7 3.9 1.1 8.4 4 10 8 2.4 6.2-2.5 5.5-4.4 8.7-.9 1.4-.7 4.6-1 6.3v.2c5.6.9 11.1 1.8 16.7 2.7 1.3.2 4.3 1.2 5 .4.3-.4.3-2 .4-2.5.4-2.5.7-5.1 1.2-7.6.6-2.9 1.1-.8 2.6 1.3.6.9 1.6 3 2.4 3.1 1 .1 3.8-2.6 4.6-3.1 3.4-2.3 6.9-4.6 10.3-6.9V32c-5.3-7.9-11.3-14.8-19.4-20-2.1-1.4-6-2.7-2.4-3.2 2.5-.3 5.2 0 7.7 0h9.5c1.1 0 5.4-.7 6.3 0 .9.7.3 5.5.3 6.9v43c0 .7.4 3.4 0 3.9-.9 1.1-8.4.2-10.2.2-6.3 0-12.7.2-19 0-2.7-.1-3.5-1.5-5.9-3.1-4.7-3.1-10.1-4.9-15.7-5.5-.2-.2-.2 0-.2 0z"/><path class="st4" d="M129.9 20.7c-8.9.7-16.1 7.6-16 16.7 0 4.1 1.4 10.3 6.1 11.2 3 .6 4.2-1.3 6.3-2.7 1.6-1.1 1.7-1 4-1v-.1-24-.1h-.4v.2c.9 0 .5 9.2.5 10.4v8.4c0 .8.5 4.4 0 5-.4.4-2.3-.2-3 0-.8.3-1.1 1.2-1.8 1.9-3.4 3.4-7.9 2.1-9.9-1.9-5.6-11.2 2.7-22.9 14.2-23.8v-.2zM76 34.1c1.6.4 3.2-3.9 4.2-5.3 1.8-2.7 3.9-5.2 6.1-7.6 4.5-4.7 9.7-8.6 15.4-11.8v-.2c-.5-2-10.1-.8-12-.8H76V15.6c0-.9-.7-6.3 0-7 .6-.6 5.7 0 6.6 0h11.8c.7 0 6.6-.6 7 0 .6.9-5.1 3.9-5.9 4.5-2.9 2-5.6 4.3-8.1 6.8-2.3 2.3-4.4 4.8-6.3 7.4-1 1.4-3.7 7-5.1 6.7v.1z"/></g><path class="st5" d="M75 118.2h29.3c7.9 3.7 16.7 5.8 26 5.8h.3c9 0 17.7-2.1 25.6-5.8h29.3V7.5h-29.3c-8-3.8-16.8-5.8-26-5.8-9.3 0-18.1 2.1-26 5.8H75v29.3c-3.7 7.9-5.8 16.7-5.8 26s2.1 18.1 5.8 26v29.4zm1.5-1.4V91.7c2.8 5.3 6.5 10.2 10.7 14.4 4.2 4.2 9.1 7.8 14.4 10.7H76.5zm107.7 0h-25.1.1c8.7-4.6 16.2-11.4 21.8-19.8l2.1-3.1-15.8-10.7-1.8 2.7c-.7-8.2-4.2-15.7-9.5-21.3-.4-.4-.7-.8-1.1-1.1h29.3v53.3zm0-107.9v53.4h-30.5c-5.3-4.7-12.1-7.8-19.5-8.6v-9.4H131V21.2c2.6.1 5.1.8 7.4 2.1 2.4 1.3 4.4 3.3 5.9 5.7.6 1.2.8 2.3.6 3.6-.1.9-.5 1.7-1 2.4s-1.2 1.3-2 1.7l-1.7.9-1.2 7.3 22.5 3.6 1.9-11.7c.2.3.5.6.7.9.4.6.9 1.2 1.3 1.8l2.1 3.1 15.8-10.7-2.1-3.1c-5.7-8.5-13.2-15.2-21.9-19.9h24.9zm-107.7 0h25c-5.3 2.8-10.1 6.5-14.4 10.7-4.2 4.2-7.8 9.1-10.7 14.4V8.9zm-6.3 53.9c0-16.6 6.7-31.6 17.6-42.5C98.7 9.4 113.7 2.7 130.3 2.7c10 0 19.7 2.5 28.3 7.1 8.6 4.6 16 11.2 21.6 19.6l1.6 2.3-14.2 9.5-1.6-2.3c-.4-.6-.9-1.2-1.3-1.8-.5-.6-.9-1.2-1.4-1.8l-.7-.8-2.1 12.9-20.5-3.3.9-5.8 1.3-.6c.9-.5 1.7-1.2 2.3-2 .6-.8 1-1.8 1.2-2.9.4-1.1-.1-3.2-.7-4.2-1.6-2.6-3.7-4.6-6.2-6-2.5-1.4-5.4-2.2-8.4-2.2-4.7 0-9 1.9-12.1 5-3.1 3.1-5 7.4-5 12.1 0 1.8.3 3.6.8 5.3.5 1.7 1.3 3.3 2.4 4.7.6.6 1.3 1 2.1 1.3.8.3 1.6.5 2.4.5 1.1 0 2.1-.2 3-.7.9-.5 1.7-1.1 2.3-2l.8-1.2h5.9v9.3h.5c8.5.8 16 4.7 21.6 10.5 5.5 5.8 9 13.6 9.4 22.1l.1 1.5.8-1.2c.1-.1.2-.2.3-.4l.3-.4 1.6-2.3 14.2 9.5-1.6 2.3c-5.6 8.3-13 14.9-21.5 19.5s-18.1 7.1-28.1 7.1h-.3c-9.3 0-18.2-2.1-26.1-5.9h-.1c-6.1-3-11.6-6.9-16.4-11.6-10.7-10.9-17.5-26-17.5-42.6zm59.7-41.6v23.1h-3.1l-1.1 1.6c-.5.7-1.2 1.3-2 1.7-.8.4-1.7.6-2.6.6-.7 0-1.4-.1-2.1-.4-.6-.2-1.2-.6-1.7-1.1-1-1.4-1.7-2.9-2.2-4.4-.5-1.6-.8-3.3-.8-5 0-4.5 1.8-8.5 4.7-11.4 2.8-2.7 6.7-4.5 10.9-4.7z"/></g><g><linearGradient id="SVGID_20_" gradientUnits="userSpaceOnUse" x1="13.8" y1="165.39" x2="13.8" y2="137.658"><stop offset=".006" stop-color="#d0bd7d"/><stop offset=".073" stop-color="#736939"/><stop offset=".5" stop-color="#efebd6"/><stop offset=".618" stop-color="#e3d9b2"/><stop offset=".67" stop-color="#e2d7ae"/><stop offset=".721" stop-color="#ddd1a2"/><stop offset=".772" stop-color="#d6c68e"/><stop offset=".809" stop-color="#cfbc7b"/><stop offset="1" stop-color="#614f1c"/></linearGradient><path d="M18.4 137.7c-10.3 0-17 6.9-16.4 15.8.5 6.8 6.2 11.9 13.7 11.9 3.9 0 7-1.2 9.3-3.9-.2-.2-.4-.3-.5-.5-7.8 5.5-17.8.7-18.5-7.6-1-13.2 12.3-18.1 19.1-11.3l.4-.3-2.6-4.3h-4.5z" fill="url(#SVGID_20_)"/><radialGradient id="SVGID_21_" cx="16.07" cy="189.312" r="40.067" gradientTransform="matrix(1 0 0 .4883 0 96.869)" gradientUnits="userSpaceOnUse"><stop offset=".444" stop-color="#fff" stop-opacity="0"/><stop offset=".921" stop-color="#fff" stop-opacity=".464"/><stop offset="1" stop-color="#fff" stop-opacity=".54"/></radialGradient><path d="M18.4 137.7c-10.3 0-17 6.9-16.4 15.8.5 6.8 6.2 11.9 13.7 11.9 3.9 0 7-1.2 9.3-3.9-.2-.2-.4-.3-.5-.5-7.8 5.5-17.8.7-18.5-7.6-1-13.2 12.3-18.1 19.1-11.3l.4-.3-2.6-4.3h-4.5z" opacity=".58" fill="url(#SVGID_21_)"/><g class="st3"><path class="st4" d="M15.8 164.9c-5.5-.2-10.6-2.9-12.6-8.4-2.5-7.1 1.6-14.4 8.2-17 2.1-.8 9.3-2.6 11.5-1.1.4.3 1.1 1.6 1.2 2 .2 1.2-1.1-.5-2.1-.9-2.6-1.1-5.7-1.1-8.4-.1-5.8 2.2-8.6 8.4-8 14.3.5 4.9 4 8.9 8.9 10 .4.1 9.1-.2 8.6-1.1.7 1-6.7 2.2-7.3 2.3v.2c3.4-.1 6-.9 8.5-3.2v-.2c-9.4 5.4-21-1.4-18.3-13 1.9-8.5 11.3-12.6 18.6-7.5v-.2c-.5-.9-1.1-2.6-2-3-1.2-.6-4.4-.1-5.8.1-7 .6-13.3 5-14.2 12.3-1 8.2 5.2 14.3 13.2 14.6v-.1z"/></g><path class="st5" d="M18.4 137.7c-10.3 0-17 6.9-16.4 15.8.5 6.8 6.2 11.9 13.7 11.9 3.9 0 7-1.2 9.3-3.9-.2-.2-.4-.3-.5-.5-7.8 5.5-17.8.7-18.5-7.6-1-13.2 12.3-18.1 19.1-11.3l.4-.3-2.6-4.3h-4.5z"/></g><g><linearGradient id="SVGID_22_" gradientUnits="userSpaceOnUse" x1="81.997" y1="166.163" x2="81.997" y2="137.658"><stop offset=".006" stop-color="#d0bd7d"/><stop offset=".073" stop-color="#736939"/><stop offset=".5" stop-color="#efebd6"/><stop offset=".618" stop-color="#e3d9b2"/><stop offset=".67" stop-color="#e2d7ae"/><stop offset=".721" stop-color="#ddd1a2"/><stop offset=".772" stop-color="#d6c68e"/><stop offset=".809" stop-color="#cfbc7b"/><stop offset="1" stop-color="#614f1c"/></linearGradient><path d="M84.8 151.6c5.1-2.7 4.6-8.7 2-11.7-1.5-1.6-3.8-2.3-6.5-2.3h-7.7c1.1 9.3 1 18.6.1 27.7h3.5c-.7-8.7-.9-17.4-.2-25.9 4-1.8 8.6.2 9.4 4.1.8 4.4-.6 7.9-5.9 8.9l.1.5c.9-.1 1.3-.2 2.1-.3 1.7 6.8 5.3 11.8 9.8 13.5v-.6c-3.4-2.5-6.6-9.4-6.7-13.9z" fill="url(#SVGID_22_)"/><radialGradient id="SVGID_23_" cx="83.818" cy="190.754" r="40.066" gradientTransform="matrix(1 0 0 .4883 0 97.606)" gradientUnits="userSpaceOnUse"><stop offset=".444" stop-color="#fff" stop-opacity="0"/><stop offset=".921" stop-color="#fff" stop-opacity=".464"/><stop offset="1" stop-color="#fff" stop-opacity=".54"/></radialGradient><path d="M84.8 151.6c5.1-2.7 4.6-8.7 2-11.7-1.5-1.6-3.8-2.3-6.5-2.3h-7.7c1.1 9.3 1 18.6.1 27.7h3.5c-.7-8.7-.9-17.4-.2-25.9 4-1.8 8.6.2 9.4 4.1.8 4.4-.6 7.9-5.9 8.9l.1.5c.9-.1 1.3-.2 2.1-.3 1.7 6.8 5.3 11.8 9.8 13.5v-.6c-3.4-2.5-6.6-9.4-6.7-13.9z" opacity=".58" fill="url(#SVGID_23_)"/><g class="st3"><path class="st4" d="M90.3 165c-3.1-1.9-5.2-4.7-6.6-8.1-.3-.8-1.9-3.9-1.6-4.7.5-1.1 2.7-1.8 3.3-3.3.5-1.2.7-2.7.6-4-.3-3.8-3-6.7-6.9-6.7-4.5 0-3.7 2.3-3.8 5.9-.2 3.4-.2 6.8-.1 10.2 0 1.7 1.6 9.4.2 10.6-2.8 2.3-1.6-7.1-1.6-7.4.2-3.6.2-7.3 0-10.9-.1-1.7-1.2-7.6 0-8.3 1.2-.7 5-.1 6.4 0 3.4.2 6.4.9 7.7 4.4 1.3 3.6-.2 6.9-3.4 8.7v.2c.1 5 2.6 10.1 5.9 13.8-.2-.2-.1-.3-.1-.4-1.9-2.1-3.3-4.4-4.3-7-.5-1.3-1.1-2.7-1.3-4-.4-2.4.1-2.1 1.2-3.6 1.4-1.8 2.4-2.9 2.4-5.3-.2-8.3-9.4-7.1-15.2-7.1v.2c1 8.9.9 17.8.1 26.7v.2h2.5v-.2c-.5-6.8-.8-13.7-.4-20.6.2-4.3-.5-6.3 4.5-5.8 7.2.7 8.3 10.3 2.3 13.6v.2c1.3 5.2 3.7 10.1 8.3 13-.2-.1-.1-.3-.1-.3z"/></g><path class="st5" d="M84.8 151.6c5.1-2.7 4.6-8.7 2-11.7-1.5-1.6-3.8-2.3-6.5-2.3h-7.7c1.1 9.3 1 18.6.1 27.7h3.5c-.7-8.7-.9-17.4-.2-25.9 4-1.8 8.6.2 9.4 4.1.8 4.4-.6 7.9-5.9 8.9l.1.5c.9-.1 1.3-.2 2.1-.3 1.7 6.8 5.3 11.8 9.8 13.5v-.6c-3.4-2.5-6.6-9.4-6.7-13.9z"/></g><g><linearGradient id="SVGID_24_" gradientUnits="userSpaceOnUse" x1="125.481" y1="120.197" x2="125.481" y2="5.488"><stop offset=".006" stop-color="#d0bd7d"/><stop offset=".073" stop-color="#736939"/><stop offset=".5" stop-color="#efebd6"/><stop offset=".618" stop-color="#e3d9b2"/><stop offset=".67" stop-color="#e2d7ae"/><stop offset=".721" stop-color="#ddd1a2"/><stop offset=".772" stop-color="#d6c68e"/><stop offset=".809" stop-color="#cfbc7b"/><stop offset="1" stop-color="#614f1c"/></linearGradient><path d="M130.3 120.2H130.6c19.7-.1 37.1-10.2 47.3-25.4l-9.3-6.3-.3-.2c-2.2 3.2-4.7 6.2-7.6 8.7.7-2.7 1.1-5.4 1.1-8.3 0-17.4-14.1-31.5-31.4-31.5V48h-1.7c-1.7 2.3-4.5 3.9-7.6 3.9-2.6 0-5-1-6.7-2.7-2.5-3.3-3.9-7.4-3.9-11.9 0-11 8.9-19.9 19.9-19.9 7.2 0 13.6 3.9 17.1 9.6v.4c0 .1.1.2.1.3v.2c0 .1 0 .1.1.2 0 .1 0 .1.1.2v.2c0 .1 0 .1.1.2 0 .1.1.2.1.3V29.3c0 .1 0 .2.1.3V33.2c-.5 3.1-2.4 5.6-5 6.9l-.3 1.7 15 2.4 2.4-15.2v-.4c2.9 2.6 5.5 5.5 7.6 8.7l.3-.2 9.3-6.3c-10.3-15.3-27.8-25.4-47.6-25.4C98.7 5.5 73 31.2 73 62.8c0 31.7 25.7 57.4 57.3 57.4zm26.9-14.1c3.3-2.1 6.4-4.5 9.2-7.3.7-.7 1.3-1.4 2-2.1l.5-4.9 5.7 3.7-5.2 1.7c-.7.8-1.4 1.6-2.2 2.3-3.4 3.4-7.3 6.4-11.6 8.7.5-.7 1.1-1.4 1.6-2.1zm4.8-84.4c1.8 1.4 3.5 2.9 5.1 4.5.8.8 1.6 1.6 2.3 2.5l5.1 1.7-5.7 3.7-.5-5c-.6-.7-1.3-1.4-2-2.1-1.4-1.4-2.9-2.8-4.5-4l.2-1.3zm-11.2-6.4l2.7 9.5-1.1-1.8c-3.6-5.8-9.3-9.8-15.8-11.4 5 .6 9.7 1.8 14.2 3.7zm-40.7 94.9l-2.7-9.5 1.1 1.8c3.6 5.8 9.3 9.8 15.8 11.4-5-.5-9.7-1.8-14.2-3.7zm38.5-39.3c-2.6-1.8-5.7-2.8-8.8-2.8-1.1 0-2.2.1-3.3.4V64c4.6 1.1 8.8 3.6 12.1 6.9zm-27.5-13.5c1.1 0 2.2-.1 3.3-.4v4.5c-4.7-1.1-8.9-3.6-12.2-6.9 2.7 1.8 5.8 2.8 8.9 2.8zm9.3 11.4v9.1h1.7c1.7-2.3 4.5-3.9 7.6-3.9 2.6 0 4.9 1 6.6 2.7 2.5 3.3 4 7.5 4 12 0 7.8-4.4 14.5-10.9 17.8-5 2.6-11 2.8-16.2.8-5.8-2.3-11.9-8.3-10.8-14.9.5-3.1 2.4-5.6 5-6.9l.3-1.7-15-2.4-2.5 15.8h.1v.2C90.6 89 84.5 76.6 84.5 62.8s6.1-26.3 15.8-34.7c-.9 2.9-1.4 6-1.4 9.2.1 17.4 14.2 31.5 31.5 31.5zM93.8 26.2c3.7-3.7 8-6.9 12.7-9.3-.6.7-1.1 1.4-1.7 2.2-3.8 2.2-7.2 4.9-10.3 7.9-9.2 9.2-14.9 21.9-14.9 35.9s5.7 26.7 14.9 35.9c1.4 1.4 3 2.8 4.6 4l-.2 1.2c-1.8-1.4-3.5-2.9-5.1-4.5-9.4-9.4-15.2-22.4-15.2-36.7 0-14.3 5.8-27.3 15.2-36.6z" fill="url(#SVGID_24_)"/><g class="st1"><radialGradient id="SVGID_25_" cx="135.575" cy="219.153" r="167.492" gradientTransform="matrix(1 0 0 .4883 0 112.138)" gradientUnits="userSpaceOnUse"><stop offset=".444" stop-color="#fff" stop-opacity="0"/><stop offset=".921" stop-color="#fff" stop-opacity=".464"/><stop offset="1" stop-color="#fff" stop-opacity=".54"/></radialGradient><path d="M130.3 120.2H130.6c19.7-.1 37.1-10.2 47.3-25.4l-9.3-6.3-.3-.2c-2.2 3.2-4.7 6.2-7.6 8.7.7-2.7 1.1-5.4 1.1-8.3 0-17.4-14.1-31.5-31.4-31.5V48h-1.7c-1.7 2.3-4.5 3.9-7.6 3.9-2.6 0-5-1-6.7-2.7-2.5-3.3-3.9-7.4-3.9-11.9 0-11 8.9-19.9 19.9-19.9 7.2 0 13.6 3.9 17.1 9.6v.4c0 .1.1.2.1.3v.2c0 .1 0 .1.1.2 0 .1 0 .1.1.2v.2c0 .1 0 .1.1.2 0 .1.1.2.1.3V29.3c0 .1 0 .2.1.3V33.2c-.5 3.1-2.4 5.6-5 6.9l-.3 1.7 15 2.4 2.4-15.2v-.4c2.9 2.6 5.5 5.5 7.6 8.7l.3-.2 9.3-6.3c-10.3-15.3-27.8-25.4-47.6-25.4C98.7 5.5 73 31.2 73 62.8c0 31.7 25.7 57.4 57.3 57.4zm26.9-14.1c3.3-2.1 6.4-4.5 9.2-7.3.7-.7 1.3-1.4 2-2.1l.5-4.9 5.7 3.7-5.2 1.7c-.7.8-1.4 1.6-2.2 2.3-3.4 3.4-7.3 6.4-11.6 8.7.5-.7 1.1-1.4 1.6-2.1zm4.8-84.4c1.8 1.4 3.5 2.9 5.1 4.5.8.8 1.6 1.6 2.3 2.5l5.1 1.7-5.7 3.7-.5-5c-.6-.7-1.3-1.4-2-2.1-1.4-1.4-2.9-2.8-4.5-4l.2-1.3zm-11.2-6.4l2.7 9.5-1.1-1.8c-3.6-5.8-9.3-9.8-15.8-11.4 5 .6 9.7 1.8 14.2 3.7zm-40.7 94.9l-2.7-9.5 1.1 1.8c3.6 5.8 9.3 9.8 15.8 11.4-5-.5-9.7-1.8-14.2-3.7zm38.5-39.3c-2.6-1.8-5.7-2.8-8.8-2.8-1.1 0-2.2.1-3.3.4V64c4.6 1.1 8.8 3.6 12.1 6.9zm-27.5-13.5c1.1 0 2.2-.1 3.3-.4v4.5c-4.7-1.1-8.9-3.6-12.2-6.9 2.7 1.8 5.8 2.8 8.9 2.8zm9.3 11.4v9.1h1.7c1.7-2.3 4.5-3.9 7.6-3.9 2.6 0 4.9 1 6.6 2.7 2.5 3.3 4 7.5 4 12 0 7.8-4.4 14.5-10.9 17.8-5 2.6-11 2.8-16.2.8-5.8-2.3-11.9-8.3-10.8-14.9.5-3.1 2.4-5.6 5-6.9l.3-1.7-15-2.4-2.5 15.8h.1v.2C90.6 89 84.5 76.6 84.5 62.8s6.1-26.3 15.8-34.7c-.9 2.9-1.4 6-1.4 9.2.1 17.4 14.2 31.5 31.5 31.5zM93.8 26.2c3.7-3.7 8-6.9 12.7-9.3-.6.7-1.1 1.4-1.7 2.2-3.8 2.2-7.2 4.9-10.3 7.9-9.2 9.2-14.9 21.9-14.9 35.9s5.7 26.7 14.9 35.9c1.4 1.4 3 2.8 4.6 4l-.2 1.2c-1.8-1.4-3.5-2.9-5.1-4.5-9.4-9.4-15.2-22.4-15.2-36.7 0-14.3 5.8-27.3 15.2-36.6z" fill="url(#SVGID_25_)"/></g><g class="st3"><path class="st4" d="M130.4 119.7c-36.1-.5-64.1-34.7-55.3-70.4 8.2-33.3 45.4-52.2 77.1-38.9 8.2 3.4 15.6 8.8 21.4 15.6.7.8 3.7 4 3.4 4.8-.2.5-2.2 1.5-2.6 1.7-1.2.8-4.5 4-5.9 4-.8 0-2.9-3.7-3.6-4.4-.6-.6-3.4-4.2-4.3-4.3-.7 0-.7 2.5-.9 3.6-.4 2.7-.9 5.5-1.3 8.2-.1.7-.2 3.4-.7 3.8-.7.5-5.2-.8-6-1-1.7-.3-5.9-.1-7.3-1.2-1.4-1.1 2.5-3.2 3.5-5 .8-1.5 1.2-3.1 1.2-4.7 0-3.7-2.1-6.8-4.7-9.3-12.8-12-34.2-2.4-34.3 14.9 0 7 3.6 15.8 11.8 15.1 3.1-.2 4.1-2 6.6-3.2 1.6-.8 1.1-.7 1.5.8.6 2.3 0 5.3 0 7.7v.1c21.4 0 35.5 20.2 29.9 40.5v.2c2.4-2.1 4.7-4.3 6.6-6.9 2.3-2.9 1.8-2.7 4.7-.7 1.3.9 5 2.4 5.7 3.8.7 1.4-5.1 6.9-6.3 8.2-10.5 10.8-25.2 17-40.2 17v.2c18.8 0 36.2-9.6 46.9-24.8v-.2c-2.3-1.5-4.9-4.1-7.4-5-.3-.1-1-.9-1.3-.9-.4 0-1.6 2-2 2.5-1.4 1.7-3.8 5.2-5.8 6.1-1.2.5-.4.8-.5-.1-.2-.9.6-2.6.8-3.6.3-1.7.4-3.3.4-5 0-1.6-.1-3.3-.4-4.9-1.6-10.4-8.6-19.5-18.3-23.7-2.4-1.1-5-1.8-7.6-2.2-1.1-.2-4.5.1-5.2-.6-1-1.1 0-7.2 0-8.8v-.1c-2.1 0-3.7 2.7-5.9 3.4-2.7.9-5.7.5-8.2-1-6-3.6-6.8-13.6-5-19.5 3.1-9.9 13.5-16 23.6-13.9 5.8 1.2 12.5 5.6 14.1 11.6.3.9.4 1.9.3 2.9-.1 1.7-.6 3.3-1.5 4.7-1.1 1.7-3.6 2.7-3.9 4.5v.2c3.9.6 9 2.5 12.9 2.1 1.7-.2 1 .5 1.5-1.5.7-2.5.8-5.2 1.2-7.7.2-1.1.2-5.4 1-6.1.6-.5-.3-.1.7.1 1.5.3 4 4 5 5.2 2.9 3.5 2.1 3.4 5.6 1.1 1.9-1.3 3.8-2.5 5.6-3.8v-.2c-20.1-29.2-63-33.3-87.8-7.2-18.8 19.7-20.9 50.7-5 72.7 10.7 14.9 28 23.4 46.2 23.6v-.1z"/><path class="st4" d="M107 100.9c.8 2.8 1.2 6.5 2.6 9 .9 1.7 3.8 2.1 5.6 2.7 1.8.5 3.6 1 5.4 1.3 1.3.2 3.6 1.3 3.8-.3v-.2c-4.4-1.1-8.4-3.2-11.6-6.4-1.5-1.5-2.8-3.1-3.9-4.8-.7-1-.7-2-1.9-1.5-.1.1 0 .2 0 .2 1.4-.6 1.8 1.2 2.5 2.3 1.6 2.3 3.5 4.3 5.7 5.9 1.9 1.4 4 2.6 6.3 3.4.8.3 3.1.6 2.8 1.6 0 .2-4.5-.7-4.9-.8-1.6-.3-3.2-.8-4.8-1.3-1.1-.3-3.9-.9-4.7-1.7-.4-.5-.5-1.2-.7-1.9-.8-2.6-1.5-5.3-2.3-7.9.1.3 0 .4.1.4z"/><path class="st4" d="M117 85.1c-6.9 4.3-6.3 12.3-1.3 17.8 9.3 10 26.5 7.6 32.8-4.5 3.2-6.3 3.2-14.6-.8-20.5-2.1-3.1-5.7-4.7-9.4-4.1-1.5.2-2.9.8-4.2 1.7-.8.5-1.7 2.2-2.7 2.1-1.1-.2-.5-7.5-.5-9v-.1c-9-.6-17-3.3-23.2-10.1-7.9-8.6-9.8-20.3-6.4-31.3v-.2c-22.4 19.4-22.6 52.5-.2 72v-.2c-.7-2.4 0-4.7.4-7.2.3-1.6.3-8.3 1.5-9.3.8-.7 5.4.7 6.6.9 1.4.2 7.6.3 7.4 2v.2c.1-.3.1-.7.2-1v-.2c-3.9-.6-9-2.5-12.9-2.1-1.7.2-1-.5-1.5 1.5-.7 2.5-.8 5.2-1.2 7.7-.3 1.9-.5 4-.9 5.8-.3 1.4 1.2 1.1-.5.7-1.4-.4-3.5-3.3-4.5-4.5-1.7-1.9-3.2-3.9-4.5-6.1-11.2-17.7-8.5-41.5 6.1-56.5.2-.2 3.3-3.6 3.7-3.4.3.2-.5 2.2-.6 2.8-.6 2.4-.9 4.9-.9 7.4 0 5.1 1.3 10.3 3.7 14.8 4.2 7.7 11.4 13.3 19.9 15.4 2.1.5 4.8.2 6.7.9 1.5.5.7-.4 1.1 1.4.6 2.3 0 5.3 0 7.7v.1c1.6 0 1.9-1.2 3.2-2.1 1.7-1.2 3.7-1.8 5.7-1.8 4.7 0 7.7 3 9.4 7.1 3.7 8.8.6 19.1-7.1 24.5-6.8 4.7-16.1 4.8-23 .2-7.1-4.8-10.6-15-2.2-20.3.1-.1.1-.2.1-.2zM167.9 96.4c-3.9 4.2-9.3 7-12.7 11.5v.2c1.7 2 11.2-7.1 12.8-8.7 2.2-2.2 4.6-2.7 7.6-3.7v-.2c-1-.6-1.9-1.3-2.9-1.9-.8-.5-2.8-2.4-3.7-2.4-.8 0-.5-.1-.6 1.3-.3 1.3-.4 2.6-.5 3.9v.2c.1-1.3 0-3.2.4-4.5.2-.6-.1-.8.3-.9.3-.1 1.5 1 1.8 1.1 1 .7 4.2 2 4.7 3 .3.7.5-.2-.2.4-.7.5-2.3.7-3.1 1-2.5.8-3.4 2.1-5.3 3.9-2.6 2.4-5.4 4.6-8.4 6.5-1.3.8-3.2 2.3-2-.2.6-1.3 1.7-1.7 2.7-2.4 3.4-2.3 6.4-5 9.2-8-.1 0-.1-.1-.1-.1z"/><path class="st4" d="M106.3 16.3c-17.1 9.3-28.2 26.9-28.1 46.5 0 7.7 1.6 15.3 4.9 22.3 2.3 5 5.5 9.6 9.3 13.7 1.2 1.3 4.4 5.5 6.3 5.7 1 .1.7-.1 1-1.7v-.2C84.8 91 77.5 72 81 53.4c1.5-7.7 4.8-15.1 9.6-21.3 2.6-3.4 5.7-6.4 9.1-9.1 2.7-2.1 5-3.3 7.1-5.9v-.2c-.2-.1-.3-.3-.5-.6v.2c1.3 1.7-3.2 3.9-4 4.5-3.1 2.1-6 4.6-8.6 7.3-5.2 5.6-9.2 12.3-11.4 19.6-2.6 8.4-2.9 17.5-1 26.1 1.6 7.2 4.8 13.9 9.3 19.8 2.2 2.9 5.3 5.1 7.6 7.9.9 1.1 2.2 2.8.4 2.7-1.2-.1-3.7-3.1-4.5-3.9-1.4-1.3-2.6-2.7-3.9-4.1-2.5-3-4.7-6.3-6.5-9.9-4.5-9-6.2-19-5.3-29C80 40.1 91 24.9 106.2 16.7c.1-.2.1-.4.1-.4zM139.8 68.7c2 .1 3.9.4 5.7 1.1.8.3 1.5.8 2.2 1.1 1 .4.6.6 1.3-.2v-.2c-3.6-3.6-8-6-12.9-7.2V69.1c1.1-.2 2.4-.4 3.7-.4v-.2c-.7 0-3.5.6-3.8.3-.3-.3 0-2 0-2.3 0-.4-.3-2.5 0-2.8.3-.4 2.7.6 3.4.9 1.7.6 3.4 1.4 4.9 2.4 1.3.8 3.6 2.1 4.2 3.4.4 1-.3.6-.9.3-.8-.3-1.4-.8-2.2-1.1-1.8-.7-3.7-1.1-5.7-1.1.1 0 .1.2.1.2zM112 55c3.6 3.6 8 6 12.9 7.2v-.1-5.6-.1c-2.4.5-4.7.6-7.1.1-1.2-.3-2.4-.7-3.5-1.3-1.2-.6-1.5-1.4-2.4-.4 0 .1.1.2.1.2.7-.8.3-.6 1.3-.2.8.3 1.4.8 2.2 1.1 1.8.7 3.7 1.1 5.7 1.1.6 0 3.6-.7 3.8-.5.2.2 0 2.2 0 2.5 0 .6.3 2.2 0 2.7s-2.2-.3-3-.6c-3.8-1.3-7.1-3.5-9.9-6.3-.1.1-.2.2-.1.2zM168.4 34.9c2.4-1.5 4.7-3.1 7.1-4.6v-.2c-2-.7-4.6-1-6.2-2.3-2.2-1.7-4-4.1-6.2-5.9-.4-.3-1.1-1.1-1.4-.9-.3.2-.3 1.7-.4 2v.2c2 1.6 5.7 4 6.6 6.4.6 1.5.4 3.6.5 5.3v-.2c-.1-1.4-.3-2.8-.4-4.1-.2-2.3-2.1-3.6-3.8-5.1-.6-.5-2.5-1.6-2.8-2.4-.1-.2.1-1.9.3-2 .6-.4 5.8 5 6.5 5.7 1.5 1.6 2.1 1.8 4.2 2.5.8.3 1.6.5 2.4.8.5.2.7.2.7.2-.2.7-3.3 2.1-3.9 2.5-1 .7-2.1 1.3-3.1 2-.1-.1 0 0-.1.1zM136.4 12.1c4.4 1.2 8.4 3.2 11.6 6.4 1.5 1.5 2.8 3.1 3.9 4.8.7 1 .7 2 1.9 1.5v-.2c-.8-2.8-1.2-6.5-2.6-9-.9-1.7-3.8-2.1-5.6-2.7-1.8-.5-3.6-1-5.4-1.3-1.3-.2-3.6-1.3-3.8.3 0 .1.1.2 0 .2.3-1.5 1.4-.7 2.6-.5 1.6.3 3.3.6 4.9 1 1.8.5 6 1.1 7.3 2.6.5.5.6 2.2.8 2.9.5 1.7 1 3.3 1.4 5 .2.8.9 2.4-.4 1.8-.9-.4-2.2-3.4-2.9-4.2-3.5-4.4-8.3-7.2-13.7-8.6.1-.1 0 0 0 0z"/></g><path class="st5" d="M130.3 120.2H130.6c19.7-.1 37.1-10.2 47.3-25.4l-9.3-6.3-.3-.2c-2.2 3.2-4.7 6.2-7.6 8.7.7-2.7 1.1-5.4 1.1-8.3 0-17.4-14.1-31.5-31.4-31.5V48h-1.7c-1.7 2.3-4.5 3.9-7.6 3.9-2.6 0-5-1-6.7-2.7-2.5-3.3-3.9-7.4-3.9-11.9 0-11 8.9-19.9 19.9-19.9 7.2 0 13.6 3.9 17.1 9.6v.4c0 .1.1.2.1.3v.2c0 .1 0 .1.1.2 0 .1 0 .1.1.2v.2c0 .1 0 .1.1.2 0 .1.1.2.1.3V29.3c0 .1 0 .2.1.3V33.2c-.5 3.1-2.4 5.6-5 6.9l-.3 1.7 15 2.4 2.4-15.2v-.4c2.9 2.6 5.5 5.5 7.6 8.7l.3-.2 9.3-6.3c-10.3-15.3-27.8-25.4-47.6-25.4C98.7 5.5 73 31.2 73 62.8c0 31.7 25.7 57.4 57.3 57.4zm26.9-14.1c3.3-2.1 6.4-4.5 9.2-7.3.7-.7 1.3-1.4 2-2.1l.5-4.9 5.7 3.7-5.2 1.7c-.7.8-1.4 1.6-2.2 2.3-3.4 3.4-7.3 6.4-11.6 8.7.5-.7 1.1-1.4 1.6-2.1zm4.8-84.4c1.8 1.4 3.5 2.9 5.1 4.5.8.8 1.6 1.6 2.3 2.5l5.1 1.7-5.7 3.7-.5-5c-.6-.7-1.3-1.4-2-2.1-1.4-1.4-2.9-2.8-4.5-4l.2-1.3zm-11.2-6.4l2.7 9.5-1.1-1.8c-3.6-5.8-9.3-9.8-15.8-11.4 5 .6 9.7 1.8 14.2 3.7zm-40.7 94.9l-2.7-9.5 1.1 1.8c3.6 5.8 9.3 9.8 15.8 11.4-5-.5-9.7-1.8-14.2-3.7zm38.5-39.3c-2.6-1.8-5.7-2.8-8.8-2.8-1.1 0-2.2.1-3.3.4V64c4.6 1.1 8.8 3.6 12.1 6.9zm-27.5-13.5c1.1 0 2.2-.1 3.3-.4v4.5c-4.7-1.1-8.9-3.6-12.2-6.9 2.7 1.8 5.8 2.8 8.9 2.8zm9.3 11.4v9.1h1.7c1.7-2.3 4.5-3.9 7.6-3.9 2.6 0 4.9 1 6.6 2.7 2.5 3.3 4 7.5 4 12 0 7.8-4.4 14.5-10.9 17.8-5 2.6-11 2.8-16.2.8-5.8-2.3-11.9-8.3-10.8-14.9.5-3.1 2.4-5.6 5-6.9l.3-1.7-15-2.4-2.5 15.8h.1v.2C90.6 89 84.5 76.6 84.5 62.8s6.1-26.3 15.8-34.7c-.9 2.9-1.4 6-1.4 9.2.1 17.4 14.2 31.5 31.5 31.5zM93.8 26.2c3.7-3.7 8-6.9 12.7-9.3-.6.7-1.1 1.4-1.7 2.2-3.8 2.2-7.2 4.9-10.3 7.9-9.2 9.2-14.9 21.9-14.9 35.9s5.7 26.7 14.9 35.9c1.4 1.4 3 2.8 4.6 4l-.2 1.2c-1.8-1.4-3.5-2.9-5.1-4.5-9.4-9.4-15.2-22.4-15.2-36.7 0-14.3 5.8-27.3 15.2-36.6z"/></g><g><linearGradient id="SVGID_26_" gradientUnits="userSpaceOnUse" x1="36.674" y1="165.39" x2="36.674" y2="137.658"><stop offset=".006" stop-color="#d0bd7d"/><stop offset=".073" stop-color="#736939"/><stop offset=".5" stop-color="#efebd6"/><stop offset=".618" stop-color="#e3d9b2"/><stop offset=".67" stop-color="#e2d7ae"/><stop offset=".721" stop-color="#ddd1a2"/><stop offset=".772" stop-color="#d6c68e"/><stop offset=".809" stop-color="#cfbc7b"/><stop offset="1" stop-color="#614f1c"/></linearGradient><path d="M41.6 137.7c.5 4.8.7 9.6.6 14.4H31.1c0-4.8.2-9.6.6-14.4h-3.6c1.1 9.3 1 18.6.1 27.7h3.5c-.3-4-.6-8-.6-11.9h11.1c-.1 4-.3 7.9-.6 11.9H45c-.9-9.2-1-18.4.1-27.7h-3.5z" fill="url(#SVGID_26_)"/><radialGradient id="SVGID_27_" cx="38.311" cy="189.312" r="38.727" gradientTransform="matrix(1 0 0 .4883 0 96.869)" gradientUnits="userSpaceOnUse"><stop offset=".444" stop-color="#fff" stop-opacity="0"/><stop offset=".921" stop-color="#fff" stop-opacity=".464"/><stop offset="1" stop-color="#fff" stop-opacity=".54"/></radialGradient><path d="M41.6 137.7c.5 4.8.7 9.6.6 14.4H31.1c0-4.8.2-9.6.6-14.4h-3.6c1.1 9.3 1 18.6.1 27.7h3.5c-.3-4-.6-8-.6-11.9h11.1c-.1 4-.3 7.9-.6 11.9H45c-.9-9.2-1-18.4.1-27.7h-3.5z" opacity=".58" fill="url(#SVGID_27_)"/><g class="st3"><path class="st4" d="M42.1 165c.3-4 .5-8 .6-11.9v-.2h-12v.2c0 3 1.2 7.2.4 10-.2.8 0 2.7-1.5 1.8-1.1-.6-.5-2.4-.5-3.7.1-3.7.4-7.4.3-11.2 0-2.9-.3-5.8-.4-8.7 0-.7-.3-5 1.8-3.2.7.6.1 4 0 4.9-.2 3.2-.2 6.3-.2 9.5h12.1c0-2 0-4-.1-6 0-1.3-1.2-7.5-.1-8.4 2.6-2.3 1.7 4.9 1.6 5.7-.2 2.7-.2 5.3-.2 8 0 2.5.1 4.9.2 7.4 0-.1.2 3.9.3 3.8-.6 2.2-.2 1.8-2.3 1.8v.2h2.5v-.2c-.8-8.9-.9-17.8.1-26.7v-.2h-2.6v.2c.3 2.9 2.3 13.8-.2 14.3-1.6.3-3.6 0-5.2 0s-3.6.3-5.2 0c-2.5-.5-.5-11.4-.2-14.3v-.2h-2.6v.2c1 8.9.9 17.8.1 26.7v.2h2.5v-.2c-.1-1.5-1.4-11.1-.2-11.7 1.2-.6 4.3 0 5.7 0 1.4 0 4.1-.5 5.4 0 1.6.6.1 10 0 11.7-.1.1-.1.2-.1.2z"/></g><path class="st5" d="M41.6 137.7c.5 4.8.7 9.6.6 14.4H31.1c0-4.8.2-9.6.6-14.4h-3.6c1.1 9.3 1 18.6.1 27.7h3.5c-.3-4-.6-8-.6-11.9h11.1c-.1 4-.3 7.9-.6 11.9H45c-.9-9.2-1-18.4.1-27.7h-3.5z"/></g><g><linearGradient id="SVGID_28_" gradientUnits="userSpaceOnUse" x1="58.972" y1="165.39" x2="58.972" y2="137.658"><stop offset=".006" stop-color="#d0bd7d"/><stop offset=".073" stop-color="#736939"/><stop offset=".5" stop-color="#efebd6"/><stop offset=".618" stop-color="#e3d9b2"/><stop offset=".67" stop-color="#e2d7ae"/><stop offset=".721" stop-color="#ddd1a2"/><stop offset=".772" stop-color="#d6c68e"/><stop offset=".809" stop-color="#cfbc7b"/><stop offset="1" stop-color="#614f1c"/></linearGradient><path d="M58.4 137.7c-3.2 9.4-6.6 18.8-11.1 27.7h3.6c1.5-7.1 4.4-14.7 7.5-22.5 3.2 7.6 5.5 15 7.2 22.5h5.1c-4.4-8.5-8-17.8-11.2-27.7h-1.1z" fill="url(#SVGID_28_)"/><radialGradient id="SVGID_29_" cx="61.217" cy="189.312" r="40.006" gradientTransform="matrix(1 0 0 .4883 0 96.869)" gradientUnits="userSpaceOnUse"><stop offset=".444" stop-color="#fff" stop-opacity="0"/><stop offset=".921" stop-color="#fff" stop-opacity=".464"/><stop offset="1" stop-color="#fff" stop-opacity=".54"/></radialGradient><path d="M58.4 137.7c-3.2 9.4-6.6 18.8-11.1 27.7h3.6c1.5-7.1 4.4-14.7 7.5-22.5 3.2 7.6 5.5 15 7.2 22.5h5.1c-4.4-8.5-8-17.8-11.2-27.7h-1.1z" opacity=".58" fill="url(#SVGID_29_)"/><g class="st3"><path class="st4" d="M65.9 164.9c-1.3-5.5-2.9-10.9-4.8-16.3-.5-1.4-1.3-5.7-2.5-6.4-.7-.4.2-.5-.5.3-.5.6-.8 2.1-1.1 2.8-2.1 5.3-4.2 10.7-5.6 16.3-.2.7-.7 5-2.5 3.4-.9-.8 2.1-6 2.6-7.4 2-4.7 3.8-9.5 5.5-14.4.1-.4 1.4-5 1.9-4.9.8.1 2.4 6.3 2.7 7.2 1.7 4.8 3.6 9.5 5.7 14.2.6 1.4 2.7 4.7 1.8 5.3-.5.2-2.5-.1-3.2-.1v.2h4v-.2c-2.1-4.3-4.1-8.6-5.8-13-.7-1.7-4-13.7-5.2-13.8-.7-.1-3.7 9.8-4.1 11.1-2 5.3-4.3 10.6-6.8 15.7v.2c.6 0 2 .3 2.5 0 .9-.5 1.6-6.3 2.1-7.6.7-2.3 1.5-4.6 2.4-6.9.7-2 1.6-6.2 3-7.7.9-1-.1-1 .8 0 1.3 1.3 2 5 2.6 6.8 1.8 5.1 3.3 10.2 4.5 15.4v-.2z"/></g><path class="st5" d="M58.4 137.7c-3.2 9.4-6.6 18.8-11.1 27.7h3.6c1.5-7.1 4.4-14.7 7.5-22.5 3.2 7.6 5.5 15 7.2 22.5h5.1c-4.4-8.5-8-17.8-11.2-27.7h-1.1z"/></g></svg>